<svg aria-hidden="true" style="position:absolute;width:0;height:0;overflow:hidden" xmlns="http://www.w3.org/2000/svg"><defs><symbol id="icon-playn" viewBox="0 0 24 24"><path fill="#fff" style="fill:var(--color1, #fff)" d="M24 0 0 13.5l7.67 2.841L19.5 5.25l-8.998 12.14.007.003-.009-.003V24l4.301-5.018L20.25 21 24 0z"/></symbol><symbol id="icon-name_modal" viewBox="0 0 24 24"><path d="M12 12c2.21 0 4-1.79 4-4s-1.79-4-4-4-4 1.79-4 4 1.79 4 4 4zm0 2c-2.67 0-8 1.34-8 4v1c0 .55.45 1 1 1h14c.55 0 1-.45 1-1v-1c0-2.66-5.33-4-8-4z"/></symbol><symbol id="icon-name_modal1" viewBox="0 0 24 24"><path fill="#2196f3" style="fill:var(--color2, #2196f3)" d="M12 12c2.21 0 4-1.79 4-4s-1.79-4-4-4-4 1.79-4 4 1.79 4 4 4zm0 2c-2.67 0-8 1.34-8 4v1c0 .55.45 1 1 1h14c.55 0 1-.45 1-1v-1c0-2.66-5.33-4-8-4z"/></symbol><symbol id="icon-check_off" viewBox="0 0 26 24"><path d="M22.756 2.667v18.667H2.845V2.667h19.911zm0-2.667H2.845C1.281 0 .001 1.2.001 2.667v18.667c0 1.467 1.28 2.667 2.844 2.667h19.911c1.564 0 2.844-1.2 2.844-2.667V2.667C25.6 1.2 24.32 0 22.756 0z"/></symbol><symbol id="icon-check_on" viewBox="0 0 26 24"><path fill="#2196f3" style="fill:var(--color2, #2196f3)" d="M3.2 0h19.2a3.2 3.2 0 0 1 3.2 3.2v17.6a3.2 3.2 0 0 1-3.2 3.2H3.2A3.2 3.2 0 0 1 0 20.8V3.2A3.2 3.2 0 0 1 3.2 0z"/><path fill="#fff" style="fill:var(--color1, #fff);stroke:var(--color1, #fff)" stroke="#fff" stroke-width=".32" d="m6.331 12.403-.11-.105-1.653 1.566 5.825 5.557L22.632 7.746l-1.643-1.567-10.596 10.099-4.062-3.875z"/></symbol><symbol id="icon-email_modal" viewBox="0 0 24 24"><path d="M20 4H4c-1.1 0-1.99.9-1.99 2L2 18c0 1.1.9 2 2 2h16c1.1 0 2-.9 2-2V6c0-1.1-.9-2-2-2zm-.4 4.25-7.07 4.42c-.32.2-.74.2-1.06 0L4.4 8.25a.85.85 0 1 1 .9-1.44L12 11l6.7-4.19a.85.85 0 1 1 .9 1.44z"/></symbol><symbol id="icon-email_modal1" viewBox="0 0 24 24"><path fill="#2196f3" style="fill:var(--color2, #2196f3)" d="M20 4H4c-1.1 0-1.99.9-1.99 2L2 18c0 1.1.9 2 2 2h16c1.1 0 2-.9 2-2V6c0-1.1-.9-2-2-2zm-.4 4.25-7.07 4.42c-.32.2-.74.2-1.06 0L4.4 8.25a.85.85 0 1 1 .9-1.44L12 11l6.7-4.19a.85.85 0 1 1 .9 1.44z"/></symbol><symbol id="icon-tel_modal" viewBox="0 0 24 24"><path d="m18.661 14.83-2.451-.28a1.92 1.92 0 0 0-1.583.55l-1.775 1.775a14.514 14.514 0 0 1-6.359-6.359l1.785-1.785c.415-.415.618-.994.55-1.582l-.28-2.432a1.931 1.931 0 0 0-1.92-1.708H4.959c-1.09 0-1.997.907-1.93 1.997.511 8.24 7.102 14.821 15.332 15.332 1.09.067 1.997-.839 1.997-1.93v-1.669a1.913 1.913 0 0 0-1.698-1.911z"/></symbol><symbol id="icon-tel_modal1" viewBox="0 0 24 24"><path fill="#2196f3" style="fill:var(--color2, #2196f3)" d="m18.661 14.83-2.451-.28a1.92 1.92 0 0 0-1.583.55l-1.775 1.775a14.514 14.514 0 0 1-6.359-6.359l1.785-1.785c.415-.415.618-.994.55-1.582l-.28-2.432a1.931 1.931 0 0 0-1.92-1.708H4.959c-1.09 0-1.997.907-1.93 1.997.511 8.24 7.102 14.821 15.332 15.332 1.09.067 1.997-.839 1.997-1.93v-1.669a1.913 1.913 0 0 0-1.698-1.911z"/></symbol><symbol id="icon-close1" viewBox="0 0 24 24"><path fill="#2196f3" style="fill:var(--color2, #2196f3)" d="M24 2.417 21.583 0 12 9.583 2.417 0 0 2.417 9.583 12 0 21.583 2.417 24 12 14.417 21.583 24 24 21.583 14.417 12 24 2.417z"/></symbol><symbol id="icon-close" viewBox="0 0 24 24"><path d="M24 2.417 21.583 0 12 9.583 2.417 0 0 2.417 9.583 12 0 21.583 2.417 24 12 14.417 21.583 24 24 21.583 14.417 12 24 2.417z"/></symbol><symbol id="icon-smartphone" viewBox="0 0 15 24"><path fill="#fff" style="fill:var(--color1, #fff)" d="M12.75 0H2.25A2.252 2.252 0 0 0 0 2.25v19.5A2.252 2.252 0 0 0 2.25 24h10.5A2.252 2.252 0 0 0 15 21.75V2.25A2.252 2.252 0 0 0 12.75 0zM2.25 1.5h10.5a.75.75 0 0 1 .75.75V18h-12V2.25a.75.75 0 0 1 .75-.75zm10.5 21H2.25a.75.75 0 0 1-.75-.75V19.5h12v2.25a.75.75 0 0 1-.75.75z"/><path fill="#fff" style="fill:var(--color1, #fff)" d="M3.53 20.608c.293.274.293.717 0 .99s-.768.274-1.061 0c-.293-.273-.293-.717 0-.99s.768-.273 1.061 0z"/></symbol><symbol id="icon-smartphone1" viewBox="0 0 15 24"><path fill="#2196f3" style="fill:var(--color2, #2196f3)" d="M12.75 0H2.25A2.252 2.252 0 0 0 0 2.25v19.5A2.252 2.252 0 0 0 2.25 24h10.5A2.252 2.252 0 0 0 15 21.75V2.25A2.252 2.252 0 0 0 12.75 0zM2.25 1.5h10.5a.75.75 0 0 1 .75.75V18h-12V2.25a.75.75 0 0 1 .75-.75zm10.5 21H2.25a.75.75 0 0 1-.75-.75V19.5h12v2.25a.75.75 0 0 1-.75.75z"/><path fill="#2196f3" style="fill:var(--color2, #2196f3)" d="M3.53 20.608c.293.274.293.717 0 .99s-.768.274-1.061 0c-.293-.273-.293-.717 0-.99s.768-.273 1.061 0z"/></symbol><symbol id="icon-smartphone2" viewBox="0 0 15 24"><path fill="#757575" style="fill:var(--color3, #757575)" d="M12.75 0H2.25A2.252 2.252 0 0 0 0 2.25v19.5A2.252 2.252 0 0 0 2.25 24h10.5A2.252 2.252 0 0 0 15 21.75V2.25A2.252 2.252 0 0 0 12.75 0zM2.25 1.5h10.5a.75.75 0 0 1 .75.75V18h-12V2.25a.75.75 0 0 1 .75-.75zm10.5 21H2.25a.75.75 0 0 1-.75-.75V19.5h12v2.25a.75.75 0 0 1-.75.75z"/><path fill="#757575" style="fill:var(--color3, #757575)" d="M3.53 20.608c.293.274.293.717 0 .99s-.768.274-1.061 0c-.293-.273-.293-.717 0-.99s.768-.273 1.061 0z"/></symbol><symbol id="icon-e-mail" viewBox="0 0 32 24"><path fill="#fff" style="fill:var(--color1, #fff)" d="M29 0H3C1.346 0 0 1.346 0 3v18c0 1.654 1.346 3 3 3h26c1.654 0 3-1.346 3-3V3c0-1.654-1.346-3-3-3zm0 2c.136 0 .265.028.383.077L16 13.676 2.617 2.077A.996.996 0 0 1 3 2h26zm0 20H3a1 1 0 0 1-1-1V4.19l13.345 11.565a1 1 0 0 0 1.31 0L30 4.19V21a1 1 0 0 1-1 1z"/></symbol><symbol id="icon-e-mail1" viewBox="0 0 32 24"><path fill="#2196f3" style="fill:var(--color2, #2196f3)" d="M29 0H3C1.346 0 0 1.346 0 3v18c0 1.654 1.346 3 3 3h26c1.654 0 3-1.346 3-3V3c0-1.654-1.346-3-3-3zm0 2c.136 0 .265.028.383.077L16 13.676 2.617 2.077A.996.996 0 0 1 3 2h26zm0 20H3a1 1 0 0 1-1-1V4.19l13.345 11.565a1 1 0 0 0 1.31 0L30 4.19V21a1 1 0 0 1-1 1z"/></symbol><symbol id="icon-e-mail2" viewBox="0 0 32 24"><path fill="#757575" style="fill:var(--color3, #757575)" d="M29 0H3C1.346 0 0 1.346 0 3v18c0 1.654 1.346 3 3 3h26c1.654 0 3-1.346 3-3V3c0-1.654-1.346-3-3-3zm0 2c.136 0 .265.028.383.077L16 13.676 2.617 2.077A.996.996 0 0 1 3 2h26zm0 20H3a1 1 0 0 1-1-1V4.19l13.345 11.565a1 1 0 0 0 1.31 0L30 4.19V21a1 1 0 0 1-1 1z"/></symbol><symbol id="icon-icon-facebook" viewBox="0 0 24 24"><path fill="#fff" style="fill:var(--color1, #fff)" d="M15.997 3.985h2.191V.169C17.81.117 16.51 0 14.996 0c-3.159 0-5.323 1.987-5.323 5.639V9H6.187v4.266h3.486V24h4.274V13.267h3.345l.531-4.266h-3.877V6.062c.001-1.233.333-2.077 2.051-2.077z"/></symbol><symbol id="icon-icon-facebook1" viewBox="0 0 24 24"><path fill="#2196f3" style="fill:var(--color2, #2196f3)" d="M15.997 3.985h2.191V.169C17.81.117 16.51 0 14.996 0c-3.159 0-5.323 1.987-5.323 5.639V9H6.187v4.266h3.486V24h4.274V13.267h3.345l.531-4.266h-3.877V6.062c.001-1.233.333-2.077 2.051-2.077z"/></symbol><symbol id="icon-icon-facebook2" viewBox="0 0 24 24"><path fill="#afb1b8" style="fill:var(--color4, #afb1b8)" d="M15.997 3.985h2.191V.169C17.81.117 16.51 0 14.996 0c-3.159 0-5.323 1.987-5.323 5.639V9H6.187v4.266h3.486V24h4.274V13.267h3.345l.531-4.266h-3.877V6.062c.001-1.233.333-2.077 2.051-2.077z"/></symbol><symbol id="icon-icon-instagram" viewBox="0 0 24 24"><path fill="#fff" style="fill:var(--color1, #fff)" d="M23.977 7.056c-.056-1.275-.263-2.152-.558-2.911a5.864 5.864 0 0 0-1.388-2.128A5.9 5.9 0 0 0 19.907.634c-.764-.296-1.636-.502-2.912-.558C15.71.015 15.302.001 12.044.001S8.378.015 7.098.072C5.823.128 4.946.335 4.187.63a5.855 5.855 0 0 0-2.129 1.388A5.9 5.9 0 0 0 .675 4.142C.379 4.906.173 5.779.117 7.053.056 8.338.042 8.746.042 12.004s.014 3.666.071 4.946c.056 1.275.263 2.152.558 2.912a5.944 5.944 0 0 0 1.387 2.129 5.9 5.9 0 0 0 2.124 1.383c.764.296 1.636.502 2.911.558 1.279.056 1.688.07 4.946.07s3.666-.014 4.946-.071c1.275-.056 2.152-.262 2.912-.558a6.142 6.142 0 0 0 3.512-3.511c.296-.764.502-1.637.558-2.912.056-1.28.07-1.688.07-4.946s-.005-3.666-.061-4.946zm-2.162 9.799c-.052 1.172-.248 1.805-.413 2.227a3.982 3.982 0 0 1-2.278 2.279c-.422.164-1.06.361-2.227.413-1.266.056-1.645.071-4.848.071s-3.586-.014-4.848-.071c-1.172-.052-1.805-.248-2.227-.413a3.684 3.684 0 0 1-1.378-.895 3.73 3.73 0 0 1-.896-1.379c-.164-.422-.361-1.06-.412-2.227-.056-1.266-.071-1.645-.071-4.848s.014-3.587.071-4.848c.052-1.172.248-1.805.412-2.227.192-.521.497-.994.9-1.378a3.735 3.735 0 0 1 1.378-.896c.422-.164 1.06-.361 2.227-.412 1.266-.056 1.646-.071 4.848-.071 3.207 0 3.586.014 4.848.071 1.172.052 1.805.248 2.227.412.52.192.994.497 1.379.896.398.389.703.858.895 1.378.164.422.361 1.06.413 2.227.056 1.266.07 1.646.07 4.848s-.014 3.578-.07 4.843z"/><path fill="#fff" style="fill:var(--color1, #fff)" d="M12.044 5.837a6.166 6.166 0 0 0 0 12.33 6.166 6.166 0 0 0 0-12.33zm0 10.164a4 4 0 1 1 .002-8 4 4 0 0 1-.002 8zM19.893 5.594a1.439 1.439 0 1 1-2.877 0 1.439 1.439 0 0 1 2.877 0z"/></symbol><symbol id="icon-icon-instagram1" viewBox="0 0 24 24"><path fill="#2196f3" style="fill:var(--color2, #2196f3)" d="M23.977 7.056c-.056-1.275-.263-2.152-.558-2.911a5.864 5.864 0 0 0-1.388-2.128A5.9 5.9 0 0 0 19.907.634c-.764-.296-1.636-.502-2.912-.558C15.71.015 15.302.001 12.044.001S8.378.015 7.098.072C5.823.128 4.946.335 4.187.63a5.855 5.855 0 0 0-2.129 1.388A5.9 5.9 0 0 0 .675 4.142C.379 4.906.173 5.779.117 7.053.056 8.338.042 8.746.042 12.004s.014 3.666.071 4.946c.056 1.275.263 2.152.558 2.912a5.944 5.944 0 0 0 1.387 2.129 5.9 5.9 0 0 0 2.124 1.383c.764.296 1.636.502 2.911.558 1.279.056 1.688.07 4.946.07s3.666-.014 4.946-.071c1.275-.056 2.152-.262 2.912-.558a6.142 6.142 0 0 0 3.512-3.511c.296-.764.502-1.637.558-2.912.056-1.28.07-1.688.07-4.946s-.005-3.666-.061-4.946zm-2.162 9.799c-.052 1.172-.248 1.805-.413 2.227a3.982 3.982 0 0 1-2.278 2.279c-.422.164-1.06.361-2.227.413-1.266.056-1.645.071-4.848.071s-3.586-.014-4.848-.071c-1.172-.052-1.805-.248-2.227-.413a3.684 3.684 0 0 1-1.378-.895 3.73 3.73 0 0 1-.896-1.379c-.164-.422-.361-1.06-.412-2.227-.056-1.266-.071-1.645-.071-4.848s.014-3.587.071-4.848c.052-1.172.248-1.805.412-2.227.192-.521.497-.994.9-1.378a3.735 3.735 0 0 1 1.378-.896c.422-.164 1.06-.361 2.227-.412 1.266-.056 1.646-.071 4.848-.071 3.207 0 3.586.014 4.848.071 1.172.052 1.805.248 2.227.412.52.192.994.497 1.379.896.398.389.703.858.895 1.378.164.422.361 1.06.413 2.227.056 1.266.07 1.646.07 4.848s-.014 3.578-.07 4.843z"/><path fill="#2196f3" style="fill:var(--color2, #2196f3)" d="M12.044 5.837a6.166 6.166 0 0 0 0 12.33 6.166 6.166 0 0 0 0-12.33zm0 10.164a4 4 0 1 1 .002-8 4 4 0 0 1-.002 8zM19.893 5.594a1.439 1.439 0 1 1-2.877 0 1.439 1.439 0 0 1 2.877 0z"/></symbol><symbol id="icon-icon-instagram2" viewBox="0 0 24 24"><path fill="#afb1b8" style="fill:var(--color4, #afb1b8)" d="M23.977 7.056c-.056-1.275-.263-2.152-.558-2.911a5.864 5.864 0 0 0-1.388-2.128A5.9 5.9 0 0 0 19.907.634c-.764-.296-1.636-.502-2.912-.558C15.71.015 15.302.001 12.044.001S8.378.015 7.098.072C5.823.128 4.946.335 4.187.63a5.855 5.855 0 0 0-2.129 1.388A5.9 5.9 0 0 0 .675 4.142C.379 4.906.173 5.779.117 7.053.056 8.338.042 8.746.042 12.004s.014 3.666.071 4.946c.056 1.275.263 2.152.558 2.912a5.944 5.944 0 0 0 1.387 2.129 5.9 5.9 0 0 0 2.124 1.383c.764.296 1.636.502 2.911.558 1.279.056 1.688.07 4.946.07s3.666-.014 4.946-.071c1.275-.056 2.152-.262 2.912-.558a6.142 6.142 0 0 0 3.512-3.511c.296-.764.502-1.637.558-2.912.056-1.28.07-1.688.07-4.946s-.005-3.666-.061-4.946zm-2.162 9.799c-.052 1.172-.248 1.805-.413 2.227a3.982 3.982 0 0 1-2.278 2.279c-.422.164-1.06.361-2.227.413-1.266.056-1.645.071-4.848.071s-3.586-.014-4.848-.071c-1.172-.052-1.805-.248-2.227-.413a3.684 3.684 0 0 1-1.378-.895 3.73 3.73 0 0 1-.896-1.379c-.164-.422-.361-1.06-.412-2.227-.056-1.266-.071-1.645-.071-4.848s.014-3.587.071-4.848c.052-1.172.248-1.805.412-2.227.192-.521.497-.994.9-1.378a3.735 3.735 0 0 1 1.378-.896c.422-.164 1.06-.361 2.227-.412 1.266-.056 1.646-.071 4.848-.071 3.207 0 3.586.014 4.848.071 1.172.052 1.805.248 2.227.412.52.192.994.497 1.379.896.398.389.703.858.895 1.378.164.422.361 1.06.413 2.227.056 1.266.07 1.646.07 4.848s-.014 3.578-.07 4.843z"/><path fill="#afb1b8" style="fill:var(--color4, #afb1b8)" d="M12.044 5.837a6.166 6.166 0 0 0 0 12.33 6.166 6.166 0 0 0 0-12.33zm0 10.164a4 4 0 1 1 .002-8 4 4 0 0 1-.002 8zM19.893 5.594a1.439 1.439 0 1 1-2.877 0 1.439 1.439 0 0 1 2.877 0z"/></symbol><symbol id="icon-icon-linkedin" viewBox="0 0 24 24"><path fill="#fff" style="fill:var(--color1, #fff)" d="M23.994 24v-.001H24v-8.802c0-4.306-.927-7.623-5.961-7.623-2.42 0-4.044 1.328-4.707 2.587h-.07V7.976H8.489v16.023h4.97v-7.934c0-2.089.396-4.109 2.983-4.109 2.549 0 2.587 2.384 2.587 4.243V24h4.965zM.396 7.977h4.976V24H.396V7.977zM2.882 0C1.291 0 0 1.291 0 2.882s1.291 2.909 2.882 2.909c1.591 0 2.882-1.318 2.882-2.909S4.472 0 2.882 0z"/></symbol><symbol id="icon-icon-linkedin1" viewBox="0 0 24 24"><path fill="#2196f3" style="fill:var(--color2, #2196f3)" d="M23.994 24v-.001H24v-8.802c0-4.306-.927-7.623-5.961-7.623-2.42 0-4.044 1.328-4.707 2.587h-.07V7.976H8.489v16.023h4.97v-7.934c0-2.089.396-4.109 2.983-4.109 2.549 0 2.587 2.384 2.587 4.243V24h4.965zM.396 7.977h4.976V24H.396V7.977zM2.882 0C1.291 0 0 1.291 0 2.882s1.291 2.909 2.882 2.909c1.591 0 2.882-1.318 2.882-2.909S4.472 0 2.882 0z"/></symbol><symbol id="icon-icon-linkedin2" viewBox="0 0 24 24"><path fill="#afb1b8" style="fill:var(--color4, #afb1b8)" d="M23.994 24v-.001H24v-8.802c0-4.306-.927-7.623-5.961-7.623-2.42 0-4.044 1.328-4.707 2.587h-.07V7.976H8.489v16.023h4.97v-7.934c0-2.089.396-4.109 2.983-4.109 2.549 0 2.587 2.384 2.587 4.243V24h4.965zM.396 7.977h4.976V24H.396V7.977zM2.882 0C1.291 0 0 1.291 0 2.882s1.291 2.909 2.882 2.909c1.591 0 2.882-1.318 2.882-2.909S4.472 0 2.882 0z"/></symbol><symbol id="icon-icon-twitter" viewBox="0 0 24 24"><path fill="#fff" style="fill:var(--color1, #fff)" d="M24 4.559c-.893.391-1.843.651-2.835.777a4.893 4.893 0 0 0 2.165-2.72 9.845 9.845 0 0 1-3.12 1.191 4.919 4.919 0 0 0-8.511 3.364c0 .39.033.765.114 1.122-4.09-.2-7.71-2.16-10.142-5.147a4.962 4.962 0 0 0-.674 2.487c0 1.704.877 3.215 2.186 4.089A4.863 4.863 0 0 1 .96 9.116v.054a4.941 4.941 0 0 0 3.942 4.834c-.401.11-.837.162-1.29.162-.315 0-.633-.018-.931-.084.637 1.948 2.447 3.381 4.597 3.428a9.89 9.89 0 0 1-6.101 2.098c-.403 0-.79-.018-1.177-.067a13.856 13.856 0 0 0 7.548 2.208c9.054 0 14.004-7.5 14.004-14.001 0-.217-.008-.428-.018-.636A9.822 9.822 0 0 0 24 4.558z"/></symbol><symbol id="icon-icon-twitter1" viewBox="0 0 24 24"><path fill="#2196f3" style="fill:var(--color2, #2196f3)" d="M24 4.559c-.893.391-1.843.651-2.835.777a4.893 4.893 0 0 0 2.165-2.72 9.845 9.845 0 0 1-3.12 1.191 4.919 4.919 0 0 0-8.511 3.364c0 .39.033.765.114 1.122-4.09-.2-7.71-2.16-10.142-5.147a4.962 4.962 0 0 0-.674 2.487c0 1.704.877 3.215 2.186 4.089A4.863 4.863 0 0 1 .96 9.116v.054a4.941 4.941 0 0 0 3.942 4.834c-.401.11-.837.162-1.29.162-.315 0-.633-.018-.931-.084.637 1.948 2.447 3.381 4.597 3.428a9.89 9.89 0 0 1-6.101 2.098c-.403 0-.79-.018-1.177-.067a13.856 13.856 0 0 0 7.548 2.208c9.054 0 14.004-7.5 14.004-14.001 0-.217-.008-.428-.018-.636A9.822 9.822 0 0 0 24 4.558z"/></symbol><symbol id="icon-icon-twitter2" viewBox="0 0 24 24"><path fill="#afb1b8" style="fill:var(--color4, #afb1b8)" d="M24 4.559c-.893.391-1.843.651-2.835.777a4.893 4.893 0 0 0 2.165-2.72 9.845 9.845 0 0 1-3.12 1.191 4.919 4.919 0 0 0-8.511 3.364c0 .39.033.765.114 1.122-4.09-.2-7.71-2.16-10.142-5.147a4.962 4.962 0 0 0-.674 2.487c0 1.704.877 3.215 2.186 4.089A4.863 4.863 0 0 1 .96 9.116v.054a4.941 4.941 0 0 0 3.942 4.834c-.401.11-.837.162-1.29.162-.315 0-.633-.018-.931-.084.637 1.948 2.447 3.381 4.597 3.428a9.89 9.89 0 0 1-6.101 2.098c-.403 0-.79-.018-1.177-.067a13.856 13.856 0 0 0 7.548 2.208c9.054 0 14.004-7.5 14.004-14.001 0-.217-.008-.428-.018-.636A9.822 9.822 0 0 0 24 4.558z"/></symbol><symbol id="icon-Client1b_logo" viewBox="0 0 21 24"><path fill="#2196f3" style="fill:var(--color2, #2196f3)" d="m3.064 0 3.578 3.388L0 3.384V19.82h17.362v-6.284l3.574 3.384V.001H3.064zm14.141 13.138L7.059 3.533h10.146v9.605zm-3.151 4.278H2.747V6.362h.799v10.306h10.508v.748zm-8.637 4.592-.418.86-.418-.86h-.35l.61 1.147v.668h.317v-.668l.608-1.147h-.349zm.525 1.815.147-.423h.703l.148.423h.329l-.687-1.815h-.283l-.686 1.815h.328zm.499-1.43.263.753h-.526l.263-.753zm1.663.71a.478.478 0 0 0 .092.604c.107.096.252.142.431.142s.334-.049.464-.146l.102.121h.352l-.267-.315a.905.905 0 0 0 .157-.55h-.263a.722.722 0 0 1-.076.333l-.35-.414.123-.09c.087-.063.15-.126.188-.189s.057-.134.057-.209c0-.115-.042-.211-.127-.288s-.192-.117-.324-.117c-.146 0-.263.042-.349.125s-.13.195-.13.337c0 .058.014.118.041.181s.078.138.148.227c-.135.096-.225.18-.271.251zm.819.401a.462.462 0 0 1-.287.102c-.091 0-.163-.026-.217-.079s-.081-.121-.081-.204c0-.097.05-.184.15-.259l.039-.027.396.467zm-.325-.804c-.086-.106-.128-.193-.128-.263 0-.061.017-.111.052-.151s.082-.06.141-.06c.055 0 .1.017.136.051s.054.074.054.121c0 .071-.026.13-.077.176l-.039.031-.138.095zm2.954.986a.655.655 0 0 0 .214-.454h-.314c-.017.13-.056.222-.118.278s-.155.084-.279.084c-.135 0-.239-.052-.309-.155s-.105-.253-.105-.449v-.161c.002-.194.039-.34.112-.44s.18-.151.317-.151c.118 0 .207.029.268.087s.1.151.115.282h.314c-.02-.199-.091-.352-.213-.461s-.283-.163-.484-.163a.684.684 0 0 0-.655.408 1.059 1.059 0 0 0-.091.453v.17c.002.167.034.314.093.44s.145.224.254.293a.717.717 0 0 0 .383.102c.207 0 .373-.054.497-.162zm1.854-.254c.062-.135.092-.291.092-.469v-.101c-.001-.177-.032-.332-.095-.465s-.151-.236-.266-.307c-.114-.071-.245-.107-.393-.107s-.279.036-.394.108c-.114.071-.202.175-.266.31s-.093.292-.093.469v.102c.001.174.032.327.095.46s.152.236.267.308a.737.737 0 0 0 .394.107.693.693 0 0 0 .658-.416zm-.338-1.026c.076.107.115.261.115.463v.095c0 .204-.038.36-.113.466s-.182.16-.322.16c-.138 0-.246-.054-.324-.163s-.116-.263-.116-.463v-.105c.002-.195.041-.346.117-.453s.184-.161.32-.161c.14 0 .247.054.323.161z"/></symbol><symbol id="icon-Client1_logo" viewBox="0 0 21 24"><path fill="#afb1b8" style="fill:var(--color4, #afb1b8)" d="m3.064 0 3.578 3.388L0 3.384V19.82h17.362v-6.284l3.574 3.384V.001H3.064zm14.141 13.138L7.059 3.533h10.146v9.605zm-3.151 4.278H2.747V6.362h.799v10.306h10.508v.748zm-8.637 4.592-.418.86-.418-.86h-.35l.61 1.147v.668h.317v-.668l.608-1.147h-.349zm.525 1.815.147-.423h.703l.148.423h.329l-.687-1.815h-.283l-.686 1.815h.328zm.499-1.43.263.753h-.526l.263-.753zm1.663.71a.478.478 0 0 0 .092.604c.107.096.252.142.431.142s.334-.049.464-.146l.102.121h.352l-.267-.315a.905.905 0 0 0 .157-.55h-.263a.722.722 0 0 1-.076.333l-.35-.414.123-.09c.087-.063.15-.126.188-.189s.057-.134.057-.209c0-.115-.042-.211-.127-.288s-.192-.117-.324-.117c-.146 0-.263.042-.349.125s-.13.195-.13.337c0 .058.014.118.041.181s.078.138.148.227c-.135.096-.225.18-.271.251zm.819.401a.462.462 0 0 1-.287.102c-.091 0-.163-.026-.217-.079s-.081-.121-.081-.204c0-.097.05-.184.15-.259l.039-.027.396.467zm-.325-.804c-.086-.106-.128-.193-.128-.263 0-.061.017-.111.052-.151s.082-.06.141-.06c.055 0 .1.017.136.051s.054.074.054.121c0 .071-.026.13-.077.176l-.039.031-.138.095zm2.954.986a.655.655 0 0 0 .214-.454h-.314c-.017.13-.056.222-.118.278s-.155.084-.279.084c-.135 0-.239-.052-.309-.155s-.105-.253-.105-.449v-.161c.002-.194.039-.34.112-.44s.18-.151.317-.151c.118 0 .207.029.268.087s.1.151.115.282h.314c-.02-.199-.091-.352-.213-.461s-.283-.163-.484-.163a.684.684 0 0 0-.655.408 1.059 1.059 0 0 0-.091.453v.17c.002.167.034.314.093.44s.145.224.254.293a.717.717 0 0 0 .383.102c.207 0 .373-.054.497-.162zm1.854-.254c.062-.135.092-.291.092-.469v-.101c-.001-.177-.032-.332-.095-.465s-.151-.236-.266-.307c-.114-.071-.245-.107-.393-.107s-.279.036-.394.108c-.114.071-.202.175-.266.31s-.093.292-.093.469v.102c.001.174.032.327.095.46s.152.236.267.308a.737.737 0 0 0 .394.107.693.693 0 0 0 .658-.416zm-.338-1.026c.076.107.115.261.115.463v.095c0 .204-.038.36-.113.466s-.182.16-.322.16c-.138 0-.246-.054-.324-.163s-.116-.263-.116-.463v-.105c.002-.195.041-.346.117-.453s.184-.161.32-.161c.14 0 .247.054.323.161z"/></symbol><symbol id="icon-Client2b_logo" viewBox="0 0 18 24"><path fill="#2196f3" style="fill:var(--color2, #2196f3)" d="M7.899 1.354h-.063c-.097-.006-.194-.008-.291-.011h-.21a11.559 11.559 0 0 0-.598.014c-1.682.095-3.33.516-4.854 1.238l-.2.096V12.91l.467-.158c.41-.141.846-.268 1.298-.385a15.81 15.81 0 0 1 3.736-.496v1.343c-.167.001-.329.006-.492.014h-.039a14.95 14.95 0 0 0-2.875.441 14.624 14.624 0 0 0-3.424 1.334V1.897A13.7 13.7 0 0 1 3.947.436a13.768 13.768 0 0 1 3.386-.437h.197c.236.006.466.016.682.033.569.04 1.134.13 1.687.269v1.322a10.376 10.376 0 0 0-1.669-.249 3.915 3.915 0 0 0-.334-.019zm2.325 1.351c.293.022.597.033.904.033a14.5 14.5 0 0 0 3.56-.457A14.64 14.64 0 0 0 18.111.945v12.873a13.721 13.721 0 0 1-3.594 1.461 13.772 13.772 0 0 1-3.386.435 10.351 10.351 0 0 1-2.569-.303V2.455c.198.046.403.088.611.123.341.058.701.1 1.051.126zm6.552.1-.467.157c-.43.144-.863.273-1.298.388a15.823 15.823 0 0 1-3.88.498c-.305 0-.585-.008-.856-.026l-.372-.025v10.512l.32.028c.297.026.602.039.911.039a12.411 12.411 0 0 0 3.056-.395 12.835 12.835 0 0 0 2.388-.858l.2-.096V2.804zM1.263 19.483a.692.692 0 0 0-.52-.211.787.787 0 0 0-.3.056.672.672 0 0 0-.385.389.758.758 0 0 0-.054.29v1.751a.821.821 0 0 0 .069.359c.041.09.101.17.175.235a.61.61 0 0 0 .241.124.963.963 0 0 0 .262.036.728.728 0 0 0 .67-.458.72.72 0 0 0 .056-.279v-.196h-.458v.156a.417.417 0 0 1-.027.156.29.29 0 0 1-.067.099.267.267 0 0 1-.096.05.312.312 0 0 1-.096.016c-.041.005-.082-.001-.12-.018s-.07-.043-.095-.076a.42.42 0 0 1-.061-.235v-1.633a.553.553 0 0 1 .056-.262.235.235 0 0 1 .224-.105c.039-.001.079.007.114.024s.066.043.09.075c.051.067.078.15.076.235v.151h.453v-.178a.818.818 0 0 0-.209-.552zM3.983 19.463a.794.794 0 0 0-1.036 0 .716.716 0 0 0-.177.245.824.824 0 0 0-.067.339v1.679a.813.813 0 0 0 .067.344c.041.09.102.17.177.235.07.065.152.115.242.148a.798.798 0 0 0 .546 0c.091-.033.175-.083.248-.148s.132-.145.173-.235a.813.813 0 0 0 .067-.344v-1.679a.805.805 0 0 0-.067-.339.743.743 0 0 0-.173-.245zm-.214 2.264a.296.296 0 0 1-.091.243.333.333 0 0 1-.43 0 .307.307 0 0 1-.091-.243v-1.679a.296.296 0 0 1 .091-.243.333.333 0 0 1 .43 0 .307.307 0 0 1 .091.243v1.679zM7.554 22.477v-3.179h-.44l-.578 1.683h-.008l-.583-1.683h-.436v3.179h.454v-1.934h.008l.445 1.367h.227l.448-1.367h.008v1.934h.454zM10.135 19.52a.639.639 0 0 0-.257-.174.995.995 0 0 0-.329-.049h-.675v3.179h.453v-1.242h.233a.83.83 0 0 0 .409-.087.66.66 0 0 0 .249-.243.77.77 0 0 0 .104-.277c.018-.12.026-.241.025-.361a1.822 1.822 0 0 0-.044-.454.673.673 0 0 0-.167-.292zm-.234.97a.4.4 0 0 1-.042.166.252.252 0 0 1-.117.111.462.462 0 0 1-.214.04h-.207v-1.081h.233c.07-.003.14.01.204.04a.256.256 0 0 1 .106.117.47.47 0 0 1 .04.177v.211c0 .074.005.15 0 .218h-.005zM12.28 19.297h-.371l-.701 3.179h.453l.133-.683h.618l.133.683h.453l-.718-3.179zm-.418 2.064.223-1.153h.008l.222 1.153h-.453zM15.208 21.213H15.2l-.684-1.915h-.436v3.179h.453v-1.912h.009l.692 1.912h.426v-3.179h-.453v1.915zM17.976 19.297l-.364 1.264h-.009l-.364-1.264h-.48l.622 1.836v1.344h.453v-1.344l.622-1.836h-.48zM0 23.374h.218v.613h.148v-.613h.217v-.126h-.584v.126zM1.835 23.249l-.286.738h.158l.061-.168h.294l.063.168h.161l-.293-.738h-.158zm-.023.446.1-.273.1.273h-.201zM3.65 23.715h.17v.095a.28.28 0 0 1-.175.062.185.185 0 0 1-.157-.07.313.313 0 0 1-.055-.192c0-.164.071-.246.213-.246.037-.004.074.006.105.028s.053.053.062.09l.146-.028c-.032-.144-.135-.217-.313-.217a.367.367 0 0 0-.258.095.36.36 0 0 0-.106.284.4.4 0 0 0 .095.277.357.357 0 0 0 .28.108.447.447 0 0 0 .313-.117v-.291h-.32v.124zM5.503 23.249h-.149v.738h.517v-.126h-.368v-.613zM7.07 23.249h-.149v.738h.149v-.738zM8.601 23.742l-.302-.493h-.145v.738h.139v-.482l.297.482h.148v-.738h-.137v.493zM9.986 23.662h.368v-.126h-.368v-.162h.396v-.126h-.545v.738h.56v-.126h-.411v-.2zM13.344 23.54h-.291v-.291h-.148v.738h.148v-.323h.291v.323h.148v-.738h-.148v.291zM14.737 23.662h.369v-.126h-.369v-.162h.397v-.126h-.545v.738h.559v-.126h-.411v-.2zM16.626 23.662c.128-.02.194-.088.194-.205.004-.031-.001-.063-.014-.092s-.033-.054-.059-.072a.404.404 0 0 0-.216-.043h-.313v.738h.148v-.309h.029a.206.206 0 0 1 .092.016c.022.013.04.032.053.054l.161.235h.177l-.09-.144a.522.522 0 0 0-.163-.177zm-.149-.102h-.11v-.185h.117a.387.387 0 0 1 .151.018.098.098 0 0 1 .022.118.086.086 0 0 1-.028.032.429.429 0 0 1-.151.018zM18.051 23.662h.368v-.126h-.368v-.162h.397v-.126h-.546v.738h.56v-.126h-.411v-.2z"/></symbol><symbol id="icon-Client2_logo" viewBox="0 0 18 24"><path fill="#afb1b8" style="fill:var(--color4, #afb1b8)" d="M7.899 1.354h-.063c-.097-.006-.194-.008-.291-.011h-.21a11.559 11.559 0 0 0-.598.014c-1.682.095-3.33.516-4.854 1.238l-.2.096V12.91l.467-.158c.41-.141.846-.268 1.298-.385a15.81 15.81 0 0 1 3.736-.496v1.343c-.167.001-.329.006-.492.014h-.039a14.95 14.95 0 0 0-2.875.441 14.624 14.624 0 0 0-3.424 1.334V1.897A13.7 13.7 0 0 1 3.947.436a13.768 13.768 0 0 1 3.386-.437h.197c.236.006.466.016.682.033.569.04 1.134.13 1.687.269v1.322a10.376 10.376 0 0 0-1.669-.249 3.915 3.915 0 0 0-.334-.019zm2.325 1.351c.293.022.597.033.904.033a14.5 14.5 0 0 0 3.56-.457A14.64 14.64 0 0 0 18.111.945v12.873a13.721 13.721 0 0 1-3.594 1.461 13.772 13.772 0 0 1-3.386.435 10.351 10.351 0 0 1-2.569-.303V2.455c.198.046.403.088.611.123.341.058.701.1 1.051.126zm6.552.1-.467.157c-.43.144-.863.273-1.298.388a15.823 15.823 0 0 1-3.88.498c-.305 0-.585-.008-.856-.026l-.372-.025v10.512l.32.028c.297.026.602.039.911.039a12.411 12.411 0 0 0 3.056-.395 12.835 12.835 0 0 0 2.388-.858l.2-.096V2.804zM1.263 19.483a.692.692 0 0 0-.52-.211.787.787 0 0 0-.3.056.672.672 0 0 0-.385.389.758.758 0 0 0-.054.29v1.751a.821.821 0 0 0 .069.359c.041.09.101.17.175.235a.61.61 0 0 0 .241.124.963.963 0 0 0 .262.036.728.728 0 0 0 .67-.458.72.72 0 0 0 .056-.279v-.196h-.458v.156a.417.417 0 0 1-.027.156.29.29 0 0 1-.067.099.267.267 0 0 1-.096.05.312.312 0 0 1-.096.016c-.041.005-.082-.001-.12-.018s-.07-.043-.095-.076a.42.42 0 0 1-.061-.235v-1.633a.553.553 0 0 1 .056-.262.235.235 0 0 1 .224-.105c.039-.001.079.007.114.024s.066.043.09.075c.051.067.078.15.076.235v.151h.453v-.178a.818.818 0 0 0-.209-.552zM3.983 19.463a.794.794 0 0 0-1.036 0 .716.716 0 0 0-.177.245.824.824 0 0 0-.067.339v1.679a.813.813 0 0 0 .067.344c.041.09.102.17.177.235.07.065.152.115.242.148a.798.798 0 0 0 .546 0c.091-.033.175-.083.248-.148s.132-.145.173-.235a.813.813 0 0 0 .067-.344v-1.679a.805.805 0 0 0-.067-.339.743.743 0 0 0-.173-.245zm-.214 2.264a.296.296 0 0 1-.091.243.333.333 0 0 1-.43 0 .307.307 0 0 1-.091-.243v-1.679a.296.296 0 0 1 .091-.243.333.333 0 0 1 .43 0 .307.307 0 0 1 .091.243v1.679zM7.554 22.477v-3.179h-.44l-.578 1.683h-.008l-.583-1.683h-.436v3.179h.454v-1.934h.008l.445 1.367h.227l.448-1.367h.008v1.934h.454zM10.135 19.52a.639.639 0 0 0-.257-.174.995.995 0 0 0-.329-.049h-.675v3.179h.453v-1.242h.233a.83.83 0 0 0 .409-.087.66.66 0 0 0 .249-.243.77.77 0 0 0 .104-.277c.018-.12.026-.241.025-.361a1.822 1.822 0 0 0-.044-.454.673.673 0 0 0-.167-.292zm-.234.97a.4.4 0 0 1-.042.166.252.252 0 0 1-.117.111.462.462 0 0 1-.214.04h-.207v-1.081h.233c.07-.003.14.01.204.04a.256.256 0 0 1 .106.117.47.47 0 0 1 .04.177v.211c0 .074.005.15 0 .218h-.005zM12.28 19.297h-.371l-.701 3.179h.453l.133-.683h.618l.133.683h.453l-.718-3.179zm-.418 2.064.223-1.153h.008l.222 1.153h-.453zM15.208 21.213H15.2l-.684-1.915h-.436v3.179h.453v-1.912h.009l.692 1.912h.426v-3.179h-.453v1.915zM17.976 19.297l-.364 1.264h-.009l-.364-1.264h-.48l.622 1.836v1.344h.453v-1.344l.622-1.836h-.48zM0 23.374h.218v.613h.148v-.613h.217v-.126h-.584v.126zM1.835 23.249l-.286.738h.158l.061-.168h.294l.063.168h.161l-.293-.738h-.158zm-.023.446.1-.273.1.273h-.201zM3.65 23.715h.17v.095a.28.28 0 0 1-.175.062.185.185 0 0 1-.157-.07.313.313 0 0 1-.055-.192c0-.164.071-.246.213-.246.037-.004.074.006.105.028s.053.053.062.09l.146-.028c-.032-.144-.135-.217-.313-.217a.367.367 0 0 0-.258.095.36.36 0 0 0-.106.284.4.4 0 0 0 .095.277.357.357 0 0 0 .28.108.447.447 0 0 0 .313-.117v-.291h-.32v.124zM5.503 23.249h-.149v.738h.517v-.126h-.368v-.613zM7.07 23.249h-.149v.738h.149v-.738zM8.601 23.742l-.302-.493h-.145v.738h.139v-.482l.297.482h.148v-.738h-.137v.493zM9.986 23.662h.368v-.126h-.368v-.162h.396v-.126h-.545v.738h.56v-.126h-.411v-.2zM13.344 23.54h-.291v-.291h-.148v.738h.148v-.323h.291v.323h.148v-.738h-.148v.291zM14.737 23.662h.369v-.126h-.369v-.162h.397v-.126h-.545v.738h.559v-.126h-.411v-.2zM16.626 23.662c.128-.02.194-.088.194-.205.004-.031-.001-.063-.014-.092s-.033-.054-.059-.072a.404.404 0 0 0-.216-.043h-.313v.738h.148v-.309h.029a.206.206 0 0 1 .092.016c.022.013.04.032.053.054l.161.235h.177l-.09-.144a.522.522 0 0 0-.163-.177zm-.149-.102h-.11v-.185h.117a.387.387 0 0 1 .151.018.098.098 0 0 1 .022.118.086.086 0 0 1-.028.032.429.429 0 0 1-.151.018zM18.051 23.662h.368v-.126h-.368v-.162h.397v-.126h-.546v.738h.56v-.126h-.411v-.2z"/></symbol><symbol id="icon-Client3b_logo" viewBox="0 0 26 24"><path fill="#2196f3" style="fill:var(--color2, #2196f3)" d="M4.232 23.487c.009 0 .018.002.026.005s.016.008.022.014l.125.119a1.02 1.02 0 0 1-.351.226 1.368 1.368 0 0 1-.497.081 1.315 1.315 0 0 1-.467-.076 1.015 1.015 0 0 1-.352-.214.953.953 0 0 1-.227-.33 1.108 1.108 0 0 1-.079-.424.989.989 0 0 1 .327-.755c.106-.093.234-.167.374-.215.153-.052.317-.077.481-.076.153-.003.305.02.447.069.123.047.237.111.335.191l-.104.127a.096.096 0 0 1-.026.023.067.067 0 0 1-.042.009.1.1 0 0 1-.045-.014l-.056-.034-.078-.043a1.028 1.028 0 0 0-.104-.042 1.13 1.13 0 0 0-.327-.048 1.01 1.01 0 0 0-.346.057.722.722 0 0 0-.447.415.847.847 0 0 0-.064.336.872.872 0 0 0 .064.341.71.71 0 0 0 .432.41.918.918 0 0 0 .321.054c.064.001.127-.003.19-.011a.748.748 0 0 0 .411-.175.102.102 0 0 1 .059-.022zM7.831 22.888c.002.144-.027.286-.084.421-.051.122-.131.234-.235.327s-.229.167-.368.215a1.518 1.518 0 0 1-.947 0 1.09 1.09 0 0 1-.366-.215.963.963 0 0 1-.237-.33 1.1 1.1 0 0 1 0-.843.994.994 0 0 1 .237-.332 1.09 1.09 0 0 1 .366-.207 1.49 1.49 0 0 1 .947 0c.138.049.264.122.368.215a.952.952 0 0 1 .235.326c.058.136.086.279.084.424zm-.327 0a.912.912 0 0 0-.059-.338.698.698 0 0 0-.43-.413 1.097 1.097 0 0 0-.689 0c-.1.036-.19.09-.263.16a.68.68 0 0 0-.168.253.997.997 0 0 0 0 .677.68.68 0 0 0 .168.253.737.737 0 0 0 .263.158c.222.072.467.072.689 0 .1-.035.19-.089.263-.158a.72.72 0 0 0 .167-.253.877.877 0 0 0 .059-.338zM10.286 23.243l.033.076a1.34 1.34 0 0 1 .077-.15l.796-1.257c.016-.022.03-.035.045-.039a.203.203 0 0 1 .065-.007h.235v2.045h-.279v-1.568a.41.41 0 0 1 0-.07l-.801 1.275c-.01.019-.026.035-.047.047s-.044.017-.068.017h-.045c-.024 0-.048-.006-.069-.017s-.037-.028-.047-.047l-.824-1.283v1.642h-.27v-2.041h.235a.203.203 0 0 1 .065.007.089.089 0 0 1 .044.039l.813 1.259c.016.023.03.048.041.073zM13.282 23.141v.766h-.312v-2.043h.695c.131-.002.262.013.388.045a.774.774 0 0 1 .274.127.527.527 0 0 1 .156.2.607.607 0 0 1 .053.261.581.581 0 0 1-.226.465.79.79 0 0 1-.276.135c-.121.034-.248.05-.375.047l-.377-.005zm0-.219h.377a.886.886 0 0 0 .241-.031.529.529 0 0 0 .174-.088.384.384 0 0 0 .143-.307c.004-.057-.007-.114-.031-.166s-.061-.1-.109-.139a.67.67 0 0 0-.419-.11h-.377v.842zM17.47 23.91h-.246a.118.118 0 0 1-.069-.019.13.13 0 0 1-.041-.047l-.212-.494h-1.064l-.22.494a.115.115 0 0 1-.109.066h-.246l.935-2.045h.324l.947 2.045zm-1.542-.759h.879l-.371-.833a1.383 1.383 0 0 1-.07-.192l-.036.107a1.139 1.139 0 0 1-.034.087l-.368.831zM18.816 21.874a.123.123 0 0 1 .047.037l1.363 1.542v-1.588h.279v2.045h-.156a.155.155 0 0 1-.064-.012.189.189 0 0 1-.05-.038l-1.362-1.541a.817.817 0 0 1 0 .07v1.52h-.279v-2.045h.165c.019 0 .038.003.056.009zM22.802 23.096v.812h-.312v-.812l-.862-1.232h.279a.111.111 0 0 1 .067.018.183.183 0 0 1 .042.046l.539.795a1.012 1.012 0 0 1 .095.182l.04-.088a.717.717 0 0 1 .053-.093l.531-.8a.186.186 0 0 1 .041-.043.103.103 0 0 1 .067-.02h.282l-.863 1.237zM10.132 18.432c.136.015.273.027.411.038 2.102-.817 3.881-2.154 5.113-3.845s1.864-3.659 1.816-5.659l-2.317-2.013c.471 2.13.251 4.332-.636 6.359s-2.406 3.8-4.387 5.12z"/><path fill="#2196f3" style="fill:var(--color2, #2196f3)" d="m9.305 18.338.062.011c2.117-1.315 3.73-3.152 4.632-5.273s1.051-4.428.428-6.623l-3.3-2.867c1.335 2.357 1.872 4.994 1.549 7.605s-1.492 5.09-3.372 7.146zM20.496 11.329c-.561 2.198-1.922 4.18-3.883 5.653-.573.432-1.19.818-1.845 1.151 1.596-.408 3.063-1.128 4.289-2.107s2.175-2.188 2.777-3.535l-1.338-1.161z"/><path fill="#2196f3" style="fill:var(--color2, #2196f3)" d="M19.971 11.006 18.066 9.35c-.036 1.887-.654 3.732-1.789 5.342s-2.745 2.926-4.663 3.813h.009c.427 0 .855-.022 1.279-.066 1.793-.636 3.377-1.647 4.61-2.944s2.078-2.839 2.459-4.489zM9.581 2.378 7.308.4c-2.032.682-3.78 1.882-5.014 3.441S.396 7.248.389 9.14c.008 2.091.818 4.121 2.302 5.767s3.559 2.816 5.894 3.322c2.085-2.207 3.305-4.934 3.484-7.785s-.693-5.677-2.489-8.068zM25.223 10.701c-.008-2.481-1.146-4.859-3.166-6.614s-4.756-2.744-7.612-2.751c-1.32-.001-2.628.21-3.859.624l13.917 12.092a8.19 8.19 0 0 0 .72-3.352z"/></symbol><symbol id="icon-Client3_logo" viewBox="0 0 26 24"><path fill="#afb1b8" style="fill:var(--color4, #afb1b8)" d="M4.232 23.487c.009 0 .018.002.026.005s.016.008.022.014l.125.119a1.02 1.02 0 0 1-.351.226 1.368 1.368 0 0 1-.497.081 1.315 1.315 0 0 1-.467-.076 1.015 1.015 0 0 1-.352-.214.953.953 0 0 1-.227-.33 1.108 1.108 0 0 1-.079-.424.989.989 0 0 1 .327-.755c.106-.093.234-.167.374-.215.153-.052.317-.077.481-.076.153-.003.305.02.447.069.123.047.237.111.335.191l-.104.127a.096.096 0 0 1-.026.023.067.067 0 0 1-.042.009.1.1 0 0 1-.045-.014l-.056-.034-.078-.043a1.028 1.028 0 0 0-.104-.042 1.13 1.13 0 0 0-.327-.048 1.01 1.01 0 0 0-.346.057.722.722 0 0 0-.447.415.847.847 0 0 0-.064.336.872.872 0 0 0 .064.341.71.71 0 0 0 .432.41.918.918 0 0 0 .321.054c.064.001.127-.003.19-.011a.748.748 0 0 0 .411-.175.102.102 0 0 1 .059-.022zM7.831 22.888c.002.144-.027.286-.084.421-.051.122-.131.234-.235.327s-.229.167-.368.215a1.518 1.518 0 0 1-.947 0 1.09 1.09 0 0 1-.366-.215.963.963 0 0 1-.237-.33 1.1 1.1 0 0 1 0-.843.994.994 0 0 1 .237-.332 1.09 1.09 0 0 1 .366-.207 1.49 1.49 0 0 1 .947 0c.138.049.264.122.368.215a.952.952 0 0 1 .235.326c.058.136.086.279.084.424zm-.327 0a.912.912 0 0 0-.059-.338.698.698 0 0 0-.43-.413 1.097 1.097 0 0 0-.689 0c-.1.036-.19.09-.263.16a.68.68 0 0 0-.168.253.997.997 0 0 0 0 .677.68.68 0 0 0 .168.253.737.737 0 0 0 .263.158c.222.072.467.072.689 0 .1-.035.19-.089.263-.158a.72.72 0 0 0 .167-.253.877.877 0 0 0 .059-.338zM10.286 23.243l.033.076a1.34 1.34 0 0 1 .077-.15l.796-1.257c.016-.022.03-.035.045-.039a.203.203 0 0 1 .065-.007h.235v2.045h-.279v-1.568a.41.41 0 0 1 0-.07l-.801 1.275c-.01.019-.026.035-.047.047s-.044.017-.068.017h-.045c-.024 0-.048-.006-.069-.017s-.037-.028-.047-.047l-.824-1.283v1.642h-.27v-2.041h.235a.203.203 0 0 1 .065.007.089.089 0 0 1 .044.039l.813 1.259c.016.023.03.048.041.073zM13.282 23.141v.766h-.312v-2.043h.695c.131-.002.262.013.388.045a.774.774 0 0 1 .274.127.527.527 0 0 1 .156.2.607.607 0 0 1 .053.261.581.581 0 0 1-.226.465.79.79 0 0 1-.276.135c-.121.034-.248.05-.375.047l-.377-.005zm0-.219h.377a.886.886 0 0 0 .241-.031.529.529 0 0 0 .174-.088.384.384 0 0 0 .143-.307c.004-.057-.007-.114-.031-.166s-.061-.1-.109-.139a.67.67 0 0 0-.419-.11h-.377v.842zM17.47 23.91h-.246a.118.118 0 0 1-.069-.019.13.13 0 0 1-.041-.047l-.212-.494h-1.064l-.22.494a.115.115 0 0 1-.109.066h-.246l.935-2.045h.324l.947 2.045zm-1.542-.759h.879l-.371-.833a1.383 1.383 0 0 1-.07-.192l-.036.107a1.139 1.139 0 0 1-.034.087l-.368.831zM18.816 21.874a.123.123 0 0 1 .047.037l1.363 1.542v-1.588h.279v2.045h-.156a.155.155 0 0 1-.064-.012.189.189 0 0 1-.05-.038l-1.362-1.541a.817.817 0 0 1 0 .07v1.52h-.279v-2.045h.165c.019 0 .038.003.056.009zM22.802 23.096v.812h-.312v-.812l-.862-1.232h.279a.111.111 0 0 1 .067.018.183.183 0 0 1 .042.046l.539.795a1.012 1.012 0 0 1 .095.182l.04-.088a.717.717 0 0 1 .053-.093l.531-.8a.186.186 0 0 1 .041-.043.103.103 0 0 1 .067-.02h.282l-.863 1.237zM10.132 18.432c.136.015.273.027.411.038 2.102-.817 3.881-2.154 5.113-3.845s1.864-3.659 1.816-5.659l-2.317-2.013c.471 2.13.251 4.332-.636 6.359s-2.406 3.8-4.387 5.12z"/><path fill="#afb1b8" style="fill:var(--color4, #afb1b8)" d="m9.305 18.338.062.011c2.117-1.315 3.73-3.152 4.632-5.273s1.051-4.428.428-6.623l-3.3-2.867c1.335 2.357 1.872 4.994 1.549 7.605s-1.492 5.09-3.372 7.146zM20.496 11.329c-.561 2.198-1.922 4.18-3.883 5.653-.573.432-1.19.818-1.845 1.151 1.596-.408 3.063-1.128 4.289-2.107s2.175-2.188 2.777-3.535l-1.338-1.161z"/><path fill="#afb1b8" style="fill:var(--color4, #afb1b8)" d="M19.971 11.006 18.066 9.35c-.036 1.887-.654 3.732-1.789 5.342s-2.745 2.926-4.663 3.813h.009c.427 0 .855-.022 1.279-.066 1.793-.636 3.377-1.647 4.61-2.944s2.078-2.839 2.459-4.489zM9.581 2.378 7.308.4c-2.032.682-3.78 1.882-5.014 3.441S.396 7.248.389 9.14c.008 2.091.818 4.121 2.302 5.767s3.559 2.816 5.894 3.322c2.085-2.207 3.305-4.934 3.484-7.785s-.693-5.677-2.489-8.068zM25.223 10.701c-.008-2.481-1.146-4.859-3.166-6.614s-4.756-2.744-7.612-2.751c-1.32-.001-2.628.21-3.859.624l13.917 12.092a8.19 8.19 0 0 0 .72-3.352z"/></symbol><symbol id="icon-Client4b_logo" viewBox="0 0 49 24"><path fill="#2196f3" style="fill:var(--color2, #2196f3)" d="M7.512 7.487H7.51c-1.37 0-2.481.987-2.481 2.205v.001c0 1.218 1.111 2.205 2.481 2.205h.002c1.37 0 2.481-.987 2.481-2.205v-.001c0-1.218-1.111-2.205-2.481-2.205zM25.826 6.782c-.004-1.691-.762-3.313-2.107-4.509S20.549.403 18.646.399c-1.904.003-3.729.676-5.075 1.873s-2.105 2.818-2.108 4.51v9.327s14.362-1.422 14.364-9.326v-.001zM0 19.171c.003 1.177.531 2.305 1.467 3.137s2.205 1.301 3.529 1.305c1.324-.003 2.593-.472 3.529-1.304s1.464-1.959 1.468-3.136v-6.49S0 13.673 0 19.172zm4.997 1.163c-.259 0-.512-.068-.727-.196s-.383-.309-.482-.522c-.099-.212-.125-.446-.074-.672s.175-.433.358-.595.416-.273.67-.318c.254-.045.517-.022.756.066s.443.237.587.428c.144.191.221.416.221.646.001.153-.033.305-.098.446s-.162.27-.283.379c-.122.108-.266.195-.425.253s-.33.089-.502.089v-.004zM15.096 19.694h-.964v.996h-.502v-2.437h1.587v.407h-1.085v.629h.964v.405zm2.414-.168c0 .24-.042.45-.127.631a.959.959 0 0 1-.907.566c-.202 0-.382-.049-.541-.146s-.281-.235-.368-.415a1.434 1.434 0 0 1-.132-.623v-.121c0-.24.043-.451.129-.633a.962.962 0 0 1 .909-.567c.203 0 .383.049.541.147a.956.956 0 0 1 .367.42c.087.182.131.392.131.631v.109zm-.509-.11c0-.256-.046-.45-.137-.583s-.222-.199-.392-.199a.445.445 0 0 0-.39.198c-.091.131-.138.323-.139.576v.119c0 .249.046.442.137.579s.223.206.395.206a.44.44 0 0 0 .388-.198c.09-.133.136-.326.137-.579v-.119zm2.138.634a.257.257 0 0 0-.1-.218 1.29 1.29 0 0 0-.362-.161 2.72 2.72 0 0 1-.414-.167c-.277-.15-.415-.351-.415-.604 0-.132.037-.249.11-.352a.727.727 0 0 1 .32-.243 1.21 1.21 0 0 1 .469-.087c.174 0 .329.032.465.095a.728.728 0 0 1 .316.266.696.696 0 0 1 .114.392h-.502a.325.325 0 0 0-.105-.259.433.433 0 0 0-.296-.094.455.455 0 0 0-.286.079.242.242 0 0 0-.102.204c0 .079.04.146.119.199.08.054.198.104.353.151.286.086.494.193.624.32s.196.286.196.475c0 .211-.08.377-.239.497-.16.119-.374.179-.645.179-.187 0-.358-.034-.512-.102a.813.813 0 0 1-.353-.283.728.728 0 0 1-.121-.415h.504c0 .269.161.403.482.403a.475.475 0 0 0 .28-.072.238.238 0 0 0 .1-.204zm2.68-1.391h-.747v2.031h-.502v-2.031h-.737v-.407h1.985v.407zm1.754.974h-.964v.653h1.132v.403h-1.634v-2.437h1.631v.407H22.61v.581h.964v.393zm1.365.164h-.4v.892h-.502v-2.437h.906c.288 0 .51.064.666.193s.234.31.234.544a.748.748 0 0 1-.109.417.729.729 0 0 1-.326.265l.527.996v.023h-.539l-.457-.892zm-.4-.406h.405a.42.42 0 0 0 .293-.095.347.347 0 0 0 .104-.266.366.366 0 0 0-.099-.271c-.065-.066-.165-.099-.3-.099h-.403v.732zm3.043.44v.859h-.502v-2.437h.951c.183 0 .344.033.482.1a.734.734 0 0 1 .321.286.79.79 0 0 1 .112.42.702.702 0 0 1-.246.566c-.163.137-.389.206-.678.206h-.44zm0-.407h.449c.133 0 .234-.031.303-.094a.341.341 0 0 0 .105-.268c0-.119-.035-.216-.105-.29s-.167-.112-.291-.114h-.46v.765zm3.178.209h-.964v.653h1.132v.403h-1.634v-2.437h1.631v.407h-1.128v.581h.964v.393zm2.33-.974h-.747v2.031h-.502v-2.031h-.737v-.407h1.985v.407zm1.755.974h-.964v.653h1.132v.403h-1.634v-2.437h1.631v.407h-1.128v.581h.964v.393zm1.364.164h-.4v.892h-.502v-2.437h.906c.288 0 .51.064.666.193s.234.31.234.544a.748.748 0 0 1-.109.417.729.729 0 0 1-.326.265l.527.996v.023h-.539l-.457-.892zm-.4-.406h.405a.42.42 0 0 0 .293-.095.347.347 0 0 0 .104-.266.366.366 0 0 0-.099-.271c-.065-.066-.165-.099-.3-.099h-.403v.732zm2.951.659a.257.257 0 0 0-.1-.218 1.29 1.29 0 0 0-.362-.161 2.66 2.66 0 0 1-.413-.167c-.277-.15-.415-.351-.415-.604 0-.132.037-.249.111-.352a.727.727 0 0 1 .32-.243c.14-.058.296-.087.469-.087.174 0 .329.032.465.095a.728.728 0 0 1 .316.266.696.696 0 0 1 .114.392h-.502a.325.325 0 0 0-.105-.259.433.433 0 0 0-.296-.094.455.455 0 0 0-.286.079.242.242 0 0 0-.102.204c0 .079.04.146.119.199.08.054.198.104.353.151.286.086.494.193.624.32s.196.286.196.475c0 .211-.08.377-.239.497-.16.119-.374.179-.645.179-.188 0-.358-.034-.512-.102a.813.813 0 0 1-.353-.283.728.728 0 0 1-.121-.415h.504c0 .269.161.403.482.403a.475.475 0 0 0 .28-.072.238.238 0 0 0 .1-.204z"/></symbol><symbol id="icon-Client4_logo" viewBox="0 0 49 24"><path fill="#afb1b8" style="fill:var(--color4, #afb1b8)" d="M7.512 7.487H7.51c-1.37 0-2.481.987-2.481 2.205v.001c0 1.218 1.111 2.205 2.481 2.205h.002c1.37 0 2.481-.987 2.481-2.205v-.001c0-1.218-1.111-2.205-2.481-2.205zM25.826 6.782c-.004-1.691-.762-3.313-2.107-4.509S20.549.403 18.646.399c-1.904.003-3.729.676-5.075 1.873s-2.105 2.818-2.108 4.51v9.327s14.362-1.422 14.364-9.326v-.001zM0 19.171c.003 1.177.531 2.305 1.467 3.137s2.205 1.301 3.529 1.305c1.324-.003 2.593-.472 3.529-1.304s1.464-1.959 1.468-3.136v-6.49S0 13.673 0 19.172zm4.997 1.163c-.259 0-.512-.068-.727-.196s-.383-.309-.482-.522c-.099-.212-.125-.446-.074-.672s.175-.433.358-.595.416-.273.67-.318c.254-.045.517-.022.756.066s.443.237.587.428c.144.191.221.416.221.646.001.153-.033.305-.098.446s-.162.27-.283.379c-.122.108-.266.195-.425.253s-.33.089-.502.089v-.004zM15.096 19.694h-.964v.996h-.502v-2.437h1.587v.407h-1.085v.629h.964v.405zm2.414-.168c0 .24-.042.45-.127.631a.959.959 0 0 1-.907.566c-.202 0-.382-.049-.541-.146s-.281-.235-.368-.415a1.434 1.434 0 0 1-.132-.623v-.121c0-.24.043-.451.129-.633a.962.962 0 0 1 .909-.567c.203 0 .383.049.541.147a.956.956 0 0 1 .367.42c.087.182.131.392.131.631v.109zm-.509-.11c0-.256-.046-.45-.137-.583s-.222-.199-.392-.199a.445.445 0 0 0-.39.198c-.091.131-.138.323-.139.576v.119c0 .249.046.442.137.579s.223.206.395.206a.44.44 0 0 0 .388-.198c.09-.133.136-.326.137-.579v-.119zm2.138.634a.257.257 0 0 0-.1-.218 1.29 1.29 0 0 0-.362-.161 2.72 2.72 0 0 1-.414-.167c-.277-.15-.415-.351-.415-.604 0-.132.037-.249.11-.352a.727.727 0 0 1 .32-.243 1.21 1.21 0 0 1 .469-.087c.174 0 .329.032.465.095a.728.728 0 0 1 .316.266.696.696 0 0 1 .114.392h-.502a.325.325 0 0 0-.105-.259.433.433 0 0 0-.296-.094.455.455 0 0 0-.286.079.242.242 0 0 0-.102.204c0 .079.04.146.119.199.08.054.198.104.353.151.286.086.494.193.624.32s.196.286.196.475c0 .211-.08.377-.239.497-.16.119-.374.179-.645.179-.187 0-.358-.034-.512-.102a.813.813 0 0 1-.353-.283.728.728 0 0 1-.121-.415h.504c0 .269.161.403.482.403a.475.475 0 0 0 .28-.072.238.238 0 0 0 .1-.204zm2.68-1.391h-.747v2.031h-.502v-2.031h-.737v-.407h1.985v.407zm1.754.974h-.964v.653h1.132v.403h-1.634v-2.437h1.631v.407H22.61v.581h.964v.393zm1.365.164h-.4v.892h-.502v-2.437h.906c.288 0 .51.064.666.193s.234.31.234.544a.748.748 0 0 1-.109.417.729.729 0 0 1-.326.265l.527.996v.023h-.539l-.457-.892zm-.4-.406h.405a.42.42 0 0 0 .293-.095.347.347 0 0 0 .104-.266.366.366 0 0 0-.099-.271c-.065-.066-.165-.099-.3-.099h-.403v.732zm3.043.44v.859h-.502v-2.437h.951c.183 0 .344.033.482.1a.734.734 0 0 1 .321.286.79.79 0 0 1 .112.42.702.702 0 0 1-.246.566c-.163.137-.389.206-.678.206h-.44zm0-.407h.449c.133 0 .234-.031.303-.094a.341.341 0 0 0 .105-.268c0-.119-.035-.216-.105-.29s-.167-.112-.291-.114h-.46v.765zm3.178.209h-.964v.653h1.132v.403h-1.634v-2.437h1.631v.407h-1.128v.581h.964v.393zm2.33-.974h-.747v2.031h-.502v-2.031h-.737v-.407h1.985v.407zm1.755.974h-.964v.653h1.132v.403h-1.634v-2.437h1.631v.407h-1.128v.581h.964v.393zm1.364.164h-.4v.892h-.502v-2.437h.906c.288 0 .51.064.666.193s.234.31.234.544a.748.748 0 0 1-.109.417.729.729 0 0 1-.326.265l.527.996v.023h-.539l-.457-.892zm-.4-.406h.405a.42.42 0 0 0 .293-.095.347.347 0 0 0 .104-.266.366.366 0 0 0-.099-.271c-.065-.066-.165-.099-.3-.099h-.403v.732zm2.951.659a.257.257 0 0 0-.1-.218 1.29 1.29 0 0 0-.362-.161 2.66 2.66 0 0 1-.413-.167c-.277-.15-.415-.351-.415-.604 0-.132.037-.249.111-.352a.727.727 0 0 1 .32-.243c.14-.058.296-.087.469-.087.174 0 .329.032.465.095a.728.728 0 0 1 .316.266.696.696 0 0 1 .114.392h-.502a.325.325 0 0 0-.105-.259.433.433 0 0 0-.296-.094.455.455 0 0 0-.286.079.242.242 0 0 0-.102.204c0 .079.04.146.119.199.08.054.198.104.353.151.286.086.494.193.624.32s.196.286.196.475c0 .211-.08.377-.239.497-.16.119-.374.179-.645.179-.188 0-.358-.034-.512-.102a.813.813 0 0 1-.353-.283.728.728 0 0 1-.121-.415h.504c0 .269.161.403.482.403a.475.475 0 0 0 .28-.072.238.238 0 0 0 .1-.204z"/></symbol><symbol id="icon-Client5b_logo" viewBox="0 0 32 24"><path fill="#2196f3" style="fill:var(--color2, #2196f3)" d="M2.429 19.78a.732.732 0 0 1 .187.499c.006.118-.016.236-.067.345s-.127.206-.223.285a1.34 1.34 0 0 1-.843.23H0v-3.162h1.452a1.33 1.33 0 0 1 .805.21c.094.072.168.163.217.265s.071.214.065.326a.685.685 0 0 1-.169.483.797.797 0 0 1-.442.247.866.866 0 0 1 .501.27zM.69 19.302h.621a.629.629 0 0 0 .395-.105c.047-.039.083-.087.106-.14s.032-.111.027-.169c.004-.057-.005-.115-.028-.168s-.058-.102-.104-.141a.65.65 0 0 0-.407-.107H.689v.829zm1.076 1.213c.05-.04.089-.089.114-.145s.037-.116.032-.176c.004-.061-.008-.122-.034-.178s-.066-.106-.116-.146a.684.684 0 0 0-.422-.114H.689v.87h.66a.7.7 0 0 0 .417-.11zM5.398 21.139l-.808-1.236h-.304v1.236h-.695v-3.162h1.316c.332-.021.66.075.916.269.184.172.295.398.313.638s-.058.478-.215.671c-.162.17-.384.284-.628.321l.86 1.263h-.756zm-1.112-1.667h.568c.395 0 .592-.16.592-.479.004-.065-.007-.13-.032-.192s-.064-.117-.113-.164a.653.653 0 0 0-.447-.128h-.575l.007.962zM9.197 20.502H7.812l-.245.636h-.729l1.272-3.126h.788l1.267 3.126h-.729l-.24-.636zm-.186-.478-.506-1.334-.506 1.334h1.012zM13.952 21.139h-.69l-1.547-2.15v2.15h-.688v-3.162h.688l1.547 2.162v-2.162h.69v3.162zM17.889 20.382c-.143.239-.36.433-.624.558a2.19 2.19 0 0 1-.97.199h-1.228v-3.162h1.228c.336-.008.669.059.97.195.264.122.482.314.624.551.142.257.216.541.216.829s-.074.572-.216.829zm-.789-.076c.197-.21.305-.478.305-.755s-.108-.544-.305-.754a1.272 1.272 0 0 0-.864-.269h-.479v2.046h.479c.315.018.626-.079.864-.269zM9.628.392s8.905 3.078 8.716 7.533v7.534s-8.898-3.08-8.713-7.534L9.628.392zM26.278 13.694a12.913 12.913 0 0 1 5.658-1.909V9.427c-2.34.826-4.325 2.323-5.658 4.268z"/><path fill="#2196f3" style="fill:var(--color2, #2196f3)" d="M25.267 14.405c1.377-2.538 3.763-4.496 6.668-5.472V2.137S19.253 6.522 19.522 12.865v10.727s.565-.196 1.454-.564c0-.343 0-.689.041-1.036.262-2.945 1.791-5.674 4.251-7.587z"/><path fill="#2196f3" style="fill:var(--color2, #2196f3)" d="M24.061 18.39c.067-.744.215-1.48.444-2.196-1.531 1.652-2.459 3.702-2.652 5.861a8.927 8.927 0 0 0-.034.618 38.23 38.23 0 0 0 2.439-1.177 10.167 10.167 0 0 1-.197-3.106zM24.566 18.428a9.732 9.732 0 0 0 .157 2.813c3.465-1.898 7.358-4.831 7.208-8.376v-.309c-2.475.254-4.791 1.244-6.592 2.82a9.837 9.837 0 0 0-.773 3.052z"/></symbol><symbol id="icon-Client5_logo" viewBox="0 0 32 24"><path fill="#afb1b8" style="fill:var(--color4, #afb1b8)" d="M2.429 19.78a.732.732 0 0 1 .187.499c.006.118-.016.236-.067.345s-.127.206-.223.285a1.34 1.34 0 0 1-.843.23H0v-3.162h1.452a1.33 1.33 0 0 1 .805.21c.094.072.168.163.217.265s.071.214.065.326a.685.685 0 0 1-.169.483.797.797 0 0 1-.442.247.866.866 0 0 1 .501.27zM.69 19.302h.621a.629.629 0 0 0 .395-.105c.047-.039.083-.087.106-.14s.032-.111.027-.169c.004-.057-.005-.115-.028-.168s-.058-.102-.104-.141a.65.65 0 0 0-.407-.107H.689v.829zm1.076 1.213c.05-.04.089-.089.114-.145s.037-.116.032-.176c.004-.061-.008-.122-.034-.178s-.066-.106-.116-.146a.684.684 0 0 0-.422-.114H.689v.87h.66a.7.7 0 0 0 .417-.11zM5.398 21.139l-.808-1.236h-.304v1.236h-.695v-3.162h1.316c.332-.021.66.075.916.269.184.172.295.398.313.638s-.058.478-.215.671c-.162.17-.384.284-.628.321l.86 1.263h-.756zm-1.112-1.667h.568c.395 0 .592-.16.592-.479.004-.065-.007-.13-.032-.192s-.064-.117-.113-.164a.653.653 0 0 0-.447-.128h-.575l.007.962zM9.197 20.502H7.812l-.245.636h-.729l1.272-3.126h.788l1.267 3.126h-.729l-.24-.636zm-.186-.478-.506-1.334-.506 1.334h1.012zM13.952 21.139h-.69l-1.547-2.15v2.15h-.688v-3.162h.688l1.547 2.162v-2.162h.69v3.162zM17.889 20.382c-.143.239-.36.433-.624.558a2.19 2.19 0 0 1-.97.199h-1.228v-3.162h1.228c.336-.008.669.059.97.195.264.122.482.314.624.551.142.257.216.541.216.829s-.074.572-.216.829zm-.789-.076c.197-.21.305-.478.305-.755s-.108-.544-.305-.754a1.272 1.272 0 0 0-.864-.269h-.479v2.046h.479c.315.018.626-.079.864-.269zM9.628.392s8.905 3.078 8.716 7.533v7.534s-8.898-3.08-8.713-7.534L9.628.392zM26.278 13.694a12.913 12.913 0 0 1 5.658-1.909V9.427c-2.34.826-4.325 2.323-5.658 4.268z"/><path fill="#afb1b8" style="fill:var(--color4, #afb1b8)" d="M25.267 14.405c1.377-2.538 3.763-4.496 6.668-5.472V2.137S19.253 6.522 19.522 12.865v10.727s.565-.196 1.454-.564c0-.343 0-.689.041-1.036.262-2.945 1.791-5.674 4.251-7.587z"/><path fill="#afb1b8" style="fill:var(--color4, #afb1b8)" d="M24.061 18.39c.067-.744.215-1.48.444-2.196-1.531 1.652-2.459 3.702-2.652 5.861a8.927 8.927 0 0 0-.034.618 38.23 38.23 0 0 0 2.439-1.177 10.167 10.167 0 0 1-.197-3.106zM24.566 18.428a9.732 9.732 0 0 0 .157 2.813c3.465-1.898 7.358-4.831 7.208-8.376v-.309c-2.475.254-4.791 1.244-6.592 2.82a9.837 9.837 0 0 0-.773 3.052z"/></symbol><symbol id="icon-Client6b_logo" viewBox="0 0 50 24"><path fill="#2196f3" style="fill:var(--color2, #2196f3)" d="M25.293 11.418a1.58 1.58 0 0 1-.323-1.061V8.819c0-.471.107-.83.321-1.075s.581-.367 1.102-.366c.489 0 .836.104 1.042.313.224.266.333.592.308.92v.361h-.875v-.366c.003-.12-.005-.24-.025-.358a.352.352 0 0 0-.125-.213.505.505 0 0 0-.317-.083.533.533 0 0 0-.333.088.412.412 0 0 0-.145.235 1.74 1.74 0 0 0-.034.38v1.866c-.014.18.025.36.112.524.044.055.104.099.175.127s.149.038.226.029a.478.478 0 0 0 .31-.084.375.375 0 0 0 .13-.227c.02-.124.03-.249.027-.374v-.379h.875v.346c.025.342-.082.682-.303.967-.201.228-.544.343-1.047.343s-.884-.122-1.1-.375zM28.937 11.433c-.221-.239-.332-.588-.332-1.05V8.766c0-.457.111-.802.332-1.037s.591-.351 1.109-.35c.515 0 .882.117 1.103.35.221.235.333.58.333 1.037v1.617c0 .457-.112.807-.337 1.048s-.591.361-1.1.361c-.509 0-.886-.122-1.109-.36zm1.516-.388a.906.906 0 0 0 .105-.479v-1.98a.88.88 0 0 0-.103-.469c-.044-.057-.106-.101-.179-.129s-.152-.037-.231-.027c-.079-.009-.159 0-.231.028s-.135.072-.18.129a.853.853 0 0 0-.105.469v1.99a.888.888 0 0 0 .105.479c.051.05.114.091.185.119a.612.612 0 0 0 .635-.119v-.009zM32.535 7.426h.942l.708 2.984.725-2.984h.917l.092 4.308h-.678l-.072-2.994-.699 2.994h-.544l-.725-3.005-.067 3.005h-.685l.085-4.308zM36.976 7.426h1.468c.846 0 1.268.408 1.268 1.223 0 .781-.445 1.171-1.335 1.17h-.5v1.915h-.906l.005-4.308zm1.254 1.841a.702.702 0 0 0 .498-.136.693.693 0 0 0 .13-.486 1.327 1.327 0 0 0-.044-.391c-.013-.043-.036-.083-.067-.118s-.07-.065-.115-.087a.94.94 0 0 0-.404-.069h-.352v1.287h.352zM41.018 7.426h.973l.998 4.308h-.844l-.197-.993h-.868l-.203.993h-.857l.998-4.308zm.832 2.815-.339-1.808-.339 1.808h.678zM43.796 7.426h.634l1.214 2.457V7.426h.752v4.308h-.603l-1.221-2.565v2.565h-.777l.002-4.308zM48.157 10.091l-1.009-2.659h.85l.616 1.708.578-1.708h.832l-.997 2.659v1.642h-.87v-1.642zM26.692 13.617v.225h-.739v1.75h-.31v-1.75H24.9v-.225h1.792zM29.009 15.593h-.239a.105.105 0 0 1-.067-.019.102.102 0 0 1-.04-.045l-.214-.469h-1.025l-.214.469a.119.119 0 0 1-.033.053.112.112 0 0 1-.067.019h-.239l.906-1.976h.315l.917 1.968zm-1.5-.734h.855l-.362-.804a1.426 1.426 0 0 1-.067-.186 4.03 4.03 0 0 0-.034.105l-.033.083-.359.802zM30.571 15.399a.995.995 0 0 0 .315-.023.961.961 0 0 0 .13-.036c.04-.014.08-.031.121-.048v-.444h-.362c-.009 0-.018-.001-.026-.003s-.016-.007-.023-.012c-.006-.004-.011-.01-.014-.016s-.005-.013-.004-.02v-.152h.703v.757a1.407 1.407 0 0 1-.608.202 2.591 2.591 0 0 1-.264.012 1.41 1.41 0 0 1-.457-.073 1.09 1.09 0 0 1-.362-.207.956.956 0 0 1-.234-.313.99.99 0 0 1-.083-.41.907.907 0 0 1 .316-.726c.103-.089.227-.159.362-.205.155-.05.32-.075.486-.074.084 0 .169.006.252.017a1.21 1.21 0 0 1 .397.128c.056.031.108.065.158.103l-.087.122c-.007.011-.017.021-.029.027s-.027.01-.041.01a.118.118 0 0 1-.056-.016 1.344 1.344 0 0 1-.089-.047.765.765 0 0 0-.121-.053 1.171 1.171 0 0 0-.167-.044 1.362 1.362 0 0 0-.23-.017 1.06 1.06 0 0 0-.35.055.704.704 0 0 0-.435.402.924.924 0 0 0 0 .659.756.756 0 0 0 .446.405c.115.034.237.047.359.039zM33.459 15.367h.989v.225h-1.292v-1.976h.31l-.007 1.75zM35.478 15.592h-.31v-1.976h.31v1.976zM36.63 13.626a.151.151 0 0 1 .047.036l1.324 1.489a.41.41 0 0 1 0-.07v-1.472h.27v1.984h-.156a.14.14 0 0 1-.067-.011.184.184 0 0 1-.049-.038l-1.323-1.488v1.536h-.259v-1.976h.161c.017 0 .035.003.051.009zM40.553 13.617v.217h-1.098v.652h.89v.21h-.89v.674h1.098v.217h-1.417v-1.971h1.417zM8.086 1.416l13.757 3.372v11.818L8.086 13.235V1.416zM7.204.409V13.81l15.52 3.806V4.217L7.204.41z"/><path fill="#2196f3" style="fill:var(--color2, #2196f3)" d="M15.522 23.836 0 20.027V6.628l15.522 3.807v13.401z"/><path fill="#2196f3" style="fill:var(--color2, #2196f3)" d="m7.461 1.265 13.578 3.33-5.774 4.987L1.685 6.25l5.776-4.985zM7.204.409 0 6.628l15.522 3.807 7.202-6.219L7.204.409zM16.395 23.082l6.329-5.465-6.329-1.553v7.018z"/></symbol><symbol id="icon-Client6_logo" viewBox="0 0 50 24"><path fill="#afb1b8" style="fill:var(--color4, #afb1b8)" d="M25.293 11.418a1.58 1.58 0 0 1-.323-1.061V8.819c0-.471.107-.83.321-1.075s.581-.367 1.102-.366c.489 0 .836.104 1.042.313.224.266.333.592.308.92v.361h-.875v-.366c.003-.12-.005-.24-.025-.358a.352.352 0 0 0-.125-.213.505.505 0 0 0-.317-.083.533.533 0 0 0-.333.088.412.412 0 0 0-.145.235 1.74 1.74 0 0 0-.034.38v1.866c-.014.18.025.36.112.524.044.055.104.099.175.127s.149.038.226.029a.478.478 0 0 0 .31-.084.375.375 0 0 0 .13-.227c.02-.124.03-.249.027-.374v-.379h.875v.346c.025.342-.082.682-.303.967-.201.228-.544.343-1.047.343s-.884-.122-1.1-.375zM28.937 11.433c-.221-.239-.332-.588-.332-1.05V8.766c0-.457.111-.802.332-1.037s.591-.351 1.109-.35c.515 0 .882.117 1.103.35.221.235.333.58.333 1.037v1.617c0 .457-.112.807-.337 1.048s-.591.361-1.1.361c-.509 0-.886-.122-1.109-.36zm1.516-.388a.906.906 0 0 0 .105-.479v-1.98a.88.88 0 0 0-.103-.469c-.044-.057-.106-.101-.179-.129s-.152-.037-.231-.027c-.079-.009-.159 0-.231.028s-.135.072-.18.129a.853.853 0 0 0-.105.469v1.99a.888.888 0 0 0 .105.479c.051.05.114.091.185.119a.612.612 0 0 0 .635-.119v-.009zM32.535 7.426h.942l.708 2.984.725-2.984h.917l.092 4.308h-.678l-.072-2.994-.699 2.994h-.544l-.725-3.005-.067 3.005h-.685l.085-4.308zM36.976 7.426h1.468c.846 0 1.268.408 1.268 1.223 0 .781-.445 1.171-1.335 1.17h-.5v1.915h-.906l.005-4.308zm1.254 1.841a.702.702 0 0 0 .498-.136.693.693 0 0 0 .13-.486 1.327 1.327 0 0 0-.044-.391c-.013-.043-.036-.083-.067-.118s-.07-.065-.115-.087a.94.94 0 0 0-.404-.069h-.352v1.287h.352zM41.018 7.426h.973l.998 4.308h-.844l-.197-.993h-.868l-.203.993h-.857l.998-4.308zm.832 2.815-.339-1.808-.339 1.808h.678zM43.796 7.426h.634l1.214 2.457V7.426h.752v4.308h-.603l-1.221-2.565v2.565h-.777l.002-4.308zM48.157 10.091l-1.009-2.659h.85l.616 1.708.578-1.708h.832l-.997 2.659v1.642h-.87v-1.642zM26.692 13.617v.225h-.739v1.75h-.31v-1.75H24.9v-.225h1.792zM29.009 15.593h-.239a.105.105 0 0 1-.067-.019.102.102 0 0 1-.04-.045l-.214-.469h-1.025l-.214.469a.119.119 0 0 1-.033.053.112.112 0 0 1-.067.019h-.239l.906-1.976h.315l.917 1.968zm-1.5-.734h.855l-.362-.804a1.426 1.426 0 0 1-.067-.186 4.03 4.03 0 0 0-.034.105l-.033.083-.359.802zM30.571 15.399a.995.995 0 0 0 .315-.023.961.961 0 0 0 .13-.036c.04-.014.08-.031.121-.048v-.444h-.362c-.009 0-.018-.001-.026-.003s-.016-.007-.023-.012c-.006-.004-.011-.01-.014-.016s-.005-.013-.004-.02v-.152h.703v.757a1.407 1.407 0 0 1-.608.202 2.591 2.591 0 0 1-.264.012 1.41 1.41 0 0 1-.457-.073 1.09 1.09 0 0 1-.362-.207.956.956 0 0 1-.234-.313.99.99 0 0 1-.083-.41.907.907 0 0 1 .316-.726c.103-.089.227-.159.362-.205.155-.05.32-.075.486-.074.084 0 .169.006.252.017a1.21 1.21 0 0 1 .397.128c.056.031.108.065.158.103l-.087.122c-.007.011-.017.021-.029.027s-.027.01-.041.01a.118.118 0 0 1-.056-.016 1.344 1.344 0 0 1-.089-.047.765.765 0 0 0-.121-.053 1.171 1.171 0 0 0-.167-.044 1.362 1.362 0 0 0-.23-.017 1.06 1.06 0 0 0-.35.055.704.704 0 0 0-.435.402.924.924 0 0 0 0 .659.756.756 0 0 0 .446.405c.115.034.237.047.359.039zM33.459 15.367h.989v.225h-1.292v-1.976h.31l-.007 1.75zM35.478 15.592h-.31v-1.976h.31v1.976zM36.63 13.626a.151.151 0 0 1 .047.036l1.324 1.489a.41.41 0 0 1 0-.07v-1.472h.27v1.984h-.156a.14.14 0 0 1-.067-.011.184.184 0 0 1-.049-.038l-1.323-1.488v1.536h-.259v-1.976h.161c.017 0 .035.003.051.009zM40.553 13.617v.217h-1.098v.652h.89v.21h-.89v.674h1.098v.217h-1.417v-1.971h1.417zM8.086 1.416l13.757 3.372v11.818L8.086 13.235V1.416zM7.204.409V13.81l15.52 3.806V4.217L7.204.41z"/><path fill="#afb1b8" style="fill:var(--color4, #afb1b8)" d="M15.522 23.836 0 20.027V6.628l15.522 3.807v13.401z"/><path fill="#afb1b8" style="fill:var(--color4, #afb1b8)" d="m7.461 1.265 13.578 3.33-5.774 4.987L1.685 6.25l5.776-4.985zM7.204.409 0 6.628l15.522 3.807 7.202-6.219L7.204.409zM16.395 23.082l6.329-5.465-6.329-1.553v7.018z"/></symbol></defs></svg>