<svg aria-hidden="true" style="position: absolute; width: 0; height: 0; overflow: hidden;" version="1.1" xmlns="http://www.w3.org/2000/svg" xmlns:xlink="http://www.w3.org/1999/xlink">
<defs>
<symbol id="icon-close_24px_blue" viewBox="0 0 24 24">
<path fill="#2196f3" style="fill: var(--color1, #2196f3)" d="M23.579 2.375l-2.375-2.375-9.415 9.415-9.415-9.415-2.375 2.375 9.415 9.415-9.415 9.415 2.375 2.375 9.415-9.415 9.415 9.415 2.375-2.375-9.415-9.415 9.415-9.415z"></path>
</symbol>
<symbol id="icon-close_24px" viewBox="0 0 24 24">
<path d="M23.579 2.375l-2.375-2.375-9.415 9.415-9.415-9.415-2.375 2.375 9.415 9.415-9.415 9.415 2.375 2.375 9.415-9.415 9.415 9.415 2.375-2.375-9.415-9.415 9.415-9.415z"></path>
</symbol>
<symbol id="icon-menu_24px_blue" viewBox="0 0 36 24">
<path fill="#2196f3" style="fill: var(--color1, #2196f3)" d="M0 4v-4h36v4h-36zM0 14h36v-4h-36v4zM0 24h36v-4h-36v4z"></path>
</symbol>
<symbol id="icon-menu_24px" viewBox="0 0 36 24">
<path d="M0 4v-4h36v4h-36zM0 14h36v-4h-36v4zM0 24h36v-4h-36v4z"></path>
</symbol>
<symbol id="icon-playn" viewBox="0 0 24 24">
<path fill="#fff" style="fill: var(--color2, #fff)" d="M24 0l-24 13.5 7.67 2.841 11.83-11.091-8.998 12.14 0.007 0.003-0.009-0.003v6.61l4.301-5.018 5.449 2.018 3.75-21z"></path>
</symbol>
<symbol id="icon-name_modal" viewBox="0 0 24 24">
<path d="M12 12c2.21 0 4-1.79 4-4s-1.79-4-4-4c-2.21 0-4 1.79-4 4s1.79 4 4 4zM12 14c-2.67 0-8 1.34-8 4v1c0 0.55 0.45 1 1 1h14c0.55 0 1-0.45 1-1v-1c0-2.66-5.33-4-8-4z"></path>
</symbol>
<symbol id="icon-name_modal1" viewBox="0 0 24 24">
<path fill="#2196f3" style="fill: var(--color1, #2196f3)" d="M12 12c2.21 0 4-1.79 4-4s-1.79-4-4-4c-2.21 0-4 1.79-4 4s1.79 4 4 4zM12 14c-2.67 0-8 1.34-8 4v1c0 0.55 0.45 1 1 1h14c0.55 0 1-0.45 1-1v-1c0-2.66-5.33-4-8-4z"></path>
</symbol>
<symbol id="icon-check_off" viewBox="0 0 26 24">
<path d="M22.756 2.667v18.667h-19.911v-18.667h19.911zM22.756 0h-19.911c-1.564 0-2.844 1.2-2.844 2.667v18.667c0 1.467 1.28 2.667 2.844 2.667h19.911c1.564 0 2.844-1.2 2.844-2.667v-18.667c0-1.467-1.28-2.667-2.844-2.667z"></path>
</symbol>
<symbol id="icon-check_on" viewBox="0 0 26 24">
<path fill="#2196f3" style="fill: var(--color1, #2196f3)" d="M3.2 0h19.2c1.767 0 3.2 1.433 3.2 3.2v17.6c0 1.767-1.433 3.2-3.2 3.2h-19.2c-1.767 0-3.2-1.433-3.2-3.2v-17.6c0-1.767 1.433-3.2 3.2-3.2z"></path>
<path fill="#fff" style="fill: var(--color2, #fff); stroke: var(--color2, #fff)" stroke="#fff" stroke-linejoin="miter" stroke-linecap="butt" stroke-miterlimit="4" stroke-width="0.32" d="M6.331 12.403l-0.11-0.105-1.653 1.566 5.825 5.557 12.239-11.675-1.643-1.567-10.596 10.099-4.062-3.875z"></path>
</symbol>
<symbol id="icon-email_modal" viewBox="0 0 24 24">
<path d="M20 4h-16c-1.1 0-1.99 0.9-1.99 2l-0.010 12c0 1.1 0.9 2 2 2h16c1.1 0 2-0.9 2-2v-12c0-1.1-0.9-2-2-2zM19.6 8.25l-7.070 4.42c-0.32 0.2-0.74 0.2-1.060 0l-7.070-4.42c-0.25-0.16-0.4-0.43-0.4-0.72 0-0.67 0.73-1.070 1.3-0.72l6.7 4.19 6.7-4.19c0.57-0.35 1.3 0.050 1.3 0.72 0 0.29-0.15 0.56-0.4 0.72z"></path>
</symbol>
<symbol id="icon-email_modal1" viewBox="0 0 24 24">
<path fill="#2196f3" style="fill: var(--color1, #2196f3)" d="M20 4h-16c-1.1 0-1.99 0.9-1.99 2l-0.010 12c0 1.1 0.9 2 2 2h16c1.1 0 2-0.9 2-2v-12c0-1.1-0.9-2-2-2zM19.6 8.25l-7.070 4.42c-0.32 0.2-0.74 0.2-1.060 0l-7.070-4.42c-0.25-0.16-0.4-0.43-0.4-0.72 0-0.67 0.73-1.070 1.3-0.72l6.7 4.19 6.7-4.19c0.57-0.35 1.3 0.050 1.3 0.72 0 0.29-0.15 0.56-0.4 0.72z"></path>
</symbol>
<symbol id="icon-tel_modal" viewBox="0 0 24 24">
<path d="M18.661 14.83l-2.451-0.28c-0.589-0.068-1.168 0.135-1.583 0.55l-1.775 1.775c-2.731-1.389-4.969-3.618-6.359-6.359l1.785-1.785c0.415-0.415 0.618-0.994 0.55-1.582l-0.28-2.432c-0.116-0.975-0.936-1.708-1.92-1.708h-1.669c-1.090 0-1.997 0.907-1.93 1.997 0.511 8.24 7.102 14.821 15.332 15.332 1.090 0.067 1.997-0.839 1.997-1.93v-1.669c0.010-0.975-0.724-1.795-1.698-1.911v0z"></path>
</symbol>
<symbol id="icon-tel_modal1" viewBox="0 0 24 24">
<path fill="#2196f3" style="fill: var(--color1, #2196f3)" d="M18.661 14.83l-2.451-0.28c-0.589-0.068-1.168 0.135-1.583 0.55l-1.775 1.775c-2.731-1.389-4.969-3.618-6.359-6.359l1.785-1.785c0.415-0.415 0.618-0.994 0.55-1.582l-0.28-2.432c-0.116-0.975-0.936-1.708-1.92-1.708h-1.669c-1.090 0-1.997 0.907-1.93 1.997 0.511 8.24 7.102 14.821 15.332 15.332 1.090 0.067 1.997-0.839 1.997-1.93v-1.669c0.010-0.975-0.724-1.795-1.698-1.911v0z"></path>
</symbol>
<symbol id="icon-close1" viewBox="0 0 24 24">
<path fill="#2196f3" style="fill: var(--color1, #2196f3)" d="M24 2.417l-2.417-2.417-9.583 9.583-9.583-9.583-2.417 2.417 9.583 9.583-9.583 9.583 2.417 2.417 9.583-9.583 9.583 9.583 2.417-2.417-9.583-9.583 9.583-9.583z"></path>
</symbol>
<symbol id="icon-close" viewBox="0 0 24 24">
<path d="M24 2.417l-2.417-2.417-9.583 9.583-9.583-9.583-2.417 2.417 9.583 9.583-9.583 9.583 2.417 2.417 9.583-9.583 9.583 9.583 2.417-2.417-9.583-9.583 9.583-9.583z"></path>
</symbol>
<symbol id="icon-smartphone" viewBox="0 0 15 24">
<path fill="#fff" style="fill: var(--color2, #fff)" d="M12.75 0h-10.5c-1.241 0-2.25 1.009-2.25 2.25v19.5c0 1.241 1.009 2.25 2.25 2.25h10.5c1.241 0 2.25-1.009 2.25-2.25v-19.5c0-1.241-1.009-2.25-2.25-2.25zM2.25 1.5h10.5c0.414 0 0.75 0.336 0.75 0.75v15.75h-12v-15.75c0-0.414 0.336-0.75 0.75-0.75zM12.75 22.5h-10.5c-0.414 0-0.75-0.336-0.75-0.75v-2.25h12v2.25c0 0.414-0.336 0.75-0.75 0.75z"></path>
<path fill="#fff" style="fill: var(--color2, #fff)" d="M3.53 20.608c0.293 0.274 0.293 0.717 0 0.99s-0.768 0.274-1.061 0c-0.293-0.273-0.293-0.717 0-0.99s0.768-0.273 1.061 0z"></path>
</symbol>
<symbol id="icon-smartphone1" viewBox="0 0 15 24">
<path fill="#2196f3" style="fill: var(--color1, #2196f3)" d="M12.75 0h-10.5c-1.241 0-2.25 1.009-2.25 2.25v19.5c0 1.241 1.009 2.25 2.25 2.25h10.5c1.241 0 2.25-1.009 2.25-2.25v-19.5c0-1.241-1.009-2.25-2.25-2.25zM2.25 1.5h10.5c0.414 0 0.75 0.336 0.75 0.75v15.75h-12v-15.75c0-0.414 0.336-0.75 0.75-0.75zM12.75 22.5h-10.5c-0.414 0-0.75-0.336-0.75-0.75v-2.25h12v2.25c0 0.414-0.336 0.75-0.75 0.75z"></path>
<path fill="#2196f3" style="fill: var(--color1, #2196f3)" d="M3.53 20.608c0.293 0.274 0.293 0.717 0 0.99s-0.768 0.274-1.061 0c-0.293-0.273-0.293-0.717 0-0.99s0.768-0.273 1.061 0z"></path>
</symbol>
<symbol id="icon-smartphone2" viewBox="0 0 15 24">
<path fill="#757575" style="fill: var(--color3, #757575)" d="M12.75 0h-10.5c-1.241 0-2.25 1.009-2.25 2.25v19.5c0 1.241 1.009 2.25 2.25 2.25h10.5c1.241 0 2.25-1.009 2.25-2.25v-19.5c0-1.241-1.009-2.25-2.25-2.25zM2.25 1.5h10.5c0.414 0 0.75 0.336 0.75 0.75v15.75h-12v-15.75c0-0.414 0.336-0.75 0.75-0.75zM12.75 22.5h-10.5c-0.414 0-0.75-0.336-0.75-0.75v-2.25h12v2.25c0 0.414-0.336 0.75-0.75 0.75z"></path>
<path fill="#757575" style="fill: var(--color3, #757575)" d="M3.53 20.608c0.293 0.274 0.293 0.717 0 0.99s-0.768 0.274-1.061 0c-0.293-0.273-0.293-0.717 0-0.99s0.768-0.273 1.061 0z"></path>
</symbol>
<symbol id="icon-e-mail" viewBox="0 0 32 24">
<path fill="#fff" style="fill: var(--color2, #fff)" d="M29 0h-26c-1.654 0-3 1.346-3 3v18c0 1.654 1.346 3 3 3h26c1.654 0 3-1.346 3-3v-18c0-1.654-1.346-3-3-3zM29 2c0.136 0 0.265 0.028 0.383 0.077l-13.383 11.599-13.383-11.599c0.118-0.049 0.247-0.077 0.383-0.077h26zM29 22h-26c-0.552 0-1-0.448-1-1v-16.81l13.345 11.565c0.189 0.163 0.422 0.244 0.655 0.244s0.467-0.081 0.655-0.244l13.345-11.565v16.81c0 0.552-0.448 1-1 1z"></path>
</symbol>
<symbol id="icon-e-mail1" viewBox="0 0 32 24">
<path fill="#2196f3" style="fill: var(--color1, #2196f3)" d="M29 0h-26c-1.654 0-3 1.346-3 3v18c0 1.654 1.346 3 3 3h26c1.654 0 3-1.346 3-3v-18c0-1.654-1.346-3-3-3zM29 2c0.136 0 0.265 0.028 0.383 0.077l-13.383 11.599-13.383-11.599c0.118-0.049 0.247-0.077 0.383-0.077h26zM29 22h-26c-0.552 0-1-0.448-1-1v-16.81l13.345 11.565c0.189 0.163 0.422 0.244 0.655 0.244s0.467-0.081 0.655-0.244l13.345-11.565v16.81c0 0.552-0.448 1-1 1z"></path>
</symbol>
<symbol id="icon-e-mail2" viewBox="0 0 32 24">
<path fill="#757575" style="fill: var(--color3, #757575)" d="M29 0h-26c-1.654 0-3 1.346-3 3v18c0 1.654 1.346 3 3 3h26c1.654 0 3-1.346 3-3v-18c0-1.654-1.346-3-3-3zM29 2c0.136 0 0.265 0.028 0.383 0.077l-13.383 11.599-13.383-11.599c0.118-0.049 0.247-0.077 0.383-0.077h26zM29 22h-26c-0.552 0-1-0.448-1-1v-16.81l13.345 11.565c0.189 0.163 0.422 0.244 0.655 0.244s0.467-0.081 0.655-0.244l13.345-11.565v16.81c0 0.552-0.448 1-1 1z"></path>
</symbol>
<symbol id="icon-icon-facebook" viewBox="0 0 24 24">
<path fill="#fff" style="fill: var(--color2, #fff)" d="M15.997 3.985h2.191v-3.816c-0.378-0.052-1.678-0.169-3.192-0.169-3.159 0-5.323 1.987-5.323 5.639v3.361h-3.486v4.266h3.486v10.734h4.274v-10.733h3.345l0.531-4.266h-3.877v-2.939c0.001-1.233 0.333-2.077 2.051-2.077z"></path>
</symbol>
<symbol id="icon-icon-facebook1" viewBox="0 0 24 24">
<path fill="#2196f3" style="fill: var(--color1, #2196f3)" d="M15.997 3.985h2.191v-3.816c-0.378-0.052-1.678-0.169-3.192-0.169-3.159 0-5.323 1.987-5.323 5.639v3.361h-3.486v4.266h3.486v10.734h4.274v-10.733h3.345l0.531-4.266h-3.877v-2.939c0.001-1.233 0.333-2.077 2.051-2.077z"></path>
</symbol>
<symbol id="icon-icon-facebook2" viewBox="0 0 24 24">
<path fill="#afb1b8" style="fill: var(--color4, #afb1b8)" d="M15.997 3.985h2.191v-3.816c-0.378-0.052-1.678-0.169-3.192-0.169-3.159 0-5.323 1.987-5.323 5.639v3.361h-3.486v4.266h3.486v10.734h4.274v-10.733h3.345l0.531-4.266h-3.877v-2.939c0.001-1.233 0.333-2.077 2.051-2.077z"></path>
</symbol>
<symbol id="icon-icon-instagram" viewBox="0 0 24 24">
<path fill="#fff" style="fill: var(--color2, #fff)" d="M23.977 7.056c-0.056-1.275-0.263-2.152-0.558-2.911-0.305-0.806-0.774-1.528-1.388-2.128-0.6-0.61-1.327-1.083-2.124-1.383-0.764-0.296-1.636-0.502-2.912-0.558-1.285-0.061-1.693-0.075-4.951-0.075s-3.666 0.014-4.946 0.071c-1.275 0.056-2.152 0.263-2.911 0.558-0.806 0.305-1.529 0.773-2.129 1.388-0.61 0.6-1.083 1.327-1.383 2.124-0.296 0.764-0.502 1.637-0.558 2.911-0.061 1.285-0.075 1.693-0.075 4.951s0.014 3.666 0.071 4.946c0.056 1.275 0.263 2.152 0.558 2.912 0.305 0.806 0.779 1.529 1.387 2.129 0.6 0.61 1.327 1.083 2.124 1.383 0.764 0.296 1.636 0.502 2.911 0.558 1.279 0.056 1.688 0.070 4.946 0.070s3.666-0.014 4.946-0.071c1.275-0.056 2.152-0.262 2.912-0.558 1.613-0.624 2.888-1.899 3.512-3.511 0.296-0.764 0.502-1.637 0.558-2.912 0.056-1.28 0.070-1.688 0.070-4.946s-0.005-3.666-0.061-4.946zM21.815 16.855c-0.052 1.172-0.248 1.805-0.413 2.227-0.403 1.046-1.233 1.875-2.278 2.279-0.422 0.164-1.060 0.361-2.227 0.413-1.266 0.056-1.645 0.071-4.848 0.071s-3.586-0.014-4.848-0.071c-1.172-0.052-1.805-0.248-2.227-0.413-0.521-0.192-0.994-0.497-1.378-0.895-0.398-0.389-0.704-0.858-0.896-1.379-0.164-0.422-0.361-1.060-0.412-2.227-0.056-1.266-0.071-1.645-0.071-4.848s0.014-3.587 0.071-4.848c0.052-1.172 0.248-1.805 0.412-2.227 0.192-0.521 0.497-0.994 0.9-1.378 0.389-0.398 0.858-0.704 1.378-0.896 0.422-0.164 1.060-0.361 2.227-0.412 1.266-0.056 1.646-0.071 4.848-0.071 3.207 0 3.586 0.014 4.848 0.071 1.172 0.052 1.805 0.248 2.227 0.412 0.52 0.192 0.994 0.497 1.379 0.896 0.398 0.389 0.703 0.858 0.895 1.378 0.164 0.422 0.361 1.060 0.413 2.227 0.056 1.266 0.070 1.646 0.070 4.848s-0.014 3.578-0.070 4.843z"></path>
<path fill="#fff" style="fill: var(--color2, #fff)" d="M12.044 5.837c-3.404 0-6.165 2.761-6.165 6.165s2.761 6.165 6.165 6.165c3.404 0 6.165-2.761 6.165-6.165s-2.762-6.165-6.165-6.165zM12.044 16.001c-2.208 0-3.999-1.791-3.999-3.999s1.791-3.999 3.999-3.999c2.208 0 3.999 1.791 3.999 3.999s-1.791 3.999-3.999 3.999z"></path>
<path fill="#fff" style="fill: var(--color2, #fff)" d="M19.893 5.594c0 0.795-0.644 1.439-1.439 1.439s-1.439-0.644-1.439-1.439c0-0.795 0.644-1.439 1.439-1.439s1.439 0.644 1.439 1.439z"></path>
</symbol>
<symbol id="icon-icon-instagram1" viewBox="0 0 24 24">
<path fill="#2196f3" style="fill: var(--color1, #2196f3)" d="M23.977 7.056c-0.056-1.275-0.263-2.152-0.558-2.911-0.305-0.806-0.774-1.528-1.388-2.128-0.6-0.61-1.327-1.083-2.124-1.383-0.764-0.296-1.636-0.502-2.912-0.558-1.285-0.061-1.693-0.075-4.951-0.075s-3.666 0.014-4.946 0.071c-1.275 0.056-2.152 0.263-2.911 0.558-0.806 0.305-1.529 0.773-2.129 1.388-0.61 0.6-1.083 1.327-1.383 2.124-0.296 0.764-0.502 1.637-0.558 2.911-0.061 1.285-0.075 1.693-0.075 4.951s0.014 3.666 0.071 4.946c0.056 1.275 0.263 2.152 0.558 2.912 0.305 0.806 0.779 1.529 1.387 2.129 0.6 0.61 1.327 1.083 2.124 1.383 0.764 0.296 1.636 0.502 2.911 0.558 1.279 0.056 1.688 0.070 4.946 0.070s3.666-0.014 4.946-0.071c1.275-0.056 2.152-0.262 2.912-0.558 1.613-0.624 2.888-1.899 3.512-3.511 0.296-0.764 0.502-1.637 0.558-2.912 0.056-1.28 0.070-1.688 0.070-4.946s-0.005-3.666-0.061-4.946zM21.815 16.855c-0.052 1.172-0.248 1.805-0.413 2.227-0.403 1.046-1.233 1.875-2.278 2.279-0.422 0.164-1.060 0.361-2.227 0.413-1.266 0.056-1.645 0.071-4.848 0.071s-3.586-0.014-4.848-0.071c-1.172-0.052-1.805-0.248-2.227-0.413-0.521-0.192-0.994-0.497-1.378-0.895-0.398-0.389-0.704-0.858-0.896-1.379-0.164-0.422-0.361-1.060-0.412-2.227-0.056-1.266-0.071-1.645-0.071-4.848s0.014-3.587 0.071-4.848c0.052-1.172 0.248-1.805 0.412-2.227 0.192-0.521 0.497-0.994 0.9-1.378 0.389-0.398 0.858-0.704 1.378-0.896 0.422-0.164 1.060-0.361 2.227-0.412 1.266-0.056 1.646-0.071 4.848-0.071 3.207 0 3.586 0.014 4.848 0.071 1.172 0.052 1.805 0.248 2.227 0.412 0.52 0.192 0.994 0.497 1.379 0.896 0.398 0.389 0.703 0.858 0.895 1.378 0.164 0.422 0.361 1.060 0.413 2.227 0.056 1.266 0.070 1.646 0.070 4.848s-0.014 3.578-0.070 4.843z"></path>
<path fill="#2196f3" style="fill: var(--color1, #2196f3)" d="M12.044 5.837c-3.404 0-6.165 2.761-6.165 6.165s2.761 6.165 6.165 6.165c3.404 0 6.165-2.761 6.165-6.165s-2.762-6.165-6.165-6.165zM12.044 16.001c-2.208 0-3.999-1.791-3.999-3.999s1.791-3.999 3.999-3.999c2.208 0 3.999 1.791 3.999 3.999s-1.791 3.999-3.999 3.999z"></path>
<path fill="#2196f3" style="fill: var(--color1, #2196f3)" d="M19.893 5.594c0 0.795-0.644 1.439-1.439 1.439s-1.439-0.644-1.439-1.439c0-0.795 0.644-1.439 1.439-1.439s1.439 0.644 1.439 1.439z"></path>
</symbol>
<symbol id="icon-icon-instagram2" viewBox="0 0 24 24">
<path fill="#afb1b8" style="fill: var(--color4, #afb1b8)" d="M23.977 7.056c-0.056-1.275-0.263-2.152-0.558-2.911-0.305-0.806-0.774-1.528-1.388-2.128-0.6-0.61-1.327-1.083-2.124-1.383-0.764-0.296-1.636-0.502-2.912-0.558-1.285-0.061-1.693-0.075-4.951-0.075s-3.666 0.014-4.946 0.071c-1.275 0.056-2.152 0.263-2.911 0.558-0.806 0.305-1.529 0.773-2.129 1.388-0.61 0.6-1.083 1.327-1.383 2.124-0.296 0.764-0.502 1.637-0.558 2.911-0.061 1.285-0.075 1.693-0.075 4.951s0.014 3.666 0.071 4.946c0.056 1.275 0.263 2.152 0.558 2.912 0.305 0.806 0.779 1.529 1.387 2.129 0.6 0.61 1.327 1.083 2.124 1.383 0.764 0.296 1.636 0.502 2.911 0.558 1.279 0.056 1.688 0.070 4.946 0.070s3.666-0.014 4.946-0.071c1.275-0.056 2.152-0.262 2.912-0.558 1.613-0.624 2.888-1.899 3.512-3.511 0.296-0.764 0.502-1.637 0.558-2.912 0.056-1.28 0.070-1.688 0.070-4.946s-0.005-3.666-0.061-4.946zM21.815 16.855c-0.052 1.172-0.248 1.805-0.413 2.227-0.403 1.046-1.233 1.875-2.278 2.279-0.422 0.164-1.060 0.361-2.227 0.413-1.266 0.056-1.645 0.071-4.848 0.071s-3.586-0.014-4.848-0.071c-1.172-0.052-1.805-0.248-2.227-0.413-0.521-0.192-0.994-0.497-1.378-0.895-0.398-0.389-0.704-0.858-0.896-1.379-0.164-0.422-0.361-1.060-0.412-2.227-0.056-1.266-0.071-1.645-0.071-4.848s0.014-3.587 0.071-4.848c0.052-1.172 0.248-1.805 0.412-2.227 0.192-0.521 0.497-0.994 0.9-1.378 0.389-0.398 0.858-0.704 1.378-0.896 0.422-0.164 1.060-0.361 2.227-0.412 1.266-0.056 1.646-0.071 4.848-0.071 3.207 0 3.586 0.014 4.848 0.071 1.172 0.052 1.805 0.248 2.227 0.412 0.52 0.192 0.994 0.497 1.379 0.896 0.398 0.389 0.703 0.858 0.895 1.378 0.164 0.422 0.361 1.060 0.413 2.227 0.056 1.266 0.070 1.646 0.070 4.848s-0.014 3.578-0.070 4.843z"></path>
<path fill="#afb1b8" style="fill: var(--color4, #afb1b8)" d="M12.044 5.837c-3.404 0-6.165 2.761-6.165 6.165s2.761 6.165 6.165 6.165c3.404 0 6.165-2.761 6.165-6.165s-2.762-6.165-6.165-6.165zM12.044 16.001c-2.208 0-3.999-1.791-3.999-3.999s1.791-3.999 3.999-3.999c2.208 0 3.999 1.791 3.999 3.999s-1.791 3.999-3.999 3.999z"></path>
<path fill="#afb1b8" style="fill: var(--color4, #afb1b8)" d="M19.893 5.594c0 0.795-0.644 1.439-1.439 1.439s-1.439-0.644-1.439-1.439c0-0.795 0.644-1.439 1.439-1.439s1.439 0.644 1.439 1.439z"></path>
</symbol>
<symbol id="icon-icon-linkedin" viewBox="0 0 24 24">
<path fill="#fff" style="fill: var(--color2, #fff)" d="M23.994 24v-0.001h0.006v-8.802c0-4.306-0.927-7.623-5.961-7.623-2.42 0-4.044 1.328-4.707 2.587h-0.070v-2.185h-4.773v16.023h4.97v-7.934c0-2.089 0.396-4.109 2.983-4.109 2.549 0 2.587 2.384 2.587 4.243v7.801h4.965z"></path>
<path fill="#fff" style="fill: var(--color2, #fff)" d="M0.396 7.977h4.976v16.023h-4.976v-16.023z"></path>
<path fill="#fff" style="fill: var(--color2, #fff)" d="M2.882 0c-1.591 0-2.882 1.291-2.882 2.882s1.291 2.909 2.882 2.909c1.591 0 2.882-1.318 2.882-2.909s-1.292-2.882-2.882-2.882v0z"></path>
</symbol>
<symbol id="icon-icon-linkedin1" viewBox="0 0 24 24">
<path fill="#2196f3" style="fill: var(--color1, #2196f3)" d="M23.994 24v-0.001h0.006v-8.802c0-4.306-0.927-7.623-5.961-7.623-2.42 0-4.044 1.328-4.707 2.587h-0.070v-2.185h-4.773v16.023h4.97v-7.934c0-2.089 0.396-4.109 2.983-4.109 2.549 0 2.587 2.384 2.587 4.243v7.801h4.965z"></path>
<path fill="#2196f3" style="fill: var(--color1, #2196f3)" d="M0.396 7.977h4.976v16.023h-4.976v-16.023z"></path>
<path fill="#2196f3" style="fill: var(--color1, #2196f3)" d="M2.882 0c-1.591 0-2.882 1.291-2.882 2.882s1.291 2.909 2.882 2.909c1.591 0 2.882-1.318 2.882-2.909s-1.292-2.882-2.882-2.882v0z"></path>
</symbol>
<symbol id="icon-icon-linkedin2" viewBox="0 0 24 24">
<path fill="#afb1b8" style="fill: var(--color4, #afb1b8)" d="M23.994 24v-0.001h0.006v-8.802c0-4.306-0.927-7.623-5.961-7.623-2.42 0-4.044 1.328-4.707 2.587h-0.070v-2.185h-4.773v16.023h4.97v-7.934c0-2.089 0.396-4.109 2.983-4.109 2.549 0 2.587 2.384 2.587 4.243v7.801h4.965z"></path>
<path fill="#afb1b8" style="fill: var(--color4, #afb1b8)" d="M0.396 7.977h4.976v16.023h-4.976v-16.023z"></path>
<path fill="#afb1b8" style="fill: var(--color4, #afb1b8)" d="M2.882 0c-1.591 0-2.882 1.291-2.882 2.882s1.291 2.909 2.882 2.909c1.591 0 2.882-1.318 2.882-2.909s-1.292-2.882-2.882-2.882v0z"></path>
</symbol>
<symbol id="icon-icon-twitter" viewBox="0 0 24 24">
<path fill="#fff" style="fill: var(--color2, #fff)" d="M24 4.559c-0.893 0.391-1.843 0.651-2.835 0.777 1.020-0.609 1.799-1.566 2.165-2.72-0.951 0.567-2.001 0.967-3.12 1.191-0.903-0.962-2.19-1.557-3.594-1.557-2.724 0-4.917 2.211-4.917 4.921 0 0.39 0.033 0.765 0.114 1.122-4.090-0.2-7.71-2.16-10.142-5.147-0.424 0.737-0.674 1.58-0.674 2.487 0 1.704 0.877 3.215 2.186 4.089-0.791-0.015-1.566-0.245-2.223-0.606 0 0.015 0 0.035 0 0.054 0 2.391 1.705 4.377 3.942 4.834-0.401 0.11-0.837 0.162-1.29 0.162-0.315 0-0.633-0.018-0.931-0.084 0.637 1.948 2.447 3.381 4.597 3.428-1.674 1.309-3.8 2.098-6.101 2.098-0.403 0-0.79-0.018-1.177-0.067 2.18 1.405 4.762 2.208 7.548 2.208 9.054 0 14.004-7.5 14.004-14.001 0-0.217-0.008-0.428-0.018-0.636 0.976-0.693 1.797-1.558 2.466-2.554z"></path>
</symbol>
<symbol id="icon-icon-twitter1" viewBox="0 0 24 24">
<path fill="#2196f3" style="fill: var(--color1, #2196f3)" d="M24 4.559c-0.893 0.391-1.843 0.651-2.835 0.777 1.020-0.609 1.799-1.566 2.165-2.72-0.951 0.567-2.001 0.967-3.12 1.191-0.903-0.962-2.19-1.557-3.594-1.557-2.724 0-4.917 2.211-4.917 4.921 0 0.39 0.033 0.765 0.114 1.122-4.090-0.2-7.71-2.16-10.142-5.147-0.424 0.737-0.674 1.58-0.674 2.487 0 1.704 0.877 3.215 2.186 4.089-0.791-0.015-1.566-0.245-2.223-0.606 0 0.015 0 0.035 0 0.054 0 2.391 1.705 4.377 3.942 4.834-0.401 0.11-0.837 0.162-1.29 0.162-0.315 0-0.633-0.018-0.931-0.084 0.637 1.948 2.447 3.381 4.597 3.428-1.674 1.309-3.8 2.098-6.101 2.098-0.403 0-0.79-0.018-1.177-0.067 2.18 1.405 4.762 2.208 7.548 2.208 9.054 0 14.004-7.5 14.004-14.001 0-0.217-0.008-0.428-0.018-0.636 0.976-0.693 1.797-1.558 2.466-2.554z"></path>
</symbol>
<symbol id="icon-icon-twitter2" viewBox="0 0 24 24">
<path fill="#afb1b8" style="fill: var(--color4, #afb1b8)" d="M24 4.559c-0.893 0.391-1.843 0.651-2.835 0.777 1.020-0.609 1.799-1.566 2.165-2.72-0.951 0.567-2.001 0.967-3.12 1.191-0.903-0.962-2.19-1.557-3.594-1.557-2.724 0-4.917 2.211-4.917 4.921 0 0.39 0.033 0.765 0.114 1.122-4.090-0.2-7.71-2.16-10.142-5.147-0.424 0.737-0.674 1.58-0.674 2.487 0 1.704 0.877 3.215 2.186 4.089-0.791-0.015-1.566-0.245-2.223-0.606 0 0.015 0 0.035 0 0.054 0 2.391 1.705 4.377 3.942 4.834-0.401 0.11-0.837 0.162-1.29 0.162-0.315 0-0.633-0.018-0.931-0.084 0.637 1.948 2.447 3.381 4.597 3.428-1.674 1.309-3.8 2.098-6.101 2.098-0.403 0-0.79-0.018-1.177-0.067 2.18 1.405 4.762 2.208 7.548 2.208 9.054 0 14.004-7.5 14.004-14.001 0-0.217-0.008-0.428-0.018-0.636 0.976-0.693 1.797-1.558 2.466-2.554z"></path>
</symbol>
<symbol id="icon-Client1b_logo" viewBox="0 0 21 24">
<path fill="#2196f3" style="fill: var(--color1, #2196f3)" d="M3.064 0l3.578 3.388-6.642-0.004v16.436h17.362v-6.284l3.574 3.384v-16.919h-17.872zM17.205 13.138l-10.146-9.605h10.146v9.605zM14.054 17.416h-11.307v-11.054h0.799v10.306h10.508v0.748zM5.417 22.008l-0.418 0.86-0.418-0.86h-0.35l0.61 1.147v0.668h0.317v-0.668l0.608-1.147h-0.349zM5.942 23.823l0.147-0.423h0.703l0.148 0.423h0.329l-0.687-1.815h-0.283l-0.686 1.815h0.328zM6.441 22.393l0.263 0.753h-0.526l0.263-0.753zM8.104 23.103c-0.046 0.070-0.069 0.147-0.069 0.231 0 0.153 0.054 0.277 0.161 0.373s0.252 0.142 0.431 0.142 0.334-0.049 0.464-0.146l0.102 0.121h0.352l-0.267-0.315c0.105-0.143 0.157-0.326 0.157-0.55h-0.263c0 0.122-0.025 0.233-0.076 0.333l-0.35-0.414 0.123-0.090c0.087-0.063 0.15-0.126 0.188-0.189s0.057-0.134 0.057-0.209c0-0.115-0.042-0.211-0.127-0.288s-0.192-0.117-0.324-0.117c-0.146 0-0.263 0.042-0.349 0.125s-0.13 0.195-0.13 0.337c0 0.058 0.014 0.118 0.041 0.181s0.078 0.138 0.148 0.227c-0.135 0.096-0.225 0.18-0.271 0.251zM8.923 23.504c-0.089 0.068-0.184 0.102-0.287 0.102-0.091 0-0.163-0.026-0.217-0.079s-0.081-0.121-0.081-0.204c0-0.097 0.050-0.184 0.15-0.259l0.039-0.027 0.396 0.467zM8.598 22.7c-0.086-0.106-0.128-0.193-0.128-0.263 0-0.061 0.017-0.111 0.052-0.151s0.082-0.060 0.141-0.060c0.055 0 0.1 0.017 0.136 0.051s0.054 0.074 0.054 0.121c0 0.071-0.026 0.13-0.077 0.176l-0.039 0.031-0.138 0.095zM11.552 23.686c0.125-0.109 0.196-0.26 0.214-0.454h-0.314c-0.017 0.13-0.056 0.222-0.118 0.278s-0.155 0.084-0.279 0.084c-0.135 0-0.239-0.052-0.309-0.155s-0.105-0.253-0.105-0.449v-0.161c0.002-0.194 0.039-0.34 0.112-0.44s0.18-0.151 0.317-0.151c0.118 0 0.207 0.029 0.268 0.087s0.1 0.151 0.115 0.282h0.314c-0.020-0.199-0.091-0.352-0.213-0.461s-0.283-0.163-0.484-0.163c-0.149 0-0.28 0.035-0.394 0.106s-0.2 0.171-0.261 0.302c-0.061 0.131-0.091 0.281-0.091 0.453v0.17c0.002 0.167 0.034 0.314 0.093 0.44s0.145 0.224 0.254 0.293c0.111 0.068 0.238 0.102 0.383 0.102 0.207 0 0.373-0.054 0.497-0.162zM13.406 23.432c0.062-0.135 0.092-0.291 0.092-0.469v-0.101c-0.001-0.177-0.032-0.332-0.095-0.465s-0.151-0.236-0.266-0.307c-0.114-0.071-0.245-0.107-0.393-0.107s-0.279 0.036-0.394 0.108c-0.114 0.071-0.202 0.175-0.266 0.31s-0.093 0.292-0.093 0.469v0.102c0.001 0.174 0.032 0.327 0.095 0.46s0.152 0.236 0.267 0.308c0.115 0.071 0.247 0.107 0.394 0.107 0.149 0 0.28-0.036 0.394-0.107s0.203-0.175 0.264-0.309zM13.068 22.406c0.076 0.107 0.115 0.261 0.115 0.463v0.095c0 0.204-0.038 0.36-0.113 0.466s-0.182 0.16-0.322 0.16c-0.138 0-0.246-0.054-0.324-0.163s-0.116-0.263-0.116-0.463v-0.105c0.002-0.195 0.041-0.346 0.117-0.453s0.184-0.161 0.32-0.161c0.14 0 0.247 0.054 0.323 0.161z"></path>
</symbol>
<symbol id="icon-Client1_logo" viewBox="0 0 21 24">
<path fill="#afb1b8" style="fill: var(--color4, #afb1b8)" d="M3.064 0l3.578 3.388-6.642-0.004v16.436h17.362v-6.284l3.574 3.384v-16.919h-17.872zM17.205 13.138l-10.146-9.605h10.146v9.605zM14.054 17.416h-11.307v-11.054h0.799v10.306h10.508v0.748zM5.417 22.008l-0.418 0.86-0.418-0.86h-0.35l0.61 1.147v0.668h0.317v-0.668l0.608-1.147h-0.349zM5.942 23.823l0.147-0.423h0.703l0.148 0.423h0.329l-0.687-1.815h-0.283l-0.686 1.815h0.328zM6.441 22.393l0.263 0.753h-0.526l0.263-0.753zM8.104 23.103c-0.046 0.070-0.069 0.147-0.069 0.231 0 0.153 0.054 0.277 0.161 0.373s0.252 0.142 0.431 0.142 0.334-0.049 0.464-0.146l0.102 0.121h0.352l-0.267-0.315c0.105-0.143 0.157-0.326 0.157-0.55h-0.263c0 0.122-0.025 0.233-0.076 0.333l-0.35-0.414 0.123-0.090c0.087-0.063 0.15-0.126 0.188-0.189s0.057-0.134 0.057-0.209c0-0.115-0.042-0.211-0.127-0.288s-0.192-0.117-0.324-0.117c-0.146 0-0.263 0.042-0.349 0.125s-0.13 0.195-0.13 0.337c0 0.058 0.014 0.118 0.041 0.181s0.078 0.138 0.148 0.227c-0.135 0.096-0.225 0.18-0.271 0.251zM8.923 23.504c-0.089 0.068-0.184 0.102-0.287 0.102-0.091 0-0.163-0.026-0.217-0.079s-0.081-0.121-0.081-0.204c0-0.097 0.050-0.184 0.15-0.259l0.039-0.027 0.396 0.467zM8.598 22.7c-0.086-0.106-0.128-0.193-0.128-0.263 0-0.061 0.017-0.111 0.052-0.151s0.082-0.060 0.141-0.060c0.055 0 0.1 0.017 0.136 0.051s0.054 0.074 0.054 0.121c0 0.071-0.026 0.13-0.077 0.176l-0.039 0.031-0.138 0.095zM11.552 23.686c0.125-0.109 0.196-0.26 0.214-0.454h-0.314c-0.017 0.13-0.056 0.222-0.118 0.278s-0.155 0.084-0.279 0.084c-0.135 0-0.239-0.052-0.309-0.155s-0.105-0.253-0.105-0.449v-0.161c0.002-0.194 0.039-0.34 0.112-0.44s0.18-0.151 0.317-0.151c0.118 0 0.207 0.029 0.268 0.087s0.1 0.151 0.115 0.282h0.314c-0.020-0.199-0.091-0.352-0.213-0.461s-0.283-0.163-0.484-0.163c-0.149 0-0.28 0.035-0.394 0.106s-0.2 0.171-0.261 0.302c-0.061 0.131-0.091 0.281-0.091 0.453v0.17c0.002 0.167 0.034 0.314 0.093 0.44s0.145 0.224 0.254 0.293c0.111 0.068 0.238 0.102 0.383 0.102 0.207 0 0.373-0.054 0.497-0.162zM13.406 23.432c0.062-0.135 0.092-0.291 0.092-0.469v-0.101c-0.001-0.177-0.032-0.332-0.095-0.465s-0.151-0.236-0.266-0.307c-0.114-0.071-0.245-0.107-0.393-0.107s-0.279 0.036-0.394 0.108c-0.114 0.071-0.202 0.175-0.266 0.31s-0.093 0.292-0.093 0.469v0.102c0.001 0.174 0.032 0.327 0.095 0.46s0.152 0.236 0.267 0.308c0.115 0.071 0.247 0.107 0.394 0.107 0.149 0 0.28-0.036 0.394-0.107s0.203-0.175 0.264-0.309zM13.068 22.406c0.076 0.107 0.115 0.261 0.115 0.463v0.095c0 0.204-0.038 0.36-0.113 0.466s-0.182 0.16-0.322 0.16c-0.138 0-0.246-0.054-0.324-0.163s-0.116-0.263-0.116-0.463v-0.105c0.002-0.195 0.041-0.346 0.117-0.453s0.184-0.161 0.32-0.161c0.14 0 0.247 0.054 0.323 0.161z"></path>
</symbol>
<symbol id="icon-Client2b_logo" viewBox="0 0 18 24">
<path fill="#2196f3" style="fill: var(--color1, #2196f3)" d="M7.899 1.354h-0.063c-0.097-0.006-0.194-0.008-0.291-0.011v0h-0.21c-0.183 0-0.37 0.005-0.556 0.014-0.014-0.001-0.028-0.001-0.042 0-1.682 0.095-3.33 0.516-4.854 1.238l-0.2 0.096v10.219l0.467-0.158c0.41-0.141 0.846-0.268 1.298-0.385 1.221-0.314 2.476-0.48 3.736-0.496v1.343c-0.167 0.001-0.329 0.006-0.492 0.014h-0.039c-0.97 0.053-1.933 0.201-2.875 0.441-1.193 0.299-2.343 0.747-3.424 1.334v-13.106c1.123-0.655 2.332-1.147 3.593-1.461 1.106-0.286 2.244-0.432 3.386-0.437h0.197c0.236 0.006 0.466 0.016 0.682 0.033 0.569 0.040 1.134 0.13 1.687 0.269v1.322c-0.538-0.125-1.084-0.208-1.635-0.246-0.011-0.001-0.022-0.002-0.034-0.003-0.114-0.010-0.228-0.019-0.334-0.019zM10.224 2.705c0.293 0.022 0.597 0.033 0.904 0.033 1.201-0.004 2.396-0.158 3.56-0.457 1.192-0.3 2.342-0.748 3.423-1.336v12.873c-1.124 0.655-2.333 1.147-3.594 1.461-1.107 0.285-2.244 0.431-3.386 0.435-0.865 0.007-1.728-0.095-2.569-0.303v-12.956c0.198 0.046 0.403 0.088 0.611 0.123 0.341 0.058 0.701 0.1 1.051 0.126zM16.776 2.805l-0.467 0.157c-0.43 0.144-0.863 0.273-1.298 0.388-1.268 0.326-2.571 0.493-3.88 0.498-0.305 0-0.585-0.008-0.856-0.026l-0.372-0.025v10.512l0.32 0.028c0.297 0.026 0.602 0.039 0.911 0.039 1.031-0.004 2.057-0.137 3.056-0.395 0.822-0.206 1.622-0.494 2.388-0.858l0.2-0.096v-10.223z"></path>
<path fill="#2196f3" style="fill: var(--color1, #2196f3)" d="M1.263 19.483c-0.067-0.070-0.148-0.124-0.238-0.161s-0.186-0.053-0.282-0.050c-0.103-0.001-0.205 0.018-0.3 0.056-0.087 0.035-0.167 0.087-0.234 0.154s-0.117 0.147-0.151 0.235c-0.037 0.092-0.055 0.191-0.054 0.29v1.751c-0.004 0.123 0.019 0.246 0.069 0.359 0.041 0.090 0.101 0.17 0.175 0.235 0.070 0.059 0.152 0.101 0.241 0.124 0.085 0.024 0.173 0.036 0.262 0.036 0.098 0.001 0.194-0.020 0.283-0.061 0.088-0.038 0.167-0.093 0.234-0.162 0.065-0.068 0.117-0.148 0.153-0.235 0.037-0.088 0.056-0.183 0.056-0.279v-0.196h-0.458v0.156c0.001 0.053-0.008 0.106-0.027 0.156-0.015 0.037-0.038 0.071-0.067 0.099-0.028 0.023-0.061 0.040-0.096 0.050-0.031 0.010-0.063 0.016-0.096 0.016-0.041 0.005-0.082-0.001-0.12-0.018s-0.070-0.043-0.095-0.076c-0.043-0.070-0.064-0.152-0.061-0.235v-1.633c-0.003-0.091 0.016-0.18 0.056-0.262 0.024-0.037 0.057-0.066 0.097-0.085s0.084-0.026 0.127-0.020c0.039-0.001 0.079 0.007 0.114 0.024s0.066 0.043 0.090 0.075c0.051 0.067 0.078 0.15 0.076 0.235v0.151h0.453v-0.178c0.001-0.105-0.018-0.209-0.056-0.306-0.034-0.092-0.086-0.176-0.153-0.246z"></path>
<path fill="#2196f3" style="fill: var(--color1, #2196f3)" d="M3.983 19.463c-0.146-0.123-0.33-0.191-0.521-0.192-0.093 0-0.186 0.017-0.273 0.049-0.089 0.032-0.171 0.080-0.242 0.143-0.076 0.068-0.136 0.152-0.177 0.245-0.046 0.107-0.069 0.223-0.067 0.339v1.679c-0.003 0.118 0.020 0.236 0.067 0.344 0.041 0.090 0.102 0.17 0.177 0.235 0.070 0.065 0.152 0.115 0.242 0.148 0.088 0.032 0.18 0.049 0.273 0.049s0.186-0.017 0.273-0.049c0.091-0.033 0.175-0.083 0.248-0.148s0.132-0.145 0.173-0.235c0.047-0.108 0.070-0.226 0.067-0.344v-1.679c0.002-0.117-0.020-0.232-0.067-0.339-0.041-0.093-0.099-0.176-0.173-0.245zM3.769 21.727c0.004 0.045-0.002 0.090-0.018 0.132s-0.041 0.080-0.073 0.111c-0.060 0.051-0.137 0.078-0.215 0.078s-0.155-0.028-0.215-0.078c-0.032-0.031-0.057-0.069-0.073-0.111s-0.022-0.087-0.018-0.132v-1.679c-0.004-0.045 0.002-0.090 0.018-0.132s0.041-0.080 0.073-0.111c0.060-0.051 0.137-0.078 0.215-0.078s0.155 0.028 0.215 0.078c0.032 0.031 0.057 0.069 0.073 0.111s0.022 0.087 0.018 0.132v1.679z"></path>
<path fill="#2196f3" style="fill: var(--color1, #2196f3)" d="M7.554 22.477v-3.179h-0.44l-0.578 1.683h-0.008l-0.583-1.683h-0.436v3.179h0.454v-1.934h0.008l0.445 1.367h0.227l0.448-1.367h0.008v1.934h0.454z"></path>
<path fill="#2196f3" style="fill: var(--color1, #2196f3)" d="M10.135 19.52c-0.070-0.078-0.158-0.138-0.257-0.174-0.106-0.035-0.218-0.051-0.329-0.049h-0.675v3.179h0.453v-1.242h0.233c0.141 0.006 0.282-0.023 0.409-0.087 0.103-0.057 0.189-0.141 0.249-0.243 0.052-0.085 0.088-0.179 0.104-0.277 0.018-0.12 0.026-0.241 0.025-0.361 0.004-0.153-0.010-0.305-0.044-0.454-0.030-0.11-0.088-0.211-0.167-0.292zM9.901 20.49c-0.002 0.058-0.016 0.114-0.042 0.166-0.026 0.049-0.067 0.088-0.117 0.111-0.067 0.030-0.14 0.044-0.214 0.040h-0.207v-1.081h0.233c0.070-0.003 0.14 0.010 0.204 0.040 0.047 0.027 0.084 0.068 0.106 0.117 0.025 0.056 0.038 0.116 0.040 0.177 0 0.067 0 0.137 0 0.211s0.005 0.15 0 0.218h-0.005z"></path>
<path fill="#2196f3" style="fill: var(--color1, #2196f3)" d="M12.28 19.297h-0.371l-0.701 3.179h0.453l0.133-0.683h0.618l0.133 0.683h0.453l-0.718-3.179zM11.862 21.361l0.223-1.153h0.008l0.222 1.153h-0.453z"></path>
<path fill="#2196f3" style="fill: var(--color1, #2196f3)" d="M15.208 21.213h-0.008l-0.684-1.915h-0.436v3.179h0.453v-1.912h0.009l0.692 1.912h0.426v-3.179h-0.453v1.915z"></path>
<path fill="#2196f3" style="fill: var(--color1, #2196f3)" d="M17.976 19.297l-0.364 1.264h-0.009l-0.364-1.264h-0.48l0.622 1.836v1.344h0.453v-1.344l0.622-1.836h-0.48z"></path>
<path fill="#2196f3" style="fill: var(--color1, #2196f3)" d="M0 23.374h0.218v0.613h0.148v-0.613h0.217v-0.126h-0.584v0.126z"></path>
<path fill="#2196f3" style="fill: var(--color1, #2196f3)" d="M1.835 23.249l-0.286 0.738h0.158l0.061-0.168h0.294l0.063 0.168h0.161l-0.293-0.738h-0.158zM1.812 23.695l0.1-0.273 0.1 0.273h-0.201z"></path>
<path fill="#2196f3" style="fill: var(--color1, #2196f3)" d="M3.65 23.715h0.17v0.095c-0.050 0.040-0.111 0.062-0.175 0.062-0.030 0.002-0.060-0.004-0.087-0.016s-0.051-0.031-0.070-0.054c-0.039-0.056-0.058-0.124-0.055-0.192 0-0.164 0.071-0.246 0.213-0.246 0.037-0.004 0.074 0.006 0.105 0.028s0.053 0.053 0.062 0.090l0.146-0.028c-0.032-0.144-0.135-0.217-0.313-0.217-0.095-0.003-0.187 0.031-0.258 0.095-0.037 0.037-0.066 0.081-0.084 0.13s-0.026 0.102-0.022 0.154c-0.004 0.101 0.029 0.2 0.095 0.277 0.036 0.037 0.080 0.066 0.128 0.085s0.1 0.026 0.152 0.023c0.115 0.003 0.228-0.039 0.313-0.117v-0.291h-0.32v0.124z"></path>
<path fill="#2196f3" style="fill: var(--color1, #2196f3)" d="M5.503 23.249h-0.149v0.738h0.517v-0.126h-0.368v-0.613z"></path>
<path fill="#2196f3" style="fill: var(--color1, #2196f3)" d="M7.070 23.249h-0.149v0.738h0.149v-0.738z"></path>
<path fill="#2196f3" style="fill: var(--color1, #2196f3)" d="M8.601 23.742l-0.302-0.493h-0.145v0.738h0.139v-0.482l0.297 0.482h0.148v-0.738h-0.137v0.493z"></path>
<path fill="#2196f3" style="fill: var(--color1, #2196f3)" d="M9.986 23.662h0.368v-0.126h-0.368v-0.162h0.396v-0.126h-0.545v0.738h0.56v-0.126h-0.411v-0.2z"></path>
<path fill="#2196f3" style="fill: var(--color1, #2196f3)" d="M13.344 23.54h-0.291v-0.291h-0.148v0.738h0.148v-0.323h0.291v0.323h0.148v-0.738h-0.148v0.291z"></path>
<path fill="#2196f3" style="fill: var(--color1, #2196f3)" d="M14.737 23.662h0.369v-0.126h-0.369v-0.162h0.397v-0.126h-0.545v0.738h0.559v-0.126h-0.411v-0.2z"></path>
<path fill="#2196f3" style="fill: var(--color1, #2196f3)" d="M16.626 23.662c0.128-0.020 0.194-0.088 0.194-0.205 0.004-0.031-0.001-0.063-0.014-0.092s-0.033-0.054-0.059-0.072c-0.067-0.034-0.141-0.049-0.216-0.043h-0.313v0.738h0.148v-0.309h0.029c0.032-0.002 0.063 0.004 0.092 0.016 0.022 0.013 0.040 0.032 0.053 0.054l0.161 0.235h0.177l-0.090-0.144c-0.040-0.071-0.096-0.132-0.163-0.177zM16.477 23.56h-0.11v-0.185h0.117c0.051-0.004 0.102 0.002 0.151 0.018 0.011 0.010 0.019 0.021 0.025 0.035s0.008 0.028 0.008 0.042c-0.001 0.014-0.005 0.029-0.011 0.041s-0.016 0.024-0.028 0.032c-0.049 0.015-0.1 0.021-0.151 0.018z"></path>
<path fill="#2196f3" style="fill: var(--color1, #2196f3)" d="M18.051 23.662h0.368v-0.126h-0.368v-0.162h0.397v-0.126h-0.546v0.738h0.56v-0.126h-0.411v-0.2z"></path>
</symbol>
<symbol id="icon-Client2_logo" viewBox="0 0 18 24">
<path fill="#afb1b8" style="fill: var(--color4, #afb1b8)" d="M7.899 1.354h-0.063c-0.097-0.006-0.194-0.008-0.291-0.011v0h-0.21c-0.183 0-0.37 0.005-0.556 0.014-0.014-0.001-0.028-0.001-0.042 0-1.682 0.095-3.33 0.516-4.854 1.238l-0.2 0.096v10.219l0.467-0.158c0.41-0.141 0.846-0.268 1.298-0.385 1.221-0.314 2.476-0.48 3.736-0.496v1.343c-0.167 0.001-0.329 0.006-0.492 0.014h-0.039c-0.97 0.053-1.933 0.201-2.875 0.441-1.193 0.299-2.343 0.747-3.424 1.334v-13.106c1.123-0.655 2.332-1.147 3.593-1.461 1.106-0.286 2.244-0.432 3.386-0.437h0.197c0.236 0.006 0.466 0.016 0.682 0.033 0.569 0.040 1.134 0.13 1.687 0.269v1.322c-0.538-0.125-1.084-0.208-1.635-0.246-0.011-0.001-0.022-0.002-0.034-0.003-0.114-0.010-0.228-0.019-0.334-0.019zM10.224 2.705c0.293 0.022 0.597 0.033 0.904 0.033 1.201-0.004 2.396-0.158 3.56-0.457 1.192-0.3 2.342-0.748 3.423-1.336v12.873c-1.124 0.655-2.333 1.147-3.594 1.461-1.107 0.285-2.244 0.431-3.386 0.435-0.865 0.007-1.728-0.095-2.569-0.303v-12.956c0.198 0.046 0.403 0.088 0.611 0.123 0.341 0.058 0.701 0.1 1.051 0.126zM16.776 2.805l-0.467 0.157c-0.43 0.144-0.863 0.273-1.298 0.388-1.268 0.326-2.571 0.493-3.88 0.498-0.305 0-0.585-0.008-0.856-0.026l-0.372-0.025v10.512l0.32 0.028c0.297 0.026 0.602 0.039 0.911 0.039 1.031-0.004 2.057-0.137 3.056-0.395 0.822-0.206 1.622-0.494 2.388-0.858l0.2-0.096v-10.223z"></path>
<path fill="#afb1b8" style="fill: var(--color4, #afb1b8)" d="M1.263 19.483c-0.067-0.070-0.148-0.124-0.238-0.161s-0.186-0.053-0.282-0.050c-0.103-0.001-0.205 0.018-0.3 0.056-0.087 0.035-0.167 0.087-0.234 0.154s-0.117 0.147-0.151 0.235c-0.037 0.092-0.055 0.191-0.054 0.29v1.751c-0.004 0.123 0.019 0.246 0.069 0.359 0.041 0.090 0.101 0.17 0.175 0.235 0.070 0.059 0.152 0.101 0.241 0.124 0.085 0.024 0.173 0.036 0.262 0.036 0.098 0.001 0.194-0.020 0.283-0.061 0.088-0.038 0.167-0.093 0.234-0.162 0.065-0.068 0.117-0.148 0.153-0.235 0.037-0.088 0.056-0.183 0.056-0.279v-0.196h-0.458v0.156c0.001 0.053-0.008 0.106-0.027 0.156-0.015 0.037-0.038 0.071-0.067 0.099-0.028 0.023-0.061 0.040-0.096 0.050-0.031 0.010-0.063 0.016-0.096 0.016-0.041 0.005-0.082-0.001-0.12-0.018s-0.070-0.043-0.095-0.076c-0.043-0.070-0.064-0.152-0.061-0.235v-1.633c-0.003-0.091 0.016-0.18 0.056-0.262 0.024-0.037 0.057-0.066 0.097-0.085s0.084-0.026 0.127-0.020c0.039-0.001 0.079 0.007 0.114 0.024s0.066 0.043 0.090 0.075c0.051 0.067 0.078 0.15 0.076 0.235v0.151h0.453v-0.178c0.001-0.105-0.018-0.209-0.056-0.306-0.034-0.092-0.086-0.176-0.153-0.246z"></path>
<path fill="#afb1b8" style="fill: var(--color4, #afb1b8)" d="M3.983 19.463c-0.146-0.123-0.33-0.191-0.521-0.192-0.093 0-0.186 0.017-0.273 0.049-0.089 0.032-0.171 0.080-0.242 0.143-0.076 0.068-0.136 0.152-0.177 0.245-0.046 0.107-0.069 0.223-0.067 0.339v1.679c-0.003 0.118 0.020 0.236 0.067 0.344 0.041 0.090 0.102 0.17 0.177 0.235 0.070 0.065 0.152 0.115 0.242 0.148 0.088 0.032 0.18 0.049 0.273 0.049s0.186-0.017 0.273-0.049c0.091-0.033 0.175-0.083 0.248-0.148s0.132-0.145 0.173-0.235c0.047-0.108 0.070-0.226 0.067-0.344v-1.679c0.002-0.117-0.020-0.232-0.067-0.339-0.041-0.093-0.099-0.176-0.173-0.245zM3.769 21.727c0.004 0.045-0.002 0.090-0.018 0.132s-0.041 0.080-0.073 0.111c-0.060 0.051-0.137 0.078-0.215 0.078s-0.155-0.028-0.215-0.078c-0.032-0.031-0.057-0.069-0.073-0.111s-0.022-0.087-0.018-0.132v-1.679c-0.004-0.045 0.002-0.090 0.018-0.132s0.041-0.080 0.073-0.111c0.060-0.051 0.137-0.078 0.215-0.078s0.155 0.028 0.215 0.078c0.032 0.031 0.057 0.069 0.073 0.111s0.022 0.087 0.018 0.132v1.679z"></path>
<path fill="#afb1b8" style="fill: var(--color4, #afb1b8)" d="M7.554 22.477v-3.179h-0.44l-0.578 1.683h-0.008l-0.583-1.683h-0.436v3.179h0.454v-1.934h0.008l0.445 1.367h0.227l0.448-1.367h0.008v1.934h0.454z"></path>
<path fill="#afb1b8" style="fill: var(--color4, #afb1b8)" d="M10.135 19.52c-0.070-0.078-0.158-0.138-0.257-0.174-0.106-0.035-0.218-0.051-0.329-0.049h-0.675v3.179h0.453v-1.242h0.233c0.141 0.006 0.282-0.023 0.409-0.087 0.103-0.057 0.189-0.141 0.249-0.243 0.052-0.085 0.088-0.179 0.104-0.277 0.018-0.12 0.026-0.241 0.025-0.361 0.004-0.153-0.010-0.305-0.044-0.454-0.030-0.11-0.088-0.211-0.167-0.292zM9.901 20.49c-0.002 0.058-0.016 0.114-0.042 0.166-0.026 0.049-0.067 0.088-0.117 0.111-0.067 0.030-0.14 0.044-0.214 0.040h-0.207v-1.081h0.233c0.070-0.003 0.14 0.010 0.204 0.040 0.047 0.027 0.084 0.068 0.106 0.117 0.025 0.056 0.038 0.116 0.040 0.177 0 0.067 0 0.137 0 0.211s0.005 0.15 0 0.218h-0.005z"></path>
<path fill="#afb1b8" style="fill: var(--color4, #afb1b8)" d="M12.28 19.297h-0.371l-0.701 3.179h0.453l0.133-0.683h0.618l0.133 0.683h0.453l-0.718-3.179zM11.862 21.361l0.223-1.153h0.008l0.222 1.153h-0.453z"></path>
<path fill="#afb1b8" style="fill: var(--color4, #afb1b8)" d="M15.208 21.213h-0.008l-0.684-1.915h-0.436v3.179h0.453v-1.912h0.009l0.692 1.912h0.426v-3.179h-0.453v1.915z"></path>
<path fill="#afb1b8" style="fill: var(--color4, #afb1b8)" d="M17.976 19.297l-0.364 1.264h-0.009l-0.364-1.264h-0.48l0.622 1.836v1.344h0.453v-1.344l0.622-1.836h-0.48z"></path>
<path fill="#afb1b8" style="fill: var(--color4, #afb1b8)" d="M0 23.374h0.218v0.613h0.148v-0.613h0.217v-0.126h-0.584v0.126z"></path>
<path fill="#afb1b8" style="fill: var(--color4, #afb1b8)" d="M1.835 23.249l-0.286 0.738h0.158l0.061-0.168h0.294l0.063 0.168h0.161l-0.293-0.738h-0.158zM1.812 23.695l0.1-0.273 0.1 0.273h-0.201z"></path>
<path fill="#afb1b8" style="fill: var(--color4, #afb1b8)" d="M3.65 23.715h0.17v0.095c-0.050 0.040-0.111 0.062-0.175 0.062-0.030 0.002-0.060-0.004-0.087-0.016s-0.051-0.031-0.070-0.054c-0.039-0.056-0.058-0.124-0.055-0.192 0-0.164 0.071-0.246 0.213-0.246 0.037-0.004 0.074 0.006 0.105 0.028s0.053 0.053 0.062 0.090l0.146-0.028c-0.032-0.144-0.135-0.217-0.313-0.217-0.095-0.003-0.187 0.031-0.258 0.095-0.037 0.037-0.066 0.081-0.084 0.13s-0.026 0.102-0.022 0.154c-0.004 0.101 0.029 0.2 0.095 0.277 0.036 0.037 0.080 0.066 0.128 0.085s0.1 0.026 0.152 0.023c0.115 0.003 0.228-0.039 0.313-0.117v-0.291h-0.32v0.124z"></path>
<path fill="#afb1b8" style="fill: var(--color4, #afb1b8)" d="M5.503 23.249h-0.149v0.738h0.517v-0.126h-0.368v-0.613z"></path>
<path fill="#afb1b8" style="fill: var(--color4, #afb1b8)" d="M7.070 23.249h-0.149v0.738h0.149v-0.738z"></path>
<path fill="#afb1b8" style="fill: var(--color4, #afb1b8)" d="M8.601 23.742l-0.302-0.493h-0.145v0.738h0.139v-0.482l0.297 0.482h0.148v-0.738h-0.137v0.493z"></path>
<path fill="#afb1b8" style="fill: var(--color4, #afb1b8)" d="M9.986 23.662h0.368v-0.126h-0.368v-0.162h0.396v-0.126h-0.545v0.738h0.56v-0.126h-0.411v-0.2z"></path>
<path fill="#afb1b8" style="fill: var(--color4, #afb1b8)" d="M13.344 23.54h-0.291v-0.291h-0.148v0.738h0.148v-0.323h0.291v0.323h0.148v-0.738h-0.148v0.291z"></path>
<path fill="#afb1b8" style="fill: var(--color4, #afb1b8)" d="M14.737 23.662h0.369v-0.126h-0.369v-0.162h0.397v-0.126h-0.545v0.738h0.559v-0.126h-0.411v-0.2z"></path>
<path fill="#afb1b8" style="fill: var(--color4, #afb1b8)" d="M16.626 23.662c0.128-0.020 0.194-0.088 0.194-0.205 0.004-0.031-0.001-0.063-0.014-0.092s-0.033-0.054-0.059-0.072c-0.067-0.034-0.141-0.049-0.216-0.043h-0.313v0.738h0.148v-0.309h0.029c0.032-0.002 0.063 0.004 0.092 0.016 0.022 0.013 0.040 0.032 0.053 0.054l0.161 0.235h0.177l-0.090-0.144c-0.040-0.071-0.096-0.132-0.163-0.177zM16.477 23.56h-0.11v-0.185h0.117c0.051-0.004 0.102 0.002 0.151 0.018 0.011 0.010 0.019 0.021 0.025 0.035s0.008 0.028 0.008 0.042c-0.001 0.014-0.005 0.029-0.011 0.041s-0.016 0.024-0.028 0.032c-0.049 0.015-0.1 0.021-0.151 0.018z"></path>
<path fill="#afb1b8" style="fill: var(--color4, #afb1b8)" d="M18.051 23.662h0.368v-0.126h-0.368v-0.162h0.397v-0.126h-0.546v0.738h0.56v-0.126h-0.411v-0.2z"></path>
</symbol>
<symbol id="icon-Client3b_logo" viewBox="0 0 26 24">
<path fill="#2196f3" style="fill: var(--color1, #2196f3)" d="M4.232 23.487c0.009 0 0.018 0.002 0.026 0.005s0.016 0.008 0.022 0.014l0.125 0.119c-0.097 0.096-0.216 0.174-0.351 0.226-0.157 0.057-0.327 0.085-0.497 0.081-0.16 0.003-0.319-0.023-0.467-0.076-0.134-0.049-0.254-0.121-0.352-0.214-0.1-0.096-0.178-0.208-0.227-0.33-0.054-0.136-0.081-0.28-0.079-0.424-0.002-0.145 0.027-0.289 0.086-0.425 0.054-0.123 0.137-0.235 0.241-0.33 0.106-0.093 0.234-0.167 0.374-0.215 0.153-0.052 0.317-0.077 0.481-0.076 0.153-0.003 0.305 0.020 0.447 0.069 0.123 0.047 0.237 0.111 0.335 0.191l-0.104 0.127c-0.007 0.009-0.016 0.017-0.026 0.023-0.012 0.007-0.027 0.011-0.042 0.009-0.016-0.001-0.032-0.006-0.045-0.014l-0.056-0.034-0.078-0.043c-0.034-0.016-0.069-0.030-0.104-0.042-0.046-0.014-0.094-0.026-0.142-0.034-0.061-0.010-0.123-0.014-0.185-0.014-0.119-0.001-0.236 0.018-0.346 0.057-0.102 0.036-0.195 0.090-0.271 0.16-0.078 0.074-0.138 0.16-0.176 0.255-0.044 0.108-0.066 0.221-0.064 0.336-0.002 0.116 0.020 0.232 0.064 0.341 0.038 0.093 0.097 0.179 0.173 0.253 0.071 0.069 0.16 0.122 0.259 0.157 0.102 0.037 0.211 0.055 0.321 0.054 0.064 0.001 0.127-0.003 0.19-0.011 0.103-0.011 0.201-0.042 0.288-0.091 0.044-0.025 0.085-0.053 0.123-0.084 0.016-0.013 0.037-0.021 0.059-0.022z"></path>
<path fill="#2196f3" style="fill: var(--color1, #2196f3)" d="M7.831 22.888c0.002 0.144-0.027 0.286-0.084 0.421-0.051 0.122-0.131 0.234-0.235 0.327s-0.229 0.167-0.368 0.215c-0.305 0.101-0.642 0.101-0.947 0-0.138-0.049-0.263-0.122-0.366-0.215-0.104-0.095-0.184-0.207-0.237-0.33-0.112-0.273-0.112-0.571 0-0.843 0.053-0.123 0.134-0.236 0.237-0.332 0.104-0.090 0.229-0.161 0.366-0.207 0.305-0.103 0.643-0.103 0.947 0 0.138 0.049 0.264 0.122 0.368 0.215 0.103 0.094 0.183 0.205 0.235 0.326 0.058 0.136 0.086 0.279 0.084 0.424zM7.504 22.888c0.002-0.115-0.018-0.229-0.059-0.338-0.035-0.093-0.092-0.18-0.167-0.253-0.073-0.070-0.163-0.124-0.263-0.16-0.222-0.074-0.467-0.074-0.689 0-0.1 0.036-0.19 0.090-0.263 0.16-0.076 0.073-0.133 0.159-0.168 0.253-0.079 0.22-0.079 0.457 0 0.677 0.035 0.094 0.092 0.18 0.168 0.253 0.073 0.069 0.163 0.123 0.263 0.158 0.222 0.072 0.467 0.072 0.689 0 0.1-0.035 0.19-0.089 0.263-0.158 0.075-0.074 0.131-0.16 0.167-0.253 0.042-0.109 0.062-0.224 0.059-0.338z"></path>
<path fill="#2196f3" style="fill: var(--color1, #2196f3)" d="M10.286 23.243l0.033 0.076c0.012-0.027 0.023-0.051 0.036-0.076 0.012-0.025 0.025-0.050 0.041-0.074l0.796-1.257c0.016-0.022 0.030-0.035 0.045-0.039 0.021-0.006 0.043-0.008 0.065-0.007h0.235v2.045h-0.279v-1.504c0-0.019 0-0.041 0-0.064-0.002-0.023-0.002-0.047 0-0.070l-0.801 1.275c-0.010 0.019-0.026 0.035-0.047 0.047s-0.044 0.017-0.068 0.017h-0.045c-0.024 0-0.048-0.006-0.069-0.017s-0.037-0.028-0.047-0.047l-0.824-1.283c0 0.024 0 0.049 0 0.073s0 0.046 0 0.065v1.504h-0.27v-2.041h0.235c0.022-0.001 0.044 0.001 0.065 0.007 0.019 0.008 0.035 0.022 0.044 0.039l0.813 1.259c0.016 0.023 0.030 0.048 0.041 0.073z"></path>
<path fill="#2196f3" style="fill: var(--color1, #2196f3)" d="M13.282 23.141v0.766h-0.312v-2.043h0.695c0.131-0.002 0.262 0.013 0.388 0.045 0.101 0.025 0.194 0.068 0.274 0.127 0.069 0.055 0.123 0.124 0.156 0.2 0.037 0.083 0.055 0.172 0.053 0.261 0.001 0.090-0.018 0.178-0.058 0.261-0.037 0.078-0.095 0.148-0.168 0.204-0.080 0.061-0.174 0.108-0.276 0.135-0.121 0.034-0.248 0.050-0.375 0.047l-0.377-0.005zM13.282 22.922h0.377c0.082 0.001 0.163-0.010 0.241-0.031 0.064-0.019 0.124-0.049 0.174-0.088 0.047-0.037 0.083-0.084 0.106-0.135 0.026-0.055 0.038-0.113 0.037-0.172 0.004-0.057-0.007-0.114-0.031-0.166s-0.061-0.1-0.109-0.139c-0.119-0.081-0.269-0.12-0.419-0.11h-0.377v0.842z"></path>
<path fill="#2196f3" style="fill: var(--color1, #2196f3)" d="M17.47 23.91h-0.246c-0.025 0.001-0.049-0.006-0.069-0.019-0.018-0.013-0.032-0.029-0.041-0.047l-0.212-0.494h-1.064l-0.22 0.494c-0.008 0.018-0.022 0.034-0.039 0.046-0.020 0.014-0.045 0.021-0.070 0.020h-0.246l0.935-2.045h0.324l0.947 2.045zM15.928 23.151h0.879l-0.371-0.833c-0.028-0.063-0.052-0.127-0.070-0.192l-0.036 0.107c-0.011 0.032-0.023 0.062-0.034 0.087l-0.368 0.831z"></path>
<path fill="#2196f3" style="fill: var(--color1, #2196f3)" d="M18.816 21.874c0.019 0.009 0.035 0.021 0.047 0.037l1.363 1.542c0-0.024 0-0.049 0-0.072s0-0.046 0-0.068v-1.448h0.279v2.045h-0.156c-0.022 0.001-0.044-0.004-0.064-0.012-0.019-0.010-0.036-0.023-0.050-0.038l-1.362-1.541c0.001 0.023 0.001 0.047 0 0.070 0 0.023 0 0.043 0 0.062v1.458h-0.279v-2.045h0.165c0.019-0 0.038 0.003 0.056 0.009z"></path>
<path fill="#2196f3" style="fill: var(--color1, #2196f3)" d="M22.802 23.096v0.812h-0.312v-0.812l-0.862-1.232h0.279c0.024-0.001 0.048 0.005 0.067 0.018 0.017 0.013 0.031 0.029 0.042 0.046l0.539 0.795c0.022 0.034 0.041 0.065 0.056 0.095s0.028 0.058 0.039 0.087l0.040-0.088c0.015-0.032 0.033-0.063 0.053-0.093l0.531-0.8c0.011-0.016 0.025-0.031 0.041-0.043 0.018-0.014 0.042-0.021 0.067-0.020h0.282l-0.863 1.237z"></path>
<path fill="#2196f3" style="fill: var(--color1, #2196f3)" d="M10.132 18.432c0.136 0.015 0.273 0.027 0.411 0.038 2.102-0.817 3.881-2.154 5.113-3.845s1.864-3.659 1.816-5.659l-2.317-2.013c0.471 2.13 0.251 4.332-0.636 6.359s-2.406 3.8-4.387 5.12z"></path>
<path fill="#2196f3" style="fill: var(--color1, #2196f3)" d="M9.305 18.338l0.062 0.011c2.117-1.315 3.73-3.152 4.632-5.273s1.051-4.428 0.428-6.623l-3.3-2.867c1.335 2.357 1.872 4.994 1.549 7.605s-1.492 5.090-3.372 7.146z"></path>
<path fill="#2196f3" style="fill: var(--color1, #2196f3)" d="M20.496 11.329c-0.561 2.198-1.922 4.18-3.883 5.653-0.573 0.432-1.19 0.818-1.845 1.151 1.596-0.408 3.063-1.128 4.289-2.107s2.175-2.188 2.777-3.535l-1.338-1.161z"></path>
<path fill="#2196f3" style="fill: var(--color1, #2196f3)" d="M19.971 11.006l-1.905-1.656c-0.036 1.887-0.654 3.732-1.789 5.342s-2.745 2.926-4.663 3.813h0.009c0.427-0 0.855-0.022 1.279-0.066 1.793-0.636 3.377-1.647 4.61-2.944s2.078-2.839 2.459-4.489z"></path>
<path fill="#2196f3" style="fill: var(--color1, #2196f3)" d="M9.581 2.378l-2.273-1.978c-2.032 0.682-3.78 1.882-5.014 3.441s-1.898 3.407-1.905 5.299v0c0.008 2.091 0.818 4.121 2.302 5.767s3.559 2.816 5.894 3.322c2.085-2.207 3.305-4.934 3.484-7.785s-0.693-5.677-2.489-8.068z"></path>
<path fill="#2196f3" style="fill: var(--color1, #2196f3)" d="M25.223 10.701c-0.008-2.481-1.146-4.859-3.166-6.614s-4.756-2.744-7.612-2.751c-1.32-0.001-2.628 0.21-3.859 0.624l13.917 12.092c0.477-1.069 0.721-2.205 0.72-3.352z"></path>
</symbol>
<symbol id="icon-Client3_logo" viewBox="0 0 26 24">
<path fill="#afb1b8" style="fill: var(--color4, #afb1b8)" d="M4.232 23.487c0.009 0 0.018 0.002 0.026 0.005s0.016 0.008 0.022 0.014l0.125 0.119c-0.097 0.096-0.216 0.174-0.351 0.226-0.157 0.057-0.327 0.085-0.497 0.081-0.16 0.003-0.319-0.023-0.467-0.076-0.134-0.049-0.254-0.121-0.352-0.214-0.1-0.096-0.178-0.208-0.227-0.33-0.054-0.136-0.081-0.28-0.079-0.424-0.002-0.145 0.027-0.289 0.086-0.425 0.054-0.123 0.137-0.235 0.241-0.33 0.106-0.093 0.234-0.167 0.374-0.215 0.153-0.052 0.317-0.077 0.481-0.076 0.153-0.003 0.305 0.020 0.447 0.069 0.123 0.047 0.237 0.111 0.335 0.191l-0.104 0.127c-0.007 0.009-0.016 0.017-0.026 0.023-0.012 0.007-0.027 0.011-0.042 0.009-0.016-0.001-0.032-0.006-0.045-0.014l-0.056-0.034-0.078-0.043c-0.034-0.016-0.069-0.030-0.104-0.042-0.046-0.014-0.094-0.026-0.142-0.034-0.061-0.010-0.123-0.014-0.185-0.014-0.119-0.001-0.236 0.018-0.346 0.057-0.102 0.036-0.195 0.090-0.271 0.16-0.078 0.074-0.138 0.16-0.176 0.255-0.044 0.108-0.066 0.221-0.064 0.336-0.002 0.116 0.020 0.232 0.064 0.341 0.038 0.093 0.097 0.179 0.173 0.253 0.071 0.069 0.16 0.122 0.259 0.157 0.102 0.037 0.211 0.055 0.321 0.054 0.064 0.001 0.127-0.003 0.19-0.011 0.103-0.011 0.201-0.042 0.288-0.091 0.044-0.025 0.085-0.053 0.123-0.084 0.016-0.013 0.037-0.021 0.059-0.022z"></path>
<path fill="#afb1b8" style="fill: var(--color4, #afb1b8)" d="M7.831 22.888c0.002 0.144-0.027 0.286-0.084 0.421-0.051 0.122-0.131 0.234-0.235 0.327s-0.229 0.167-0.368 0.215c-0.305 0.101-0.642 0.101-0.947 0-0.138-0.049-0.263-0.122-0.366-0.215-0.104-0.095-0.184-0.207-0.237-0.33-0.112-0.273-0.112-0.571 0-0.843 0.053-0.123 0.134-0.236 0.237-0.332 0.104-0.090 0.229-0.161 0.366-0.207 0.305-0.103 0.643-0.103 0.947 0 0.138 0.049 0.264 0.122 0.368 0.215 0.103 0.094 0.183 0.205 0.235 0.326 0.058 0.136 0.086 0.279 0.084 0.424zM7.504 22.888c0.002-0.115-0.018-0.229-0.059-0.338-0.035-0.093-0.092-0.18-0.167-0.253-0.073-0.070-0.163-0.124-0.263-0.16-0.222-0.074-0.467-0.074-0.689 0-0.1 0.036-0.19 0.090-0.263 0.16-0.076 0.073-0.133 0.159-0.168 0.253-0.079 0.22-0.079 0.457 0 0.677 0.035 0.094 0.092 0.18 0.168 0.253 0.073 0.069 0.163 0.123 0.263 0.158 0.222 0.072 0.467 0.072 0.689 0 0.1-0.035 0.19-0.089 0.263-0.158 0.075-0.074 0.131-0.16 0.167-0.253 0.042-0.109 0.062-0.224 0.059-0.338z"></path>
<path fill="#afb1b8" style="fill: var(--color4, #afb1b8)" d="M10.286 23.243l0.033 0.076c0.012-0.027 0.023-0.051 0.036-0.076 0.012-0.025 0.025-0.050 0.041-0.074l0.796-1.257c0.016-0.022 0.030-0.035 0.045-0.039 0.021-0.006 0.043-0.008 0.065-0.007h0.235v2.045h-0.279v-1.504c0-0.019 0-0.041 0-0.064-0.002-0.023-0.002-0.047 0-0.070l-0.801 1.275c-0.010 0.019-0.026 0.035-0.047 0.047s-0.044 0.017-0.068 0.017h-0.045c-0.024 0-0.048-0.006-0.069-0.017s-0.037-0.028-0.047-0.047l-0.824-1.283c0 0.024 0 0.049 0 0.073s0 0.046 0 0.065v1.504h-0.27v-2.041h0.235c0.022-0.001 0.044 0.001 0.065 0.007 0.019 0.008 0.035 0.022 0.044 0.039l0.813 1.259c0.016 0.023 0.030 0.048 0.041 0.073z"></path>
<path fill="#afb1b8" style="fill: var(--color4, #afb1b8)" d="M13.282 23.141v0.766h-0.312v-2.043h0.695c0.131-0.002 0.262 0.013 0.388 0.045 0.101 0.025 0.194 0.068 0.274 0.127 0.069 0.055 0.123 0.124 0.156 0.2 0.037 0.083 0.055 0.172 0.053 0.261 0.001 0.090-0.018 0.178-0.058 0.261-0.037 0.078-0.095 0.148-0.168 0.204-0.080 0.061-0.174 0.108-0.276 0.135-0.121 0.034-0.248 0.050-0.375 0.047l-0.377-0.005zM13.282 22.922h0.377c0.082 0.001 0.163-0.010 0.241-0.031 0.064-0.019 0.124-0.049 0.174-0.088 0.047-0.037 0.083-0.084 0.106-0.135 0.026-0.055 0.038-0.113 0.037-0.172 0.004-0.057-0.007-0.114-0.031-0.166s-0.061-0.1-0.109-0.139c-0.119-0.081-0.269-0.12-0.419-0.11h-0.377v0.842z"></path>
<path fill="#afb1b8" style="fill: var(--color4, #afb1b8)" d="M17.47 23.91h-0.246c-0.025 0.001-0.049-0.006-0.069-0.019-0.018-0.013-0.032-0.029-0.041-0.047l-0.212-0.494h-1.064l-0.22 0.494c-0.008 0.018-0.022 0.034-0.039 0.046-0.020 0.014-0.045 0.021-0.070 0.020h-0.246l0.935-2.045h0.324l0.947 2.045zM15.928 23.151h0.879l-0.371-0.833c-0.028-0.063-0.052-0.127-0.070-0.192l-0.036 0.107c-0.011 0.032-0.023 0.062-0.034 0.087l-0.368 0.831z"></path>
<path fill="#afb1b8" style="fill: var(--color4, #afb1b8)" d="M18.816 21.874c0.019 0.009 0.035 0.021 0.047 0.037l1.363 1.542c0-0.024 0-0.049 0-0.072s0-0.046 0-0.068v-1.448h0.279v2.045h-0.156c-0.022 0.001-0.044-0.004-0.064-0.012-0.019-0.010-0.036-0.023-0.050-0.038l-1.362-1.541c0.001 0.023 0.001 0.047 0 0.070 0 0.023 0 0.043 0 0.062v1.458h-0.279v-2.045h0.165c0.019-0 0.038 0.003 0.056 0.009z"></path>
<path fill="#afb1b8" style="fill: var(--color4, #afb1b8)" d="M22.802 23.096v0.812h-0.312v-0.812l-0.862-1.232h0.279c0.024-0.001 0.048 0.005 0.067 0.018 0.017 0.013 0.031 0.029 0.042 0.046l0.539 0.795c0.022 0.034 0.041 0.065 0.056 0.095s0.028 0.058 0.039 0.087l0.040-0.088c0.015-0.032 0.033-0.063 0.053-0.093l0.531-0.8c0.011-0.016 0.025-0.031 0.041-0.043 0.018-0.014 0.042-0.021 0.067-0.020h0.282l-0.863 1.237z"></path>
<path fill="#afb1b8" style="fill: var(--color4, #afb1b8)" d="M10.132 18.432c0.136 0.015 0.273 0.027 0.411 0.038 2.102-0.817 3.881-2.154 5.113-3.845s1.864-3.659 1.816-5.659l-2.317-2.013c0.471 2.13 0.251 4.332-0.636 6.359s-2.406 3.8-4.387 5.12z"></path>
<path fill="#afb1b8" style="fill: var(--color4, #afb1b8)" d="M9.305 18.338l0.062 0.011c2.117-1.315 3.73-3.152 4.632-5.273s1.051-4.428 0.428-6.623l-3.3-2.867c1.335 2.357 1.872 4.994 1.549 7.605s-1.492 5.090-3.372 7.146z"></path>
<path fill="#afb1b8" style="fill: var(--color4, #afb1b8)" d="M20.496 11.329c-0.561 2.198-1.922 4.18-3.883 5.653-0.573 0.432-1.19 0.818-1.845 1.151 1.596-0.408 3.063-1.128 4.289-2.107s2.175-2.188 2.777-3.535l-1.338-1.161z"></path>
<path fill="#afb1b8" style="fill: var(--color4, #afb1b8)" d="M19.971 11.006l-1.905-1.656c-0.036 1.887-0.654 3.732-1.789 5.342s-2.745 2.926-4.663 3.813h0.009c0.427-0 0.855-0.022 1.279-0.066 1.793-0.636 3.377-1.647 4.61-2.944s2.078-2.839 2.459-4.489z"></path>
<path fill="#afb1b8" style="fill: var(--color4, #afb1b8)" d="M9.581 2.378l-2.273-1.978c-2.032 0.682-3.78 1.882-5.014 3.441s-1.898 3.407-1.905 5.299v0c0.008 2.091 0.818 4.121 2.302 5.767s3.559 2.816 5.894 3.322c2.085-2.207 3.305-4.934 3.484-7.785s-0.693-5.677-2.489-8.068z"></path>
<path fill="#afb1b8" style="fill: var(--color4, #afb1b8)" d="M25.223 10.701c-0.008-2.481-1.146-4.859-3.166-6.614s-4.756-2.744-7.612-2.751c-1.32-0.001-2.628 0.21-3.859 0.624l13.917 12.092c0.477-1.069 0.721-2.205 0.72-3.352z"></path>
</symbol>
<symbol id="icon-Client4b_logo" viewBox="0 0 49 24">
<path fill="#2196f3" style="fill: var(--color1, #2196f3)" d="M7.512 7.487h-0.002c-1.37 0-2.481 0.987-2.481 2.205v0.001c0 1.218 1.111 2.205 2.481 2.205h0.002c1.37 0 2.481-0.987 2.481-2.205v-0.001c0-1.218-1.111-2.205-2.481-2.205z"></path>
<path fill="#2196f3" style="fill: var(--color1, #2196f3)" d="M25.826 6.782c-0.004-1.691-0.762-3.313-2.107-4.509s-3.17-1.87-5.073-1.874v0c-1.904 0.003-3.729 0.676-5.075 1.873s-2.105 2.818-2.108 4.51v9.327c0 0 14.362-1.422 14.364-9.326v-0.001z"></path>
<path fill="#2196f3" style="fill: var(--color1, #2196f3)" d="M0 19.171c0.003 1.177 0.531 2.305 1.467 3.137s2.205 1.301 3.529 1.305c1.324-0.003 2.593-0.472 3.529-1.304s1.464-1.959 1.468-3.136v-6.49c0 0-9.993 0.99-9.993 6.489zM4.997 20.334c-0.259 0-0.512-0.068-0.727-0.196s-0.383-0.309-0.482-0.522c-0.099-0.212-0.125-0.446-0.074-0.672s0.175-0.433 0.358-0.595 0.416-0.273 0.67-0.318c0.254-0.045 0.517-0.022 0.756 0.066s0.443 0.237 0.587 0.428c0.144 0.191 0.221 0.416 0.221 0.646 0.001 0.153-0.033 0.305-0.098 0.446s-0.162 0.27-0.283 0.379c-0.122 0.108-0.266 0.195-0.425 0.253s-0.33 0.089-0.502 0.089v-0.004z"></path>
<path fill="#2196f3" style="fill: var(--color1, #2196f3)" d="M15.096 19.694h-0.964v0.996h-0.502v-2.437h1.587v0.407h-1.085v0.629h0.964v0.405zM17.51 19.526c0 0.24-0.042 0.45-0.127 0.631s-0.206 0.32-0.365 0.419c-0.157 0.098-0.338 0.147-0.542 0.147-0.202 0-0.382-0.049-0.541-0.146s-0.281-0.235-0.368-0.415c-0.087-0.181-0.131-0.388-0.132-0.623v-0.121c0-0.24 0.043-0.451 0.129-0.633 0.087-0.183 0.209-0.323 0.367-0.42 0.159-0.098 0.339-0.147 0.542-0.147s0.383 0.049 0.541 0.147c0.158 0.097 0.281 0.237 0.367 0.42 0.087 0.182 0.131 0.392 0.131 0.631v0.109zM17.001 19.416c0-0.256-0.046-0.45-0.137-0.583s-0.222-0.199-0.392-0.199c-0.169 0-0.299 0.066-0.39 0.198-0.091 0.131-0.138 0.323-0.139 0.576v0.119c0 0.249 0.046 0.442 0.137 0.579s0.223 0.206 0.395 0.206c0.169 0 0.298-0.066 0.388-0.198 0.090-0.133 0.136-0.326 0.137-0.579v-0.119zM19.139 20.050c0-0.095-0.033-0.167-0.1-0.218-0.067-0.051-0.187-0.105-0.362-0.161-0.174-0.057-0.312-0.113-0.414-0.167-0.277-0.15-0.415-0.351-0.415-0.604 0-0.132 0.037-0.249 0.11-0.352 0.075-0.104 0.181-0.185 0.32-0.243 0.139-0.058 0.296-0.087 0.469-0.087 0.174 0 0.329 0.032 0.465 0.095 0.136 0.063 0.242 0.151 0.316 0.266 0.076 0.115 0.114 0.246 0.114 0.392h-0.502c0-0.112-0.035-0.198-0.105-0.259-0.070-0.062-0.169-0.094-0.296-0.094-0.123 0-0.218 0.026-0.286 0.079-0.068 0.051-0.102 0.119-0.102 0.204 0 0.079 0.040 0.146 0.119 0.199 0.080 0.054 0.198 0.104 0.353 0.151 0.286 0.086 0.494 0.193 0.624 0.32s0.196 0.286 0.196 0.475c0 0.211-0.080 0.377-0.239 0.497-0.16 0.119-0.374 0.179-0.645 0.179-0.187 0-0.358-0.034-0.512-0.102-0.154-0.069-0.272-0.163-0.353-0.283-0.080-0.119-0.121-0.258-0.121-0.415h0.504c0 0.269 0.161 0.403 0.482 0.403 0.119 0 0.213-0.024 0.28-0.072 0.067-0.049 0.1-0.117 0.1-0.204zM21.819 18.659h-0.747v2.031h-0.502v-2.031h-0.737v-0.407h1.985v0.407zM23.573 19.633h-0.964v0.653h1.132v0.403h-1.634v-2.437h1.631v0.407h-1.128v0.581h0.964v0.393zM24.938 19.797h-0.4v0.892h-0.502v-2.437h0.906c0.288 0 0.51 0.064 0.666 0.193s0.234 0.31 0.234 0.544c0 0.166-0.036 0.305-0.109 0.417-0.071 0.111-0.18 0.199-0.326 0.265l0.527 0.996v0.023h-0.539l-0.457-0.892zM24.538 19.391h0.405c0.126 0 0.224-0.032 0.293-0.095 0.069-0.065 0.104-0.153 0.104-0.266 0-0.115-0.033-0.205-0.099-0.271-0.065-0.066-0.165-0.099-0.3-0.099h-0.403v0.732zM27.581 19.831v0.859h-0.502v-2.437h0.951c0.183 0 0.344 0.033 0.482 0.1 0.139 0.067 0.247 0.162 0.321 0.286 0.075 0.123 0.112 0.263 0.112 0.42 0 0.239-0.082 0.427-0.246 0.566-0.163 0.137-0.389 0.206-0.678 0.206h-0.44zM27.581 19.424h0.449c0.133 0 0.234-0.031 0.303-0.094 0.070-0.063 0.105-0.152 0.105-0.268 0-0.119-0.035-0.216-0.105-0.29s-0.167-0.112-0.291-0.114h-0.46v0.765zM30.759 19.633h-0.964v0.653h1.132v0.403h-1.634v-2.437h1.631v0.407h-1.128v0.581h0.964v0.393zM33.089 18.659h-0.747v2.031h-0.502v-2.031h-0.737v-0.407h1.985v0.407zM34.844 19.633h-0.964v0.653h1.132v0.403h-1.634v-2.437h1.631v0.407h-1.128v0.581h0.964v0.393zM36.208 19.797h-0.4v0.892h-0.502v-2.437h0.906c0.288 0 0.51 0.064 0.666 0.193s0.234 0.31 0.234 0.544c0 0.166-0.036 0.305-0.109 0.417-0.071 0.111-0.18 0.199-0.326 0.265l0.527 0.996v0.023h-0.539l-0.457-0.892zM35.808 19.391h0.405c0.126 0 0.224-0.032 0.293-0.095 0.069-0.065 0.104-0.153 0.104-0.266 0-0.115-0.033-0.205-0.099-0.271-0.065-0.066-0.165-0.099-0.3-0.099h-0.403v0.732zM38.759 20.050c0-0.095-0.033-0.167-0.1-0.218-0.067-0.051-0.187-0.105-0.362-0.161-0.174-0.057-0.312-0.113-0.413-0.167-0.277-0.15-0.415-0.351-0.415-0.604 0-0.132 0.037-0.249 0.111-0.352 0.075-0.104 0.181-0.185 0.32-0.243 0.14-0.058 0.296-0.087 0.469-0.087 0.174 0 0.329 0.032 0.465 0.095 0.136 0.063 0.242 0.151 0.316 0.266 0.076 0.115 0.114 0.246 0.114 0.392h-0.502c0-0.112-0.035-0.198-0.105-0.259-0.070-0.062-0.169-0.094-0.296-0.094-0.123 0-0.218 0.026-0.286 0.079-0.068 0.051-0.102 0.119-0.102 0.204 0 0.079 0.040 0.146 0.119 0.199 0.080 0.054 0.198 0.104 0.353 0.151 0.286 0.086 0.494 0.193 0.624 0.32s0.196 0.286 0.196 0.475c0 0.211-0.080 0.377-0.239 0.497-0.16 0.119-0.374 0.179-0.645 0.179-0.188 0-0.358-0.034-0.512-0.102-0.154-0.069-0.272-0.163-0.353-0.283-0.080-0.119-0.121-0.258-0.121-0.415h0.504c0 0.269 0.161 0.403 0.482 0.403 0.119 0 0.213-0.024 0.28-0.072 0.067-0.049 0.1-0.117 0.1-0.204z"></path>
</symbol>
<symbol id="icon-Client4_logo" viewBox="0 0 49 24">
<path fill="#afb1b8" style="fill: var(--color4, #afb1b8)" d="M7.512 7.487h-0.002c-1.37 0-2.481 0.987-2.481 2.205v0.001c0 1.218 1.111 2.205 2.481 2.205h0.002c1.37 0 2.481-0.987 2.481-2.205v-0.001c0-1.218-1.111-2.205-2.481-2.205z"></path>
<path fill="#afb1b8" style="fill: var(--color4, #afb1b8)" d="M25.826 6.782c-0.004-1.691-0.762-3.313-2.107-4.509s-3.17-1.87-5.073-1.874v0c-1.904 0.003-3.729 0.676-5.075 1.873s-2.105 2.818-2.108 4.51v9.327c0 0 14.362-1.422 14.364-9.326v-0.001z"></path>
<path fill="#afb1b8" style="fill: var(--color4, #afb1b8)" d="M0 19.171c0.003 1.177 0.531 2.305 1.467 3.137s2.205 1.301 3.529 1.305c1.324-0.003 2.593-0.472 3.529-1.304s1.464-1.959 1.468-3.136v-6.49c0 0-9.993 0.99-9.993 6.489zM4.997 20.334c-0.259 0-0.512-0.068-0.727-0.196s-0.383-0.309-0.482-0.522c-0.099-0.212-0.125-0.446-0.074-0.672s0.175-0.433 0.358-0.595 0.416-0.273 0.67-0.318c0.254-0.045 0.517-0.022 0.756 0.066s0.443 0.237 0.587 0.428c0.144 0.191 0.221 0.416 0.221 0.646 0.001 0.153-0.033 0.305-0.098 0.446s-0.162 0.27-0.283 0.379c-0.122 0.108-0.266 0.195-0.425 0.253s-0.33 0.089-0.502 0.089v-0.004z"></path>
<path fill="#afb1b8" style="fill: var(--color4, #afb1b8)" d="M15.096 19.694h-0.964v0.996h-0.502v-2.437h1.587v0.407h-1.085v0.629h0.964v0.405zM17.51 19.526c0 0.24-0.042 0.45-0.127 0.631s-0.206 0.32-0.365 0.419c-0.157 0.098-0.338 0.147-0.542 0.147-0.202 0-0.382-0.049-0.541-0.146s-0.281-0.235-0.368-0.415c-0.087-0.181-0.131-0.388-0.132-0.623v-0.121c0-0.24 0.043-0.451 0.129-0.633 0.087-0.183 0.209-0.323 0.367-0.42 0.159-0.098 0.339-0.147 0.542-0.147s0.383 0.049 0.541 0.147c0.158 0.097 0.281 0.237 0.367 0.42 0.087 0.182 0.131 0.392 0.131 0.631v0.109zM17.001 19.416c0-0.256-0.046-0.45-0.137-0.583s-0.222-0.199-0.392-0.199c-0.169 0-0.299 0.066-0.39 0.198-0.091 0.131-0.138 0.323-0.139 0.576v0.119c0 0.249 0.046 0.442 0.137 0.579s0.223 0.206 0.395 0.206c0.169 0 0.298-0.066 0.388-0.198 0.090-0.133 0.136-0.326 0.137-0.579v-0.119zM19.139 20.050c0-0.095-0.033-0.167-0.1-0.218-0.067-0.051-0.187-0.105-0.362-0.161-0.174-0.057-0.312-0.113-0.414-0.167-0.277-0.15-0.415-0.351-0.415-0.604 0-0.132 0.037-0.249 0.11-0.352 0.075-0.104 0.181-0.185 0.32-0.243 0.139-0.058 0.296-0.087 0.469-0.087 0.174 0 0.329 0.032 0.465 0.095 0.136 0.063 0.242 0.151 0.316 0.266 0.076 0.115 0.114 0.246 0.114 0.392h-0.502c0-0.112-0.035-0.198-0.105-0.259-0.070-0.062-0.169-0.094-0.296-0.094-0.123 0-0.218 0.026-0.286 0.079-0.068 0.051-0.102 0.119-0.102 0.204 0 0.079 0.040 0.146 0.119 0.199 0.080 0.054 0.198 0.104 0.353 0.151 0.286 0.086 0.494 0.193 0.624 0.32s0.196 0.286 0.196 0.475c0 0.211-0.080 0.377-0.239 0.497-0.16 0.119-0.374 0.179-0.645 0.179-0.187 0-0.358-0.034-0.512-0.102-0.154-0.069-0.272-0.163-0.353-0.283-0.080-0.119-0.121-0.258-0.121-0.415h0.504c0 0.269 0.161 0.403 0.482 0.403 0.119 0 0.213-0.024 0.28-0.072 0.067-0.049 0.1-0.117 0.1-0.204zM21.819 18.659h-0.747v2.031h-0.502v-2.031h-0.737v-0.407h1.985v0.407zM23.573 19.633h-0.964v0.653h1.132v0.403h-1.634v-2.437h1.631v0.407h-1.128v0.581h0.964v0.393zM24.938 19.797h-0.4v0.892h-0.502v-2.437h0.906c0.288 0 0.51 0.064 0.666 0.193s0.234 0.31 0.234 0.544c0 0.166-0.036 0.305-0.109 0.417-0.071 0.111-0.18 0.199-0.326 0.265l0.527 0.996v0.023h-0.539l-0.457-0.892zM24.538 19.391h0.405c0.126 0 0.224-0.032 0.293-0.095 0.069-0.065 0.104-0.153 0.104-0.266 0-0.115-0.033-0.205-0.099-0.271-0.065-0.066-0.165-0.099-0.3-0.099h-0.403v0.732zM27.581 19.831v0.859h-0.502v-2.437h0.951c0.183 0 0.344 0.033 0.482 0.1 0.139 0.067 0.247 0.162 0.321 0.286 0.075 0.123 0.112 0.263 0.112 0.42 0 0.239-0.082 0.427-0.246 0.566-0.163 0.137-0.389 0.206-0.678 0.206h-0.44zM27.581 19.424h0.449c0.133 0 0.234-0.031 0.303-0.094 0.070-0.063 0.105-0.152 0.105-0.268 0-0.119-0.035-0.216-0.105-0.29s-0.167-0.112-0.291-0.114h-0.46v0.765zM30.759 19.633h-0.964v0.653h1.132v0.403h-1.634v-2.437h1.631v0.407h-1.128v0.581h0.964v0.393zM33.089 18.659h-0.747v2.031h-0.502v-2.031h-0.737v-0.407h1.985v0.407zM34.844 19.633h-0.964v0.653h1.132v0.403h-1.634v-2.437h1.631v0.407h-1.128v0.581h0.964v0.393zM36.208 19.797h-0.4v0.892h-0.502v-2.437h0.906c0.288 0 0.51 0.064 0.666 0.193s0.234 0.31 0.234 0.544c0 0.166-0.036 0.305-0.109 0.417-0.071 0.111-0.18 0.199-0.326 0.265l0.527 0.996v0.023h-0.539l-0.457-0.892zM35.808 19.391h0.405c0.126 0 0.224-0.032 0.293-0.095 0.069-0.065 0.104-0.153 0.104-0.266 0-0.115-0.033-0.205-0.099-0.271-0.065-0.066-0.165-0.099-0.3-0.099h-0.403v0.732zM38.759 20.050c0-0.095-0.033-0.167-0.1-0.218-0.067-0.051-0.187-0.105-0.362-0.161-0.174-0.057-0.312-0.113-0.413-0.167-0.277-0.15-0.415-0.351-0.415-0.604 0-0.132 0.037-0.249 0.111-0.352 0.075-0.104 0.181-0.185 0.32-0.243 0.14-0.058 0.296-0.087 0.469-0.087 0.174 0 0.329 0.032 0.465 0.095 0.136 0.063 0.242 0.151 0.316 0.266 0.076 0.115 0.114 0.246 0.114 0.392h-0.502c0-0.112-0.035-0.198-0.105-0.259-0.070-0.062-0.169-0.094-0.296-0.094-0.123 0-0.218 0.026-0.286 0.079-0.068 0.051-0.102 0.119-0.102 0.204 0 0.079 0.040 0.146 0.119 0.199 0.080 0.054 0.198 0.104 0.353 0.151 0.286 0.086 0.494 0.193 0.624 0.32s0.196 0.286 0.196 0.475c0 0.211-0.080 0.377-0.239 0.497-0.16 0.119-0.374 0.179-0.645 0.179-0.188 0-0.358-0.034-0.512-0.102-0.154-0.069-0.272-0.163-0.353-0.283-0.080-0.119-0.121-0.258-0.121-0.415h0.504c0 0.269 0.161 0.403 0.482 0.403 0.119 0 0.213-0.024 0.28-0.072 0.067-0.049 0.1-0.117 0.1-0.204z"></path>
</symbol>
<symbol id="icon-Client5b_logo" viewBox="0 0 32 24">
<path fill="#2196f3" style="fill: var(--color1, #2196f3)" d="M2.429 19.78c0.124 0.141 0.191 0.318 0.187 0.499 0.006 0.118-0.016 0.236-0.067 0.345s-0.127 0.206-0.223 0.285c-0.242 0.167-0.541 0.249-0.843 0.23h-1.483v-3.162h1.452c0.287-0.017 0.571 0.057 0.805 0.21 0.094 0.072 0.168 0.163 0.217 0.265s0.071 0.214 0.065 0.326c0.009 0.174-0.051 0.346-0.169 0.483-0.113 0.126-0.268 0.213-0.442 0.247 0.197 0.033 0.374 0.129 0.501 0.27zM0.69 19.302h0.621c0.141 0.010 0.281-0.028 0.395-0.105 0.047-0.039 0.083-0.087 0.106-0.14s0.032-0.111 0.027-0.169c0.004-0.057-0.005-0.115-0.028-0.168s-0.058-0.102-0.104-0.141c-0.117-0.079-0.261-0.117-0.407-0.107h-0.611v0.829zM1.766 20.515c0.050-0.040 0.089-0.089 0.114-0.145s0.037-0.116 0.032-0.176c0.004-0.061-0.008-0.122-0.034-0.178s-0.066-0.106-0.116-0.146c-0.121-0.082-0.271-0.123-0.422-0.114h-0.651v0.87h0.66c0.148 0.008 0.295-0.031 0.417-0.11z"></path>
<path fill="#2196f3" style="fill: var(--color1, #2196f3)" d="M5.398 21.139l-0.808-1.236h-0.304v1.236h-0.695v-3.162h1.316c0.332-0.021 0.66 0.075 0.916 0.269 0.184 0.172 0.295 0.398 0.313 0.638s-0.058 0.478-0.215 0.671c-0.162 0.17-0.384 0.284-0.628 0.321l0.86 1.263h-0.756zM4.286 19.472h0.568c0.395 0 0.592-0.16 0.592-0.479 0.004-0.065-0.007-0.13-0.032-0.192s-0.064-0.117-0.113-0.164c-0.125-0.095-0.285-0.141-0.447-0.128h-0.575l0.007 0.962z"></path>
<path fill="#2196f3" style="fill: var(--color1, #2196f3)" d="M9.197 20.502h-1.385l-0.245 0.636h-0.729l1.272-3.126h0.788l1.267 3.126h-0.729l-0.24-0.636zM9.011 20.024l-0.506-1.334-0.506 1.334h1.012z"></path>
<path fill="#2196f3" style="fill: var(--color1, #2196f3)" d="M13.952 21.139h-0.69l-1.547-2.15v2.15h-0.688v-3.162h0.688l1.547 2.162v-2.162h0.69v3.162z"></path>
<path fill="#2196f3" style="fill: var(--color1, #2196f3)" d="M17.889 20.382c-0.143 0.239-0.36 0.433-0.624 0.558-0.3 0.139-0.634 0.207-0.97 0.199h-1.228v-3.162h1.228c0.336-0.008 0.669 0.059 0.97 0.195 0.264 0.122 0.482 0.314 0.624 0.551 0.142 0.257 0.216 0.541 0.216 0.829s-0.074 0.572-0.216 0.829zM17.1 20.306c0.197-0.21 0.305-0.478 0.305-0.755s-0.108-0.544-0.305-0.754c-0.238-0.19-0.548-0.287-0.864-0.269h-0.479v2.046h0.479c0.315 0.018 0.626-0.079 0.864-0.269z"></path>
<path fill="#2196f3" style="fill: var(--color1, #2196f3)" d="M9.628 0.392c0 0 8.905 3.078 8.716 7.533v7.534c0 0-8.898-3.080-8.713-7.534l-0.003-7.533z"></path>
<path fill="#2196f3" style="fill: var(--color1, #2196f3)" d="M26.278 13.694c1.682-1.060 3.627-1.716 5.658-1.909v-2.358c-2.34 0.826-4.325 2.323-5.658 4.268z"></path>
<path fill="#2196f3" style="fill: var(--color1, #2196f3)" d="M25.267 14.405c1.377-2.538 3.763-4.496 6.668-5.472v-6.796c0 0-12.682 4.385-12.413 10.728v10.727c0 0 0.565-0.196 1.454-0.564 0-0.343 0-0.689 0.041-1.036 0.262-2.945 1.791-5.674 4.251-7.587z"></path>
<path fill="#2196f3" style="fill: var(--color1, #2196f3)" d="M24.061 18.39c0.067-0.744 0.215-1.48 0.444-2.196-1.531 1.652-2.459 3.702-2.652 5.861-0.019 0.204-0.029 0.408-0.034 0.618 0.72-0.317 1.559-0.712 2.439-1.177-0.225-1.022-0.291-2.067-0.197-3.106z"></path>
<path fill="#2196f3" style="fill: var(--color1, #2196f3)" d="M24.566 18.428c-0.084 0.94-0.032 1.886 0.157 2.813 3.465-1.898 7.358-4.831 7.208-8.376v-0.309c-2.475 0.254-4.791 1.244-6.592 2.82-0.422 0.977-0.682 2.005-0.773 3.052z"></path>
</symbol>
<symbol id="icon-Client5_logo" viewBox="0 0 32 24">
<path fill="#afb1b8" style="fill: var(--color4, #afb1b8)" d="M2.429 19.78c0.124 0.141 0.191 0.318 0.187 0.499 0.006 0.118-0.016 0.236-0.067 0.345s-0.127 0.206-0.223 0.285c-0.242 0.167-0.541 0.249-0.843 0.23h-1.483v-3.162h1.452c0.287-0.017 0.571 0.057 0.805 0.21 0.094 0.072 0.168 0.163 0.217 0.265s0.071 0.214 0.065 0.326c0.009 0.174-0.051 0.346-0.169 0.483-0.113 0.126-0.268 0.213-0.442 0.247 0.197 0.033 0.374 0.129 0.501 0.27zM0.69 19.302h0.621c0.141 0.010 0.281-0.028 0.395-0.105 0.047-0.039 0.083-0.087 0.106-0.14s0.032-0.111 0.027-0.169c0.004-0.057-0.005-0.115-0.028-0.168s-0.058-0.102-0.104-0.141c-0.117-0.079-0.261-0.117-0.407-0.107h-0.611v0.829zM1.766 20.515c0.050-0.040 0.089-0.089 0.114-0.145s0.037-0.116 0.032-0.176c0.004-0.061-0.008-0.122-0.034-0.178s-0.066-0.106-0.116-0.146c-0.121-0.082-0.271-0.123-0.422-0.114h-0.651v0.87h0.66c0.148 0.008 0.295-0.031 0.417-0.11z"></path>
<path fill="#afb1b8" style="fill: var(--color4, #afb1b8)" d="M5.398 21.139l-0.808-1.236h-0.304v1.236h-0.695v-3.162h1.316c0.332-0.021 0.66 0.075 0.916 0.269 0.184 0.172 0.295 0.398 0.313 0.638s-0.058 0.478-0.215 0.671c-0.162 0.17-0.384 0.284-0.628 0.321l0.86 1.263h-0.756zM4.286 19.472h0.568c0.395 0 0.592-0.16 0.592-0.479 0.004-0.065-0.007-0.13-0.032-0.192s-0.064-0.117-0.113-0.164c-0.125-0.095-0.285-0.141-0.447-0.128h-0.575l0.007 0.962z"></path>
<path fill="#afb1b8" style="fill: var(--color4, #afb1b8)" d="M9.197 20.502h-1.385l-0.245 0.636h-0.729l1.272-3.126h0.788l1.267 3.126h-0.729l-0.24-0.636zM9.011 20.024l-0.506-1.334-0.506 1.334h1.012z"></path>
<path fill="#afb1b8" style="fill: var(--color4, #afb1b8)" d="M13.952 21.139h-0.69l-1.547-2.15v2.15h-0.688v-3.162h0.688l1.547 2.162v-2.162h0.69v3.162z"></path>
<path fill="#afb1b8" style="fill: var(--color4, #afb1b8)" d="M17.889 20.382c-0.143 0.239-0.36 0.433-0.624 0.558-0.3 0.139-0.634 0.207-0.97 0.199h-1.228v-3.162h1.228c0.336-0.008 0.669 0.059 0.97 0.195 0.264 0.122 0.482 0.314 0.624 0.551 0.142 0.257 0.216 0.541 0.216 0.829s-0.074 0.572-0.216 0.829zM17.1 20.306c0.197-0.21 0.305-0.478 0.305-0.755s-0.108-0.544-0.305-0.754c-0.238-0.19-0.548-0.287-0.864-0.269h-0.479v2.046h0.479c0.315 0.018 0.626-0.079 0.864-0.269z"></path>
<path fill="#afb1b8" style="fill: var(--color4, #afb1b8)" d="M9.628 0.392c0 0 8.905 3.078 8.716 7.533v7.534c0 0-8.898-3.080-8.713-7.534l-0.003-7.533z"></path>
<path fill="#afb1b8" style="fill: var(--color4, #afb1b8)" d="M26.278 13.694c1.682-1.060 3.627-1.716 5.658-1.909v-2.358c-2.34 0.826-4.325 2.323-5.658 4.268z"></path>
<path fill="#afb1b8" style="fill: var(--color4, #afb1b8)" d="M25.267 14.405c1.377-2.538 3.763-4.496 6.668-5.472v-6.796c0 0-12.682 4.385-12.413 10.728v10.727c0 0 0.565-0.196 1.454-0.564 0-0.343 0-0.689 0.041-1.036 0.262-2.945 1.791-5.674 4.251-7.587z"></path>
<path fill="#afb1b8" style="fill: var(--color4, #afb1b8)" d="M24.061 18.39c0.067-0.744 0.215-1.48 0.444-2.196-1.531 1.652-2.459 3.702-2.652 5.861-0.019 0.204-0.029 0.408-0.034 0.618 0.72-0.317 1.559-0.712 2.439-1.177-0.225-1.022-0.291-2.067-0.197-3.106z"></path>
<path fill="#afb1b8" style="fill: var(--color4, #afb1b8)" d="M24.566 18.428c-0.084 0.94-0.032 1.886 0.157 2.813 3.465-1.898 7.358-4.831 7.208-8.376v-0.309c-2.475 0.254-4.791 1.244-6.592 2.82-0.422 0.977-0.682 2.005-0.773 3.052z"></path>
</symbol>
<symbol id="icon-Client6b_logo" viewBox="0 0 50 24">
<path fill="#2196f3" style="fill: var(--color1, #2196f3)" d="M25.293 11.418c-0.236-0.315-0.349-0.686-0.323-1.061v-1.538c0-0.471 0.107-0.83 0.321-1.075s0.581-0.367 1.102-0.366c0.489 0 0.836 0.104 1.042 0.313 0.224 0.266 0.333 0.592 0.308 0.92v0.361h-0.875v-0.366c0.003-0.12-0.005-0.24-0.025-0.358-0.013-0.081-0.057-0.156-0.125-0.213-0.090-0.061-0.203-0.091-0.317-0.083-0.12-0.008-0.239 0.024-0.333 0.088-0.076 0.063-0.127 0.145-0.145 0.235-0.025 0.126-0.037 0.253-0.034 0.38v1.866c-0.014 0.18 0.025 0.36 0.112 0.524 0.044 0.055 0.104 0.099 0.175 0.127s0.149 0.038 0.226 0.029c0.112 0.008 0.223-0.022 0.31-0.084 0.071-0.061 0.117-0.141 0.13-0.227 0.020-0.124 0.030-0.249 0.027-0.374v-0.379h0.875v0.346c0.025 0.342-0.082 0.682-0.303 0.967-0.201 0.228-0.544 0.343-1.047 0.343s-0.884-0.122-1.1-0.375z"></path>
<path fill="#2196f3" style="fill: var(--color1, #2196f3)" d="M28.937 11.433c-0.221-0.239-0.332-0.588-0.332-1.050v-1.617c0-0.457 0.111-0.802 0.332-1.037s0.591-0.351 1.109-0.35c0.515 0 0.882 0.117 1.103 0.35 0.221 0.235 0.333 0.58 0.333 1.037v1.617c0 0.457-0.112 0.807-0.337 1.048s-0.591 0.361-1.1 0.361c-0.509 0-0.886-0.122-1.109-0.36zM30.453 11.045c0.079-0.15 0.115-0.314 0.105-0.479v-1.98c0.010-0.161-0.025-0.322-0.103-0.469-0.044-0.057-0.106-0.101-0.179-0.129s-0.152-0.037-0.231-0.027c-0.079-0.009-0.159 0-0.231 0.028s-0.135 0.072-0.18 0.129c-0.080 0.146-0.116 0.308-0.105 0.469v1.99c-0.011 0.165 0.025 0.329 0.105 0.479 0.051 0.050 0.114 0.091 0.185 0.119s0.147 0.042 0.225 0.042c0.078 0 0.154-0.014 0.225-0.042s0.134-0.068 0.185-0.119v-0.009z"></path>
<path fill="#2196f3" style="fill: var(--color1, #2196f3)" d="M32.535 7.426h0.942l0.708 2.984 0.725-2.984h0.917l0.092 4.308h-0.678l-0.072-2.994-0.699 2.994h-0.544l-0.725-3.005-0.067 3.005h-0.685l0.085-4.308z"></path>
<path fill="#2196f3" style="fill: var(--color1, #2196f3)" d="M36.976 7.426h1.468c0.846 0 1.268 0.408 1.268 1.223 0 0.781-0.445 1.171-1.335 1.17h-0.5v1.915h-0.906l0.005-4.308zM38.23 9.267c0.089 0.010 0.18 0.003 0.266-0.021s0.165-0.063 0.232-0.115c0.104-0.146 0.15-0.316 0.13-0.486 0.005-0.131-0.010-0.263-0.044-0.391-0.013-0.043-0.036-0.083-0.067-0.118s-0.070-0.065-0.115-0.087c-0.126-0.052-0.265-0.076-0.404-0.069h-0.352v1.287h0.352z"></path>
<path fill="#2196f3" style="fill: var(--color1, #2196f3)" d="M41.018 7.426h0.973l0.998 4.308h-0.844l-0.197-0.993h-0.868l-0.203 0.993h-0.857l0.998-4.308zM41.85 10.241l-0.339-1.808-0.339 1.808h0.678z"></path>
<path fill="#2196f3" style="fill: var(--color1, #2196f3)" d="M43.796 7.426h0.634l1.214 2.457v-2.457h0.752v4.308h-0.603l-1.221-2.565v2.565h-0.777l0.002-4.308z"></path>
<path fill="#2196f3" style="fill: var(--color1, #2196f3)" d="M48.157 10.091l-1.009-2.659h0.85l0.616 1.708 0.578-1.708h0.832l-0.997 2.659v1.642h-0.87v-1.642z"></path>
<path fill="#2196f3" style="fill: var(--color1, #2196f3)" d="M26.692 13.617v0.225h-0.739v1.75h-0.31v-1.75h-0.743v-0.225h1.792z"></path>
<path fill="#2196f3" style="fill: var(--color1, #2196f3)" d="M29.009 15.593h-0.239c-0.024 0.001-0.048-0.005-0.067-0.019-0.018-0.011-0.032-0.027-0.040-0.045l-0.214-0.469h-1.025l-0.214 0.469c-0.006 0.020-0.017 0.038-0.033 0.053-0.019 0.013-0.043 0.020-0.067 0.019h-0.239l0.906-1.976h0.315l0.917 1.968zM27.509 14.859h0.855l-0.362-0.804c-0.027-0.061-0.049-0.123-0.067-0.186-0.013 0.038-0.024 0.073-0.034 0.105l-0.033 0.083-0.359 0.802z"></path>
<path fill="#2196f3" style="fill: var(--color1, #2196f3)" d="M30.571 15.399c0.057 0.003 0.114 0.003 0.17 0 0.049-0.004 0.098-0.012 0.145-0.023 0.044-0.009 0.088-0.021 0.13-0.036 0.040-0.014 0.080-0.031 0.121-0.048v-0.444h-0.362c-0.009 0-0.018-0.001-0.026-0.003s-0.016-0.007-0.023-0.012c-0.006-0.004-0.011-0.010-0.014-0.016s-0.005-0.013-0.004-0.020v-0.152h0.703v0.757c-0.057 0.035-0.118 0.067-0.181 0.094-0.065 0.028-0.132 0.050-0.201 0.067-0.074 0.019-0.15 0.032-0.226 0.041-0.088 0.008-0.176 0.013-0.264 0.012-0.156 0.001-0.311-0.024-0.457-0.073-0.136-0.047-0.259-0.117-0.362-0.207-0.101-0.090-0.18-0.196-0.234-0.313-0.057-0.131-0.085-0.27-0.083-0.41-0.002-0.141 0.026-0.281 0.082-0.413 0.052-0.117 0.132-0.224 0.234-0.313 0.103-0.089 0.227-0.159 0.362-0.205 0.155-0.050 0.32-0.075 0.486-0.074 0.084-0 0.169 0.006 0.252 0.017 0.074 0.010 0.146 0.027 0.216 0.050 0.063 0.021 0.124 0.047 0.181 0.078 0.056 0.031 0.108 0.065 0.158 0.103l-0.087 0.122c-0.007 0.011-0.017 0.021-0.029 0.027s-0.027 0.010-0.041 0.010c-0.020-0.001-0.040-0.006-0.056-0.016-0.027-0.013-0.056-0.028-0.089-0.047-0.039-0.021-0.079-0.039-0.121-0.053-0.054-0.019-0.11-0.033-0.167-0.044-0.076-0.012-0.153-0.018-0.23-0.017-0.12-0.001-0.238 0.017-0.35 0.055-0.101 0.035-0.192 0.088-0.266 0.156-0.075 0.071-0.132 0.155-0.169 0.246-0.081 0.214-0.081 0.445 0 0.659 0.040 0.093 0.101 0.178 0.181 0.249 0.074 0.068 0.164 0.121 0.265 0.156 0.115 0.034 0.237 0.047 0.359 0.039z"></path>
<path fill="#2196f3" style="fill: var(--color1, #2196f3)" d="M33.459 15.367h0.989v0.225h-1.292v-1.976h0.31l-0.007 1.75z"></path>
<path fill="#2196f3" style="fill: var(--color1, #2196f3)" d="M35.478 15.592h-0.31v-1.976h0.31v1.976z"></path>
<path fill="#2196f3" style="fill: var(--color1, #2196f3)" d="M36.63 13.626c0.018 0.009 0.034 0.021 0.047 0.036l1.324 1.489c-0.002-0.023-0.002-0.047 0-0.070 0-0.022 0-0.044 0-0.064v-1.408h0.27v1.984h-0.156c-0.023 0.002-0.046-0.002-0.067-0.011-0.019-0.010-0.035-0.023-0.049-0.038l-1.323-1.488c0 0.023 0 0.045 0 0.067s0 0.042 0 0.061v1.408h-0.259v-1.976h0.161c0.017 0 0.035 0.003 0.051 0.009z"></path>
<path fill="#2196f3" style="fill: var(--color1, #2196f3)" d="M40.553 13.617v0.217h-1.098v0.652h0.89v0.21h-0.89v0.674h1.098v0.217h-1.417v-1.971h1.417z"></path>
<path fill="#2196f3" style="fill: var(--color1, #2196f3)" d="M8.086 1.416l13.757 3.372v11.818l-13.757-3.371v-11.819zM7.204 0.409v13.401l15.52 3.806v-13.399l-15.52-3.807z"></path>
<path fill="#2196f3" style="fill: var(--color1, #2196f3)" d="M15.522 23.836l-15.522-3.809v-13.399l15.522 3.807v13.401z"></path>
<path fill="#2196f3" style="fill: var(--color1, #2196f3)" d="M7.461 1.265l13.578 3.33-5.774 4.987-13.58-3.332 5.776-4.985zM7.204 0.409l-7.204 6.219 15.522 3.807 7.202-6.219-15.52-3.807z"></path>
<path fill="#2196f3" style="fill: var(--color1, #2196f3)" d="M16.395 23.082l6.329-5.465-6.329-1.553v7.018z"></path>
</symbol>
<symbol id="icon-Client6_logo" viewBox="0 0 50 24">
<path fill="#afb1b8" style="fill: var(--color4, #afb1b8)" d="M25.293 11.418c-0.236-0.315-0.349-0.686-0.323-1.061v-1.538c0-0.471 0.107-0.83 0.321-1.075s0.581-0.367 1.102-0.366c0.489 0 0.836 0.104 1.042 0.313 0.224 0.266 0.333 0.592 0.308 0.92v0.361h-0.875v-0.366c0.003-0.12-0.005-0.24-0.025-0.358-0.013-0.081-0.057-0.156-0.125-0.213-0.090-0.061-0.203-0.091-0.317-0.083-0.12-0.008-0.239 0.024-0.333 0.088-0.076 0.063-0.127 0.145-0.145 0.235-0.025 0.126-0.037 0.253-0.034 0.38v1.866c-0.014 0.18 0.025 0.36 0.112 0.524 0.044 0.055 0.104 0.099 0.175 0.127s0.149 0.038 0.226 0.029c0.112 0.008 0.223-0.022 0.31-0.084 0.071-0.061 0.117-0.141 0.13-0.227 0.020-0.124 0.030-0.249 0.027-0.374v-0.379h0.875v0.346c0.025 0.342-0.082 0.682-0.303 0.967-0.201 0.228-0.544 0.343-1.047 0.343s-0.884-0.122-1.1-0.375z"></path>
<path fill="#afb1b8" style="fill: var(--color4, #afb1b8)" d="M28.937 11.433c-0.221-0.239-0.332-0.588-0.332-1.050v-1.617c0-0.457 0.111-0.802 0.332-1.037s0.591-0.351 1.109-0.35c0.515 0 0.882 0.117 1.103 0.35 0.221 0.235 0.333 0.58 0.333 1.037v1.617c0 0.457-0.112 0.807-0.337 1.048s-0.591 0.361-1.1 0.361c-0.509 0-0.886-0.122-1.109-0.36zM30.453 11.045c0.079-0.15 0.115-0.314 0.105-0.479v-1.98c0.010-0.161-0.025-0.322-0.103-0.469-0.044-0.057-0.106-0.101-0.179-0.129s-0.152-0.037-0.231-0.027c-0.079-0.009-0.159 0-0.231 0.028s-0.135 0.072-0.18 0.129c-0.080 0.146-0.116 0.308-0.105 0.469v1.99c-0.011 0.165 0.025 0.329 0.105 0.479 0.051 0.050 0.114 0.091 0.185 0.119s0.147 0.042 0.225 0.042c0.078 0 0.154-0.014 0.225-0.042s0.134-0.068 0.185-0.119v-0.009z"></path>
<path fill="#afb1b8" style="fill: var(--color4, #afb1b8)" d="M32.535 7.426h0.942l0.708 2.984 0.725-2.984h0.917l0.092 4.308h-0.678l-0.072-2.994-0.699 2.994h-0.544l-0.725-3.005-0.067 3.005h-0.685l0.085-4.308z"></path>
<path fill="#afb1b8" style="fill: var(--color4, #afb1b8)" d="M36.976 7.426h1.468c0.846 0 1.268 0.408 1.268 1.223 0 0.781-0.445 1.171-1.335 1.17h-0.5v1.915h-0.906l0.005-4.308zM38.23 9.267c0.089 0.010 0.18 0.003 0.266-0.021s0.165-0.063 0.232-0.115c0.104-0.146 0.15-0.316 0.13-0.486 0.005-0.131-0.010-0.263-0.044-0.391-0.013-0.043-0.036-0.083-0.067-0.118s-0.070-0.065-0.115-0.087c-0.126-0.052-0.265-0.076-0.404-0.069h-0.352v1.287h0.352z"></path>
<path fill="#afb1b8" style="fill: var(--color4, #afb1b8)" d="M41.018 7.426h0.973l0.998 4.308h-0.844l-0.197-0.993h-0.868l-0.203 0.993h-0.857l0.998-4.308zM41.85 10.241l-0.339-1.808-0.339 1.808h0.678z"></path>
<path fill="#afb1b8" style="fill: var(--color4, #afb1b8)" d="M43.796 7.426h0.634l1.214 2.457v-2.457h0.752v4.308h-0.603l-1.221-2.565v2.565h-0.777l0.002-4.308z"></path>
<path fill="#afb1b8" style="fill: var(--color4, #afb1b8)" d="M48.157 10.091l-1.009-2.659h0.85l0.616 1.708 0.578-1.708h0.832l-0.997 2.659v1.642h-0.87v-1.642z"></path>
<path fill="#afb1b8" style="fill: var(--color4, #afb1b8)" d="M26.692 13.617v0.225h-0.739v1.75h-0.31v-1.75h-0.743v-0.225h1.792z"></path>
<path fill="#afb1b8" style="fill: var(--color4, #afb1b8)" d="M29.009 15.593h-0.239c-0.024 0.001-0.048-0.005-0.067-0.019-0.018-0.011-0.032-0.027-0.040-0.045l-0.214-0.469h-1.025l-0.214 0.469c-0.006 0.020-0.017 0.038-0.033 0.053-0.019 0.013-0.043 0.020-0.067 0.019h-0.239l0.906-1.976h0.315l0.917 1.968zM27.509 14.859h0.855l-0.362-0.804c-0.027-0.061-0.049-0.123-0.067-0.186-0.013 0.038-0.024 0.073-0.034 0.105l-0.033 0.083-0.359 0.802z"></path>
<path fill="#afb1b8" style="fill: var(--color4, #afb1b8)" d="M30.571 15.399c0.057 0.003 0.114 0.003 0.17 0 0.049-0.004 0.098-0.012 0.145-0.023 0.044-0.009 0.088-0.021 0.13-0.036 0.040-0.014 0.080-0.031 0.121-0.048v-0.444h-0.362c-0.009 0-0.018-0.001-0.026-0.003s-0.016-0.007-0.023-0.012c-0.006-0.004-0.011-0.010-0.014-0.016s-0.005-0.013-0.004-0.020v-0.152h0.703v0.757c-0.057 0.035-0.118 0.067-0.181 0.094-0.065 0.028-0.132 0.050-0.201 0.067-0.074 0.019-0.15 0.032-0.226 0.041-0.088 0.008-0.176 0.013-0.264 0.012-0.156 0.001-0.311-0.024-0.457-0.073-0.136-0.047-0.259-0.117-0.362-0.207-0.101-0.090-0.18-0.196-0.234-0.313-0.057-0.131-0.085-0.27-0.083-0.41-0.002-0.141 0.026-0.281 0.082-0.413 0.052-0.117 0.132-0.224 0.234-0.313 0.103-0.089 0.227-0.159 0.362-0.205 0.155-0.050 0.32-0.075 0.486-0.074 0.084-0 0.169 0.006 0.252 0.017 0.074 0.010 0.146 0.027 0.216 0.050 0.063 0.021 0.124 0.047 0.181 0.078 0.056 0.031 0.108 0.065 0.158 0.103l-0.087 0.122c-0.007 0.011-0.017 0.021-0.029 0.027s-0.027 0.010-0.041 0.010c-0.020-0.001-0.040-0.006-0.056-0.016-0.027-0.013-0.056-0.028-0.089-0.047-0.039-0.021-0.079-0.039-0.121-0.053-0.054-0.019-0.11-0.033-0.167-0.044-0.076-0.012-0.153-0.018-0.23-0.017-0.12-0.001-0.238 0.017-0.35 0.055-0.101 0.035-0.192 0.088-0.266 0.156-0.075 0.071-0.132 0.155-0.169 0.246-0.081 0.214-0.081 0.445 0 0.659 0.040 0.093 0.101 0.178 0.181 0.249 0.074 0.068 0.164 0.121 0.265 0.156 0.115 0.034 0.237 0.047 0.359 0.039z"></path>
<path fill="#afb1b8" style="fill: var(--color4, #afb1b8)" d="M33.459 15.367h0.989v0.225h-1.292v-1.976h0.31l-0.007 1.75z"></path>
<path fill="#afb1b8" style="fill: var(--color4, #afb1b8)" d="M35.478 15.592h-0.31v-1.976h0.31v1.976z"></path>
<path fill="#afb1b8" style="fill: var(--color4, #afb1b8)" d="M36.63 13.626c0.018 0.009 0.034 0.021 0.047 0.036l1.324 1.489c-0.002-0.023-0.002-0.047 0-0.070 0-0.022 0-0.044 0-0.064v-1.408h0.27v1.984h-0.156c-0.023 0.002-0.046-0.002-0.067-0.011-0.019-0.010-0.035-0.023-0.049-0.038l-1.323-1.488c0 0.023 0 0.045 0 0.067s0 0.042 0 0.061v1.408h-0.259v-1.976h0.161c0.017 0 0.035 0.003 0.051 0.009z"></path>
<path fill="#afb1b8" style="fill: var(--color4, #afb1b8)" d="M40.553 13.617v0.217h-1.098v0.652h0.89v0.21h-0.89v0.674h1.098v0.217h-1.417v-1.971h1.417z"></path>
<path fill="#afb1b8" style="fill: var(--color4, #afb1b8)" d="M8.086 1.416l13.757 3.372v11.818l-13.757-3.371v-11.819zM7.204 0.409v13.401l15.52 3.806v-13.399l-15.52-3.807z"></path>
<path fill="#afb1b8" style="fill: var(--color4, #afb1b8)" d="M15.522 23.836l-15.522-3.809v-13.399l15.522 3.807v13.401z"></path>
<path fill="#afb1b8" style="fill: var(--color4, #afb1b8)" d="M7.461 1.265l13.578 3.33-5.774 4.987-13.58-3.332 5.776-4.985zM7.204 0.409l-7.204 6.219 15.522 3.807 7.202-6.219-15.52-3.807z"></path>
<path fill="#afb1b8" style="fill: var(--color4, #afb1b8)" d="M16.395 23.082l6.329-5.465-6.329-1.553v7.018z"></path>
</symbol>
</defs>
</svg>
